<svg version="1.0" xmlns="http://www.w3.org/2000/svg"
 width="1105.000000pt" height="1664.000000pt" viewBox="0 0 1105.000000 1664.000000"
 preserveAspectRatio="xMidYMid meet">

<g transform="translate(0.000000,1664.000000) scale(0.100000,-0.100000)"
fill="#000000" stroke="none">
<path d="M6734 15559 c-146 -17 -300 -83 -388 -167 -56 -53 -130 -171 -165
-260 -48 -126 -64 -227 -58 -366 8 -204 52 -307 223 -526 107 -137 266 -370
323 -471 30 -54 31 -59 20 -107 -16 -67 -9 -82 40 -82 l39 0 40 -102 c22 -57
51 -142 65 -189 17 -58 40 -107 71 -153 58 -84 186 -346 222 -451 39 -117 43
-265 14 -500 -13 -99 -23 -235 -24 -302 l0 -122 -76 -20 c-235 -63 -423 -87
-935 -116 -281 -16 -402 -27 -519 -46 l-70 -11 -131 67 c-124 64 -135 68 -225
76 -102 9 -206 37 -256 68 -35 21 -145 174 -189 260 -35 70 -42 141 -21 214
27 94 40 75 52 -78 8 -105 22 -147 59 -171 22 -14 43 -16 148 -11 l122 5 56
-35 c135 -83 216 -46 264 119 13 46 14 62 4 80 -28 54 -71 84 -139 96 l-39 7
39 45 38 45 79 -75 c89 -86 132 -110 195 -110 52 0 136 45 167 89 91 128 86
279 -14 390 -62 68 -130 75 -272 27 l-68 -23 -59 29 c-32 16 -60 27 -63 25 -2
-3 3 -29 11 -58 9 -29 15 -54 13 -55 -3 -4 -209 37 -216 43 -7 5 23 34 50 49
16 8 52 18 81 22 l53 8 -80 20 c-73 18 -80 22 -83 46 -5 40 16 104 45 138 14
17 29 30 33 28 5 -2 34 -36 65 -76 79 -101 135 -123 214 -82 57 29 107 93 142
184 l31 81 -45 90 -45 91 23 57 c63 154 53 231 -41 336 l-57 63 -79 -7 c-43
-4 -78 -5 -78 -2 0 3 9 26 20 52 11 26 18 51 15 55 -3 5 -43 36 -89 70 l-83
62 59 181 c32 100 74 232 93 294 l36 112 52 16 c29 9 62 28 74 41 24 27 22 48
-16 121 -17 34 -28 43 -55 49 -97 18 -146 -35 -123 -132 7 -29 3 -35 -65 -100
-68 -64 -317 -244 -337 -244 -21 0 -79 242 -88 366 -5 77 -5 81 21 109 48 51
44 113 -8 136 -35 16 -109 -20 -126 -61 -14 -35 -6 -92 17 -115 28 -28 10 -86
-68 -220 -40 -69 -94 -148 -118 -177 -48 -54 -124 -109 -150 -107 -9 0 -90 83
-181 184 l-164 184 -1 64 c0 72 -12 92 -63 114 -30 12 -36 12 -65 -8 -98 -68
-130 -128 -102 -196 9 -20 21 -41 28 -45 7 -4 42 -8 79 -8 l67 0 7 -37 c3 -21
24 -108 46 -193 33 -127 41 -173 42 -255 1 -101 -17 -194 -38 -200 -6 -1 -45
-10 -87 -19 -211 -47 -285 -131 -312 -359 l-12 -100 -58 -51 c-98 -85 -108
-127 -52 -229 19 -35 35 -70 35 -78 0 -9 -13 -28 -30 -44 -42 -40 -70 -106
-70 -164 0 -36 -4 -51 -16 -55 -9 -4 -18 -5 -20 -4 -1 2 -6 57 -11 123 l-8
120 -24 -48 c-27 -56 -26 -129 2 -186 19 -37 17 -41 -48 -151 -75 -125 -80
-208 -21 -315 33 -61 45 -71 186 -157 55 -34 60 -40 60 -73 0 -30 -3 -35 -17
-31 -146 45 -188 42 -238 -16 -56 -66 -58 -137 -7 -180 15 -13 40 -39 55 -59
27 -36 28 -36 73 -28 80 15 124 59 189 188 42 84 36 86 96 -32 l39 -77 -19
-38 c-11 -21 -22 -55 -26 -75 -7 -35 -4 -41 33 -76 87 -83 170 -99 275 -53
l47 21 0 131 0 132 75 -7 c164 -16 211 23 239 196 6 35 6 35 -51 59 -31 13
-69 23 -85 23 -32 0 -76 -37 -136 -116 l-37 -48 -12 28 c-26 60 -9 124 53 200
l35 43 159 0 c127 0 159 -3 163 -14 3 -8 11 -60 18 -115 16 -123 5 -202 -43
-321 l-33 -80 -154 -88 c-191 -109 -241 -152 -286 -247 -43 -91 -99 -144 -301
-285 -488 -341 -862 -580 -1227 -783 -111 -62 -327 -213 -327 -229 0 -13 134
-123 196 -161 68 -41 214 -92 291 -103 62 -8 51 -37 93 256 17 118 33 225 35
237 8 36 381 294 655 453 134 78 395 211 499 255 l64 27 189 -48 190 -47 -4
-106 -4 -106 -83 -176 c-233 -496 -354 -665 -850 -1179 -119 -124 -231 -244
-249 -267 l-32 -41 57 -8 c73 -9 217 9 328 41 49 14 168 57 264 94 97 38 193
73 213 79 l38 10 19 -66 c11 -37 32 -121 46 -186 26 -113 85 -255 110 -263 6
-1 46 54 89 124 66 104 81 123 88 107 8 -20 258 -1160 258 -1179 0 -6 -37 -9
-102 -7 -302 11 -564 -80 -748 -259 -85 -82 -214 -260 -179 -247 8 3 273 74
589 158 316 84 576 154 578 155 2 1 -19 92 -47 201 -58 232 -76 325 -90 449
-14 123 -34 425 -29 430 4 4 54 -57 107 -131 38 -53 87 -90 151 -115 38 -15
52 -16 55 -7 4 14 105 608 105 620 0 4 11 2 25 -4 l25 -11 0 -3524 0 -3523 70
0 70 0 0 3495 c0 1922 3 3495 7 3495 6 0 142 -49 150 -54 7 -5 217 -750 229
-816 19 -99 15 -252 -9 -316 l-15 -41 34 -17 c19 -9 44 -16 56 -16 24 0 809
201 873 223 l40 14 -58 37 c-31 20 -123 69 -204 109 -146 72 -146 72 -227 71
-100 -1 -183 -32 -293 -111 -41 -29 -78 -51 -83 -48 -10 6 -60 213 -89 370
-27 139 -51 350 -51 436 l0 66 38 6 c20 3 91 11 157 18 66 7 121 13 122 14 2
1 -20 57 -47 125 -28 68 -50 126 -50 128 0 6 96 -6 258 -34 79 -13 167 -24
196 -24 55 0 162 17 184 29 8 5 -40 62 -148 176 -145 154 -175 195 -152 208 6
4 192 -21 274 -37 24 -5 30 1 63 60 20 36 35 67 33 68 -1 2 -154 101 -338 221
-416 271 -448 293 -562 414 -202 212 -340 455 -414 726 l-25 90 93 88 c263
249 290 267 463 291 357 52 728 79 1005 74 200 -3 206 -4 265 -31 65 -30 124
-81 160 -138 23 -36 23 -36 9 -160 -8 -68 -23 -169 -33 -224 -11 -55 -23 -122
-26 -150 -8 -58 13 -171 45 -242 23 -53 101 -176 107 -170 2 2 -5 24 -15 48
-11 25 -26 76 -35 114 -40 175 -32 315 36 644 l43 204 104 -3 c58 -1 116 -3
130 -3 23 -2 26 3 38 58 19 92 10 210 -23 283 -41 92 -49 96 -159 93 l-94 -3
-7 154 c-3 84 -5 277 -4 428 3 257 2 280 -19 355 -31 112 -91 233 -172 345
-115 160 -169 301 -170 440 l0 55 56 30 56 30 -7 40 c-20 125 -22 112 48 225
37 58 98 145 137 194 124 156 183 271 259 511 85 265 75 416 -40 612 -54 91
-192 224 -270 261 -115 55 -262 77 -395 61z m414 -689 c16 -53 15 -95 -3 -130
-26 -50 -55 -35 -55 28 -1 31 -17 55 -42 65 -25 9 -22 23 10 45 59 42 74 41
90 -8z m-2079 -974 c-2 -1 -31 -15 -64 -30 l-60 -26 33 30 c22 20 43 30 64 30
17 0 29 -2 27 -4z m-875 -162 c-25 -60 -49 -113 -53 -117 -8 -8 -31 86 -31
124 0 14 118 111 128 104 1 -1 -18 -51 -44 -111z m924 -1 c-11 -24 -20 -28
-63 -31 -67 -3 -84 8 -65 43 15 29 57 55 105 65 27 5 30 3 33 -22 2 -15 -3
-40 -10 -55z m-553 17 l18 -40 34 40 c19 22 38 40 43 40 8 0 93 -131 88 -135
-50 -39 -159 -115 -167 -115 -9 0 -113 158 -126 191 -4 12 6 24 37 42 24 14
46 24 49 22 3 -2 14 -22 24 -45z m-571 -71 c20 -15 26 -29 26 -57 0 -68 -13
-69 -69 -1 -39 46 -49 64 -39 70 22 15 54 10 82 -12z m-144 -161 l52 -98 -54
0 c-30 0 -59 5 -66 12 -13 13 -16 99 -5 161 3 21 9 35 13 30 5 -4 31 -52 60
-105z m1326 5 c-16 -14 -40 -23 -59 -23 l-32 0 55 39 c45 32 56 37 59 23 2 -9
-9 -26 -23 -39z m-868 -287 c34 -18 75 -61 98 -106 16 -29 19 -57 19 -165 0
-148 -11 -195 -58 -257 -35 -46 -117 -97 -155 -98 -13 0 -50 15 -82 33 l-59
32 -13 70 c-7 39 -13 120 -13 180 0 123 13 162 77 222 27 25 144 103 156 103
2 0 15 -6 30 -14z m942 -40 c0 -27 -15 -42 -25 -26 -8 13 3 50 16 50 5 0 9
-11 9 -24z m-1660 -82 c0 -11 -9 -29 -20 -39 -20 -18 -20 -17 -20 51 l0 69 20
-30 c11 -16 20 -39 20 -51z m230 -70 l0 -135 -29 16 c-17 8 -32 19 -35 23 -2
4 6 57 19 118 13 60 24 113 25 117 0 5 5 5 10 2 6 -4 10 -62 10 -141z m1691
90 c26 -13 50 -28 54 -34 9 -15 -34 -12 -91 5 -27 8 -58 15 -70 15 -21 0 -57
-32 -66 -60 -6 -16 -78 -45 -78 -31 0 3 16 30 36 59 58 86 113 98 215 46z
m-724 -82 c59 -115 40 -171 -72 -217 l-60 -24 -22 21 c-32 29 -63 98 -63 136
0 44 23 97 56 127 24 22 36 25 78 23 l50 -3 33 -63z m-963 -487 c1 -86 -15
-165 -34 -165 -4 0 -30 29 -56 65 l-49 66 -71 -4 c-118 -6 -184 -59 -184 -145
0 -72 68 -122 164 -122 14 0 26 -3 26 -6 0 -3 -13 -25 -30 -48 -42 -62 -60
-67 -148 -41 -43 13 -55 22 -71 53 -30 59 -34 121 -15 229 26 154 13 143 152
142 139 0 206 19 262 75 34 33 35 34 44 13 4 -12 9 -62 10 -112z m1191 -104
c-11 -150 -8 -143 -83 -177 -36 -16 -70 -30 -74 -32 -10 -5 -10 59 0 74 4 6
25 20 47 32 39 19 41 24 64 110 19 68 28 89 39 85 11 -5 13 -22 7 -92z m118 6
c-4 -36 0 -64 11 -91 9 -22 15 -41 12 -43 -9 -10 -66 70 -66 94 0 22 34 93 45
93 2 0 1 -24 -2 -53z m-1489 -3 c9 -24 7 -28 -9 -14 -17 14 -20 30 -6 30 5 0
12 -7 15 -16z m266 -205 c0 -3 -31 -27 -70 -52 -73 -49 -106 -93 -96 -131 3
-13 37 -60 75 -107 40 -47 66 -88 62 -92 -11 -11 -75 -12 -94 0 -8 4 -38 29
-67 56 l-52 47 3 73 c4 65 11 86 63 194 l59 122 58 -52 c33 -28 59 -54 59 -58z
m88 -34 c37 -13 52 -24 52 -37 0 -15 -8 -18 -45 -18 -42 0 -46 2 -66 41 -14
29 -17 40 -7 37 7 -3 37 -13 66 -23z m1342 -60 c0 -11 -12 -15 -45 -15 -72 0
-53 24 23 29 13 0 22 -5 22 -14z m-1390 2 c0 -1 -36 -38 -80 -82 l-80 -80 0
83 0 82 80 0 c44 0 80 -1 80 -3z m1070 -31 c0 -16 -21 -26 -56 -26 -17 0 -24
6 -24 20 0 17 7 20 40 20 28 0 40 -4 40 -14z m300 -96 l35 -19 -65 0 -65 0 24
19 c28 24 27 24 71 0z m-1077 -97 c-7 -2 -19 -2 -25 0 -7 3 -2 5 12 5 14 0 19
-2 13 -5z m-823 -106 c37 -63 37 -65 16 -71 -35 -10 -96 -7 -96 4 0 21 33 141
37 136 3 -2 22 -34 43 -69z m58 46 c2 -15 -5 -23 -27 -31 -36 -13 -36 -11 -15
29 17 33 37 34 42 2z m493 -90 c39 -23 61 -70 57 -118 l-3 -40 -61 85 c-82
115 -81 112 -48 100 15 -6 40 -18 55 -27z m-156 -160 c-4 -21 -11 -45 -17 -53
-7 -11 -8 -9 -4 10 3 14 6 37 6 53 0 15 5 27 11 27 8 0 9 -12 4 -37z"/>
<path d="M4236 12928 c-23 -33 -20 -75 9 -103 47 -48 119 -19 119 48 0 49 -27
77 -75 77 -28 0 -42 -6 -53 -22z"/>
<path d="M4652 13024 c-34 -23 -27 -83 11 -104 24 -13 30 -13 55 0 37 21 44
81 10 104 -12 9 -29 16 -38 16 -9 0 -26 -7 -38 -16z"/>
</g>
</svg>
