<svg version="1.0" xmlns="http://www.w3.org/2000/svg"
 width="1105.000000pt" height="1664.000000pt" viewBox="0 0 1105.000000 1664.000000"
 preserveAspectRatio="xMidYMid meet">
<g transform="translate(0.000000,1664.000000) scale(0.100000,-0.100000)"
fill="#000000" stroke="none">
<path d="M6684 15556 c-231 -44 -377 -152 -477 -351 -69 -138 -103 -334 -87
-493 19 -175 56 -256 219 -472 148 -196 220 -298 291 -417 l57 -95 -15 -70
c-15 -68 -15 -71 4 -85 12 -9 32 -12 56 -9 l37 6 39 -103 c22 -56 50 -138 62
-182 15 -55 37 -103 71 -153 66 -99 181 -335 219 -450 44 -132 49 -245 20
-467 -13 -93 -24 -233 -26 -310 l-3 -140 -43 -13 c-170 -51 -461 -94 -758
-112 -450 -26 -522 -31 -640 -46 -69 -8 -131 -17 -138 -19 -7 -3 -69 25 -138
61 -120 64 -128 66 -237 79 -122 15 -146 21 -224 54 -45 20 -59 34 -121 124
-125 183 -145 241 -117 343 27 102 36 86 50 -94 6 -81 24 -125 57 -143 14 -8
67 -11 149 -10 l126 2 52 -32 c74 -46 154 -52 198 -15 34 28 69 101 79 164 12
74 -48 138 -141 151 l-39 6 38 43 39 43 44 -50 c53 -60 125 -114 176 -131 65
-21 130 2 198 69 47 48 58 66 74 123 21 78 17 144 -13 211 -27 60 -77 114
-119 128 -46 15 -139 6 -220 -21 l-61 -21 -60 30 c-33 17 -99 40 -146 52 -96
24 -96 24 -72 104 14 43 49 95 67 95 3 0 32 -33 62 -74 48 -64 63 -76 106 -91
48 -16 51 -15 101 6 29 12 65 39 85 62 36 42 95 170 95 207 0 11 -18 57 -40
101 l-41 80 32 91 c49 143 34 217 -64 324 -41 46 -54 54 -76 50 -14 -3 -50 -8
-79 -11 l-52 -7 20 47 c11 26 20 53 20 60 0 7 -38 40 -85 74 -47 34 -85 65
-84 69 0 4 41 135 92 291 l92 283 55 20 c64 24 90 44 90 70 0 26 -39 119 -60
141 -36 39 -132 24 -165 -27 -17 -25 -17 -72 0 -122 6 -18 -7 -33 -77 -93 -47
-39 -137 -107 -201 -151 -108 -75 -117 -79 -126 -61 -19 35 -49 185 -61 307
l-12 120 31 33 c40 42 42 91 6 126 -29 30 -38 30 -90 6 -65 -30 -78 -51 -71
-113 21 -176 26 -153 -55 -290 -78 -133 -148 -215 -217 -255 -37 -22 -45 -24
-56 -12 -8 8 -84 92 -170 187 l-156 174 0 62 c0 74 -16 101 -69 117 -36 11
-42 9 -84 -20 -88 -60 -119 -143 -78 -208 20 -32 22 -33 96 -33 73 0 75 -1 75
-24 0 -14 18 -94 40 -178 54 -213 64 -284 51 -364 -19 -106 -21 -109 -120
-132 -151 -36 -219 -77 -264 -160 -29 -53 -57 -174 -57 -245 0 -37 -6 -46 -75
-114 -98 -97 -102 -116 -46 -224 l42 -80 -35 -40 c-49 -58 -69 -105 -69 -165
0 -43 -3 -53 -18 -57 -17 -5 -19 3 -21 86 -1 51 -2 107 -1 125 1 43 -9 40 -37
-10 -29 -51 -31 -133 -5 -196 l17 -43 -45 -77 c-90 -155 -99 -229 -39 -343 36
-70 39 -73 144 -137 102 -62 108 -67 108 -98 l0 -33 -42 15 c-58 20 -138 28
-170 16 -42 -17 -80 -76 -86 -132 -5 -54 -1 -62 72 -140 l49 -52 52 11 c74 17
115 56 170 162 l47 91 17 -26 c9 -14 30 -52 46 -85 l28 -60 -21 -50 c-40 -92
-30 -122 60 -181 54 -35 69 -40 120 -40 39 0 75 8 113 24 l55 25 0 128 0 128
97 -3 c89 -3 101 -1 133 20 38 26 65 84 76 166 l6 50 -48 22 c-80 35 -108 37
-149 6 -19 -15 -54 -52 -77 -82 -47 -62 -59 -58 -60 19 -1 49 19 93 69 148
l35 39 153 0 153 0 13 -72 c27 -154 15 -256 -48 -400 l-25 -56 -155 -89 c-194
-110 -234 -144 -278 -237 -59 -124 -140 -188 -735 -585 -304 -203 -480 -312
-737 -457 -100 -56 -229 -138 -288 -180 l-105 -78 52 -54 c107 -108 252 -184
416 -217 46 -9 85 -15 86 -13 2 2 19 120 39 262 20 143 38 260 39 261 2 1 44
31 93 66 338 245 782 505 1060 622 l61 25 184 -47 185 -48 -1 -99 c-1 -99 -1
-99 -61 -229 -139 -300 -252 -504 -361 -650 -105 -140 -311 -374 -517 -585
-221 -226 -280 -294 -269 -311 5 -8 44 -10 133 -6 158 7 256 31 496 125 196
76 254 96 260 90 6 -5 50 -168 74 -273 20 -86 85 -235 106 -242 6 -1 46 55 90
126 44 71 81 128 82 127 1 0 58 -262 128 -581 69 -319 128 -588 131 -597 5
-17 -6 -18 -125 -18 -156 0 -258 -13 -366 -47 -155 -49 -274 -123 -386 -239
-68 -72 -167 -210 -156 -220 6 -6 1149 295 1170 308 9 5 -3 66 -41 215 -28
114 -61 262 -72 328 -18 113 -54 524 -46 532 4 4 63 -70 108 -135 16 -22 48
-53 72 -69 43 -29 122 -60 130 -52 3 2 28 144 57 314 29 171 53 311 54 313 1
1 10 0 19 -4 15 -6 16 -271 16 -3535 l0 -3529 75 0 75 0 0 3500 0 3499 77 -28
77 -28 103 -354 c111 -381 143 -516 143 -601 0 -49 -20 -162 -35 -200 -5 -13
3 -22 34 -38 l42 -21 432 110 c444 112 487 125 487 138 0 15 -97 72 -244 144
-126 63 -153 72 -213 76 -111 8 -226 -35 -355 -132 l-47 -36 -10 38 c-69 259
-131 635 -131 797 l0 43 157 17 c87 9 160 19 162 22 3 2 -18 60 -46 127 l-50
123 71 -8 c39 -4 126 -17 194 -29 138 -24 301 -23 359 2 l32 14 -164 174
c-151 160 -179 201 -140 201 24 0 274 -40 291 -47 12 -4 15 -3 10 5 -4 7 6 36
23 66 17 29 31 58 31 64 0 5 -166 119 -369 251 -386 253 -457 308 -565 431
-190 216 -356 528 -390 736 l-7 41 128 121 c240 226 248 230 484 261 477 63
979 90 1121 60 104 -22 203 -92 244 -171 15 -29 15 -44 5 -148 -7 -63 -24
-173 -38 -245 -39 -198 -23 -307 67 -455 74 -122 96 -134 54 -31 -46 112 -56
190 -51 361 4 130 12 187 46 350 22 107 43 206 46 219 l6 24 129 -7 128 -7 11
51 c15 72 14 198 -4 256 -8 27 -28 71 -45 97 l-31 49 -94 -7 c-52 -4 -96 -6
-97 -4 -1 2 -4 200 -8 439 -6 369 -9 445 -24 500 -25 93 -105 251 -177 350
-107 149 -151 256 -165 407 l-7 71 61 33 c41 23 60 39 57 49 -2 8 -9 43 -15
77 l-11 63 75 117 c41 65 96 143 122 173 107 124 173 249 248 468 89 261 98
389 37 553 -48 128 -163 275 -272 348 -124 83 -336 119 -505 87z m-2124 -1805
c21 -43 40 -60 40 -38 0 7 14 26 31 43 30 29 31 29 46 9 35 -47 65 -107 57
-114 -31 -26 -155 -113 -158 -110 -1 2 -30 49 -64 103 l-62 100 38 22 c20 12
40 23 44 23 4 1 17 -17 28 -38z m-210 -559 c66 -66 85 -131 76 -264 -4 -59
-14 -119 -26 -152 -25 -65 -85 -125 -152 -150 l-46 -18 -65 36 -65 36 -13 83
c-17 105 -17 231 0 281 7 21 30 57 50 79 41 46 147 117 175 117 10 0 40 -21
66 -48z m401 -93 c28 -28 69 -118 69 -152 0 -38 -51 -88 -114 -112 l-49 -19
-33 36 c-60 66 -65 156 -13 223 38 48 105 59 140 24z m-930 -535 c1 -64 -13
-138 -30 -156 -3 -3 -28 25 -56 63 l-50 70 -65 -6 c-36 -3 -85 -16 -109 -28
-62 -30 -85 -65 -85 -127 0 -64 27 -94 99 -111 91 -21 89 -19 63 -59 -37 -55
-64 -63 -134 -42 -53 16 -61 22 -81 62 -28 55 -30 136 -6 260 l16 88 131 4
c147 5 210 24 262 79 l29 30 7 -28 c5 -15 9 -60 9 -99z m1195 -61 c-3 -27 -8
-78 -11 -115 l-6 -67 -66 -30 c-77 -37 -83 -37 -83 -10 0 34 17 54 58 73 37
17 41 23 57 84 25 92 33 112 46 112 7 0 9 -16 5 -47z m-1164 -190 c26 -26 48
-50 48 -54 0 -4 -29 -26 -66 -49 -65 -43 -94 -80 -94 -120 0 -23 25 -76 38
-82 16 -6 101 -122 96 -130 -3 -4 -21 -8 -39 -8 -28 0 -46 10 -90 50 -30 28
-60 50 -66 50 -8 0 -10 23 -7 73 4 64 12 90 63 195 32 67 61 122 64 122 3 0
27 -21 53 -47z"/>
<path d="M4230 12950 c-40 -40 -34 -112 14 -145 86 -61 184 60 111 139 -31 33
-94 37 -125 6z"/>
<path d="M4635 13025 c-43 -42 -24 -106 38 -128 21 -8 58 5 80 28 42 41 0 125
-63 125 -19 0 -40 -9 -55 -25z"/>
</g>
</svg>
