<?xml version="1.0" standalone="no"?>
<!DOCTYPE svg PUBLIC "-//W3C//DTD SVG 20010904//EN"
 "http://www.w3.org/TR/2001/REC-SVG-20010904/DTD/svg10.dtd">
<svg version="1.0" xmlns="http://www.w3.org/2000/svg"
 width="1272.000000pt" height="1646.000000pt" viewBox="0 0 1272.000000 1646.000000"
 preserveAspectRatio="xMidYMid meet">

<g transform="translate(0.000000,1646.000000) scale(0.100000,-0.100000)"
fill="#000000" stroke="none">
<path d="M7470 13811 c-76 -18 -163 -43 -195 -57 -19 -8 -94 -30 -167 -50
-492 -133 -871 -381 -1167 -764 -153 -198 -277 -397 -385 -621 -170 -351 -239
-623 -240 -944 -1 -276 38 -457 166 -774 174 -435 261 -720 324 -1061 27 -145
25 -378 -5 -495 -31 -126 -114 -290 -206 -410 -43 -55 -94 -134 -114 -175 -45
-93 -49 -178 -12 -248 31 -60 74 -78 131 -56 50 20 135 111 217 230 76 112
136 179 216 242 85 67 142 95 199 96 66 1 116 -37 210 -162 l78 -102 2 -3128
3 -3127 68 -3 67 -3 0 3077 c0 2926 1 3076 18 3069 121 -47 227 -44 334 10 78
39 114 73 211 200 125 163 158 195 202 195 30 0 49 -13 150 -109 214 -204 290
-211 551 -56 165 99 261 120 415 91 234 -44 389 3 457 140 31 62 87 105 197
153 134 58 203 101 258 160 77 82 77 162 -1 240 -56 56 -116 85 -203 101 -89
17 -163 6 -315 -45 -160 -54 -243 -64 -334 -41 -105 27 -179 86 -243 196 -34
59 -184 443 -241 618 -81 250 -122 484 -114 651 5 108 34 166 102 206 45 26
72 33 336 81 449 81 484 86 680 94 324 12 468 52 703 192 67 40 176 100 242
133 112 57 122 65 144 108 l23 47 -42 108 c-61 151 -113 250 -186 348 -80 107
-200 344 -254 499 -61 179 -104 231 -210 258 -46 12 -57 20 -72 49 -23 44 -38
131 -38 223 -1 201 -75 338 -243 449 -73 48 -116 52 -129 14 -7 -22 10 -84
100 -350 61 -178 113 -333 117 -346 12 -40 -12 -79 -63 -102 -97 -45 -121 -94
-101 -204 16 -85 -3 -142 -60 -179 -26 -17 -48 -45 -66 -82 -25 -50 -27 -64
-22 -128 3 -40 15 -111 28 -159 l23 -88 -26 -27 c-55 -58 -60 -113 -23 -248
47 -168 30 -287 -50 -352 -67 -56 -115 -63 -492 -75 -381 -12 -373 -13 -373
52 0 36 113 407 281 918 44 134 94 296 111 360 72 273 39 523 -96 732 -49 75
-132 163 -198 207 -36 25 -256 133 -423 208 -45 20 -196 29 -255 16z m1779
-344 l55 -58 -21 -62 -20 -62 -56 111 c-42 85 -53 114 -44 123 17 17 27 12 86
-52z m60 -234 c6 -14 9 -28 6 -32 -8 -7 -44 39 -45 56 0 20 26 4 39 -24z
m-2140 -387 c67 -35 157 -173 221 -338 89 -230 107 -578 36 -716 -55 -106
-145 -161 -267 -162 -94 0 -149 25 -197 93 -49 68 -71 142 -98 331 l-25 170
36 180 c60 303 86 368 177 428 46 31 76 35 117 14z m2279 -71 c-9 -9 -218 -17
-218 -8 0 5 48 21 108 35 l107 25 3 -24 c2 -14 2 -26 0 -28z m145 -69 c24 -18
21 -45 -5 -51 -13 -3 -102 -23 -198 -44 l-175 -38 -3 30 c-2 16 2 36 10 42 12
12 287 73 333 74 11 0 28 -6 38 -13z m51 -247 c29 -23 36 -72 14 -102 -14 -18
-144 -95 -194 -115 -63 -25 -210 -52 -280 -52 -61 0 -78 4 -94 20 -26 26 -26
83 0 120 19 26 23 27 83 23 88 -7 212 25 318 82 95 50 115 54 153 24z m-3180
-90 c82 -64 127 -271 106 -486 -15 -146 -53 -334 -77 -375 -29 -50 -77 -78
-135 -78 -57 0 -91 15 -134 62 -43 45 -67 95 -113 238 l-39 121 22 112 c39
190 106 319 204 394 54 41 123 46 166 12z m3431 -208 c8 -26 -20 -86 -51 -110
-33 -26 -58 -26 -134 0 -60 20 -130 27 -169 14 -11 -3 -40 -37 -65 -75 -25
-38 -55 -74 -65 -80 -29 -15 -77 -12 -139 7 -52 17 -55 17 -90 -2 -20 -11 -38
-29 -40 -40 -9 -52 -62 -49 -62 4 0 36 24 68 70 91 47 24 92 25 151 5 24 -9
53 -14 65 -11 12 3 39 34 62 70 23 35 54 71 68 81 43 28 129 31 201 6 92 -31
111 -29 130 17 22 53 33 65 49 51 7 -6 16 -19 19 -28z m96 -170 c29 -23 31
-81 4 -111 -28 -31 -88 -27 -114 6 -28 35 -26 69 4 99 29 30 73 33 106 6z
m-246 -86 c31 -30 32 -66 2 -101 -33 -38 -81 -37 -115 1 -64 75 44 170 113
100z m-242 -97 c39 -46 5 -128 -53 -128 -41 0 -80 35 -80 71 0 17 5 39 11 50
22 42 89 46 122 7z m-290 -60 c55 -73 -53 -159 -118 -93 -31 30 -32 71 -3 102
31 33 93 29 121 -9z m-1393 -720 c59 -37 76 -57 67 -82 -9 -22 -40 -20 -79 4
-18 11 -38 20 -44 20 -18 0 -130 -229 -144 -296 -23 -102 -45 -109 -117 -33
-26 29 -90 87 -142 131 -82 69 -96 77 -102 62 -3 -11 -19 -84 -34 -164 -15
-80 -40 -194 -56 -255 -15 -60 -33 -139 -40 -175 -15 -83 -24 -100 -54 -100
-30 0 -46 26 -140 225 -87 186 -104 214 -213 378 -83 124 -86 127 -105 110
-21 -19 -188 -238 -272 -358 -71 -101 -90 -118 -115 -105 -20 11 -87 136 -130
243 l-23 59 -20 -34 c-11 -18 -43 -63 -70 -100 -53 -74 -82 -87 -93 -42 -5 20
2 38 34 82 23 32 62 92 88 134 64 104 103 114 119 30 8 -46 92 -247 108 -261
9 -7 22 4 47 42 62 92 236 321 282 370 47 50 75 58 100 30 25 -30 161 -233
216 -323 28 -47 77 -142 108 -213 31 -70 59 -125 62 -122 10 9 52 188 93 388
45 224 61 267 97 267 25 0 126 -77 238 -182 l61 -57 33 86 c36 91 119 240 147
261 24 18 33 16 93 -20z"/>
</g>
</svg>
