<svg version="1.0" xmlns="http://www.w3.org/2000/svg"
 width="1272.000000pt" height="1646.000000pt" viewBox="0 0 1272.000000 1646.000000"
 preserveAspectRatio="xMidYMid meet">
<g transform="translate(0.000000,1646.000000) scale(0.100000,-0.100000)"
fill="#000000" stroke="none">
<path d="M7400 13806 c-36 -13 -90 -33 -120 -44 -30 -12 -112 -37 -181 -56
-377 -103 -674 -266 -940 -515 -231 -215 -523 -653 -674 -1011 -125 -294 -183
-594 -172 -880 10 -255 50 -420 181 -742 237 -587 357 -1090 326 -1370 -23
-204 -90 -365 -235 -558 -105 -141 -145 -225 -145 -305 1 -99 55 -185 117
-185 69 0 135 62 270 252 138 193 303 328 402 328 23 0 54 -6 69 -14 36 -19
108 -96 160 -173 23 -34 46 -65 52 -68 7 -4 10 -1050 10 -3136 l0 -3129 75 0
75 0 0 3070 c0 1689 3 3070 8 3070 4 0 29 -7 56 -15 100 -30 226 -12 316 45
54 35 122 104 178 181 74 102 143 180 169 190 41 15 65 1 175 -106 135 -130
189 -160 283 -160 60 1 82 6 147 37 42 20 101 52 131 71 94 60 137 79 221 93
71 13 91 12 175 -2 137 -23 278 -16 353 18 57 26 78 49 138 148 30 50 85 88
188 131 115 47 205 103 251 155 113 128 33 288 -169 340 -104 26 -198 16 -370
-40 -124 -41 -156 -48 -225 -48 -130 0 -222 47 -300 153 -70 95 -275 628 -334
869 -71 290 -77 503 -18 592 46 67 90 86 282 119 66 11 203 36 304 55 237 44
406 64 554 64 66 0 145 6 180 14 34 8 89 20 122 26 95 19 213 71 372 166 81
48 190 107 241 132 79 37 95 49 112 82 11 22 20 48 20 59 0 27 -84 232 -129
316 -21 39 -65 107 -99 153 -78 105 -199 345 -247 487 -20 61 -48 129 -61 153
-30 52 -93 99 -143 108 -87 15 -107 62 -121 279 -11 186 -39 260 -132 354 -61
62 -170 131 -207 131 -27 0 -31 -4 -37 -37 -5 -26 -2 -52 10 -83 60 -159 206
-609 206 -635 0 -37 -17 -55 -82 -83 -30 -13 -55 -33 -68 -54 -19 -30 -20 -43
-14 -131 7 -117 0 -139 -62 -191 -24 -20 -54 -56 -65 -79 -19 -37 -21 -52 -16
-137 3 -52 15 -126 26 -165 l21 -69 -24 -26 c-13 -14 -29 -35 -35 -47 -17 -34
-13 -135 9 -205 27 -82 36 -191 21 -246 -14 -50 -67 -113 -116 -136 -61 -29
-125 -36 -449 -46 -288 -9 -322 -9 -344 6 -21 14 -24 21 -19 58 6 41 104 353
263 841 100 304 150 489 164 604 21 165 -24 376 -112 526 -24 41 -77 105 -127
155 -84 84 -90 88 -316 200 l-230 114 -115 3 c-99 2 -124 -1 -180 -21z m-218
-976 c58 -39 84 -73 140 -185 90 -179 133 -336 144 -520 15 -262 -51 -418
-200 -474 -124 -46 -236 -16 -307 82 -41 57 -67 148 -93 331 l-23 159 38 191
c43 216 64 288 103 346 28 42 107 100 136 100 9 0 37 -14 62 -30z m2399 -120
c16 -9 28 -50 14 -50 -3 0 -86 -18 -185 -40 -99 -22 -184 -40 -190 -40 -8 0
-4 57 5 68 2 2 77 18 166 37 90 18 165 34 167 34 2 1 12 -4 23 -9z m51 -267
c25 -22 23 -65 -4 -89 -63 -56 -164 -102 -282 -129 -179 -41 -266 -26 -266 45
0 38 36 83 58 71 49 -25 240 17 353 78 81 44 113 50 141 24z m-3169 -83 c88
-77 129 -312 97 -545 -42 -296 -87 -380 -204 -380 -109 0 -167 70 -237 285
-45 139 -45 149 -8 300 28 114 78 217 139 283 84 92 152 111 213 57z m3248
-256 c68 -24 95 -25 115 -3 19 22 44 25 44 6 0 -7 -12 -25 -26 -40 -23 -25
-31 -28 -68 -22 -22 4 -56 13 -74 21 -18 7 -54 16 -80 20 -73 9 -109 -11 -157
-88 -50 -82 -78 -96 -149 -79 -96 23 -104 23 -139 6 -22 -10 -39 -28 -46 -46
-12 -36 -41 -39 -41 -5 0 38 44 82 95 96 40 11 54 11 105 -5 32 -10 69 -15 82
-12 14 4 38 30 61 65 44 70 65 90 103 102 38 11 120 4 175 -16z m-1894 -1091
c54 -29 71 -49 54 -66 -6 -6 -26 0 -56 16 -25 14 -52 24 -60 21 -21 -8 -133
-238 -153 -313 -9 -35 -22 -66 -28 -68 -6 -2 -45 29 -85 69 -95 94 -226 201
-233 190 -7 -12 -25 -83 -41 -167 -28 -145 -42 -210 -76 -350 -12 -49 -27
-112 -33 -140 -9 -37 -17 -50 -30 -50 -17 0 -61 64 -87 125 -34 81 -118 253
-146 298 -18 29 -33 54 -33 57 0 6 -150 228 -164 243 -10 10 -17 7 -38 -15
-44 -49 -161 -199 -208 -268 -75 -111 -140 -190 -158 -190 -17 0 -119 190
-143 268 -7 20 -15 37 -19 37 -4 0 -24 -26 -44 -57 -54 -86 -100 -146 -114
-151 -7 -2 -15 4 -18 12 -4 11 19 53 63 119 39 56 78 117 87 135 12 24 23 32
38 30 19 -3 26 -17 45 -101 1 -4 11 -27 22 -51 10 -24 22 -55 26 -68 4 -12 15
-34 25 -48 9 -14 20 -33 23 -44 10 -25 25 -11 85 73 150 213 296 391 319 391
24 0 236 -316 298 -445 23 -49 61 -130 84 -178 23 -48 45 -86 49 -83 4 2 9 19
10 38 2 18 14 74 27 123 14 50 43 179 65 289 44 213 51 236 78 236 17 -1 148
-106 241 -195 29 -27 56 -51 61 -53 5 -2 14 15 20 38 19 69 112 252 152 300
23 26 32 25 95 -7z"/>
</g>
</svg>
