<svg version="1.0" xmlns="http://www.w3.org/2000/svg"
 width="1105.000000pt" height="1646.000000pt" viewBox="0 0 1105.000000 1646.000000"
 preserveAspectRatio="xMidYMid meet">
<g transform="translate(0.000000,1646.000000) scale(0.100000,-0.100000)"
fill="#000000" stroke="none">
<path d="M5415 11944 c-64 -6 -180 -22 -327 -44 -76 -11 -260 -36 -410 -55
-394 -50 -406 -56 -394 -195 6 -73 5 -83 -16 -111 -19 -25 -23 -44 -24 -102 0
-40 -8 -99 -16 -132 -10 -38 -18 -129 -22 -245 -3 -102 -15 -282 -26 -400 -12
-128 -20 -294 -20 -411 0 -234 -4 -249 -82 -301 -84 -56 -114 -68 -163 -68
-57 0 -109 -21 -129 -52 -9 -14 -27 -56 -40 -94 -44 -130 -88 -189 -185 -248
-55 -34 -297 -272 -320 -315 -13 -23 -2 -55 21 -64 19 -7 54 9 61 27 5 12 20
16 58 16 l52 0 -7 -59 c-5 -47 -4 -62 9 -75 9 -9 22 -16 29 -16 17 0 42 29 50
58 11 35 42 47 72 27 14 -9 27 -24 30 -33 29 -94 70 -131 106 -94 18 17 19 24
9 55 -25 75 25 103 93 53 17 -13 39 -26 49 -29 9 -4 17 -16 17 -27 0 -49 67
-72 90 -31 10 20 -2 82 -22 114 -12 18 -13 27 -2 52 19 45 17 73 -9 98 -13 12
-43 50 -68 85 -24 35 -54 77 -66 94 -28 38 -29 85 -4 112 11 12 43 59 71 106
61 101 88 125 155 140 28 7 58 14 68 17 16 4 17 -10 17 -204 0 -379 28 -693
71 -808 22 -58 78 -117 134 -141 40 -16 298 -88 375 -103 30 -6 98 -15 150
-19 l94 -7 13 -45 c7 -25 29 -118 48 -207 33 -150 35 -174 35 -338 l0 -177
-32 7 c-18 4 -49 15 -68 25 -62 31 -163 58 -235 63 -38 3 -90 13 -114 21 -28
10 -78 16 -138 16 -124 0 -128 -2 -270 -135 -67 -62 -101 -112 -86 -125 11
-10 892 -34 935 -25 18 3 48 11 66 16 l32 11 0 91 c0 72 5 102 21 137 19 42
21 65 22 337 l2 293 103 0 102 0 0 -3555 0 -3555 75 0 75 0 0 3555 0 3555 69
0 c37 0 95 3 128 6 54 6 63 4 83 -16 l22 -22 -3 -367 c-4 -343 -3 -368 15
-401 21 -40 96 -120 112 -120 5 0 25 11 44 25 l34 25 416 0 c411 0 416 0 460
23 78 39 67 52 -110 124 -263 106 -417 153 -502 153 -63 0 -83 -5 -143 -34
-39 -19 -95 -55 -125 -80 -50 -42 -56 -45 -67 -29 -7 9 -13 26 -13 38 0 11 -7
31 -16 44 -33 47 4 423 54 552 22 56 73 123 103 136 17 7 87 22 157 34 71 12
196 44 291 74 91 29 186 58 210 65 24 6 54 22 66 34 l23 23 0 359 c0 248 4
368 12 385 22 49 42 54 239 57 101 2 194 1 208 -3 24 -6 24 -7 9 -30 -9 -13
-16 -29 -16 -34 0 -5 25 -23 56 -40 l55 -32 -30 -35 c-45 -51 -41 -70 17 -80
l47 -9 3 -65 c2 -36 -2 -101 -8 -145 -8 -66 -17 -89 -46 -132 -44 -65 -47 -82
-12 -102 26 -15 28 -14 56 12 77 74 115 197 110 355 l-3 104 32 34 c17 19 39
55 49 79 15 41 16 52 4 101 -17 68 -9 84 48 102 44 15 52 31 26 53 -8 7 -22
25 -29 40 -14 26 -13 27 10 33 28 7 33 34 13 66 -10 15 -9 22 5 38 14 15 37
20 115 25 117 7 194 26 287 72 88 43 185 127 185 161 0 18 -5 24 -23 24 -13 0
-61 11 -107 25 -107 32 -126 31 -191 -5 -30 -16 -97 -51 -149 -77 -81 -39
-104 -46 -158 -47 -70 -1 -76 7 -42 59 11 17 20 47 20 68 0 44 7 45 56 12 52
-36 93 -32 191 15 74 36 83 44 83 68 0 15 -14 47 -30 72 -16 25 -30 50 -30 57
0 6 27 34 59 62 88 76 114 164 68 232 -32 47 -66 57 -123 36 -26 -9 -50 -15
-54 -12 -4 2 -10 24 -14 47 -12 77 -78 138 -148 138 -18 0 -62 -15 -98 -33
-59 -29 -68 -37 -93 -90 -36 -75 -70 -92 -166 -82 -82 8 -113 -3 -146 -53
l-26 -40 20 -33 c31 -50 26 -78 -25 -155 -41 -63 -45 -73 -41 -117 3 -36 12
-56 33 -78 28 -29 32 -30 101 -27 52 2 69 0 62 -8 -12 -15 13 -38 27 -24 12
12 27 1 48 -35 10 -16 15 -22 12 -12 -3 9 0 17 5 17 7 0 9 -9 5 -22 -3 -13 -6
-80 -6 -149 0 -127 0 -127 -25 -133 -13 -3 -47 -26 -73 -49 l-49 -44 -189 5
c-158 3 -192 7 -206 21 -10 9 -27 52 -39 96 -18 70 -21 113 -23 340 -2 197 -8
303 -25 435 -15 119 -22 220 -21 315 2 123 -1 147 -20 200 -21 56 -22 71 -16
230 4 129 2 186 -9 238 -13 61 -12 70 2 96 16 26 16 30 1 53 -22 34 -173 111
-284 144 l-89 28 -440 2 c-242 1 -458 0 -480 -2z m-271 -1117 c111 -51 179
-154 180 -272 1 -86 -23 -144 -89 -214 -55 -59 -118 -84 -210 -85 -49 -1 -73
5 -127 32 -117 57 -143 111 -136 277 7 153 57 245 154 281 55 20 161 12 228
-19z m1008 8 c11 -24 6 -30 -69 -108 -88 -90 -105 -126 -79 -174 17 -34 74
-88 138 -133 64 -44 68 -63 26 -107 -18 -19 -46 -44 -61 -55 l-29 -21 -107
107 c-58 58 -111 106 -116 106 -11 -1 -142 -173 -186 -244 -21 -34 -31 -42
-62 -44 -49 -4 -77 12 -77 46 0 22 25 52 121 147 125 124 153 162 143 190 -4
9 -42 64 -86 122 -43 59 -77 113 -76 122 2 8 29 26 61 40 57 24 58 24 77 5 10
-10 33 -46 50 -79 38 -71 58 -95 78 -95 9 0 60 45 113 100 54 55 105 100 114
100 8 0 21 -11 27 -25z m-1660 -310 c5 -16 7 -62 4 -101 -4 -50 -2 -76 8 -89
13 -18 14 -18 43 3 39 27 65 15 40 -20 -10 -13 -25 -34 -35 -48 -13 -18 -17
-44 -17 -110 1 -47 4 -102 8 -122 7 -35 11 -38 42 -38 47 0 45 -21 -5 -54
l-40 -26 0 -97 c0 -79 4 -104 22 -140 31 -61 49 -69 86 -38 52 43 67 30 32
-27 -23 -37 -26 -96 -7 -120 23 -30 107 -88 127 -88 12 0 37 7 57 15 49 21 61
8 43 -45 -18 -54 -12 -60 124 -105 84 -28 122 -35 165 -33 51 3 56 5 59 28 5
50 12 68 28 74 26 10 54 -22 54 -60 0 -46 20 -54 140 -54 83 0 102 3 107 16 5
13 7 13 14 2 7 -11 16 -10 53 3 25 9 50 12 58 8 7 -4 10 -10 8 -12 -15 -12
-76 -37 -92 -37 -10 0 -19 -8 -19 -17 -1 -17 -2 -17 -6 0 -5 20 -4 20 -63 6
-64 -15 -68 -16 -139 -24 -78 -9 -111 -35 -111 -90 0 -19 -4 -35 -9 -35 -13 0
-23 49 -16 81 11 48 -8 67 -72 74 -110 11 -163 24 -200 50 -52 35 -94 33 -127
-6 -14 -17 -29 -41 -32 -54 -6 -26 -37 -38 -53 -22 -16 16 -13 38 7 60 11 13
17 36 17 69 0 56 -6 63 -120 140 -65 44 -71 44 -163 7 -28 -12 -34 -12 -42 1
-23 36 2 80 46 80 30 0 30 4 0 85 -14 35 -33 102 -42 147 -10 46 -21 87 -25
92 -5 6 -18 5 -33 -2 -36 -16 -44 13 -12 47 49 53 60 89 59 194 0 123 -8 135
-82 120 -64 -13 -79 -4 -56 30 9 15 25 29 36 32 29 9 78 54 94 86 19 35 19 73
0 134 -8 27 -12 52 -9 57 11 18 38 2 46 -27z m3204 -70 c14 -21 15 -31 5 -51
-6 -14 -15 -23 -20 -19 -5 3 -12 1 -15 -4 -11 -17 -67 -21 -94 -7 -37 19 -62
49 -54 63 13 20 75 42 119 43 35 0 46 -5 59 -25z m-1286 -386 c0 -6 -16 -25
-35 -43 -19 -19 -35 -43 -35 -54 0 -11 23 -45 51 -76 28 -30 48 -60 44 -66
-10 -16 -19 -12 -59 20 -49 38 -87 32 -137 -21 -20 -22 -34 -39 -32 -39 3 0
-8 -15 -25 -34 -41 -47 -49 -74 -25 -91 10 -8 13 -15 6 -15 -6 0 -15 5 -18 10
-15 24 -45 9 -67 -34 -13 -24 -37 -72 -55 -106 -27 -52 -30 -65 -21 -85 6 -14
20 -28 32 -31 34 -11 76 -57 76 -83 0 -23 -1 -23 -22 -7 -124 90 -155 95 -213
36 -43 -44 -90 -70 -129 -70 -49 0 -19 43 56 81 101 50 121 103 73 188 -14 24
-24 46 -22 48 2 2 21 -10 42 -27 21 -17 45 -28 53 -25 7 3 20 5 27 5 7 0 36
27 65 60 50 58 51 59 35 84 -21 31 -13 46 24 46 18 0 35 9 47 25 22 29 36 33
27 8 -3 -10 -3 -15 2 -11 4 4 8 16 9 26 1 18 25 58 53 87 9 10 9 24 -2 66 -20
72 -20 71 19 52 37 -17 86 -12 86 10 0 16 49 77 61 77 5 0 9 -5 9 -11z"/>
<path d="M5014 10646 c-66 -29 -84 -103 -40 -161 68 -88 186 -57 186 48 0 40
-5 49 -45 86 -49 45 -55 47 -101 27z"/>
</g>
</svg>
