<svg version="1.0" xmlns="http://www.w3.org/2000/svg"
 width="1105.000000pt" height="1646.000000pt" viewBox="0 0 1105.000000 1646.000000"
 preserveAspectRatio="xMidYMid meet">

<g transform="translate(0.000000,1646.000000) scale(0.100000,-0.100000)"
fill="#000000" stroke="none">
<path d="M5410 11940 c-52 -5 -169 -20 -260 -34 -91 -14 -291 -41 -445 -60
-154 -20 -303 -42 -331 -51 -79 -23 -88 -39 -85 -146 1 -77 -1 -94 -19 -116
-15 -20 -20 -40 -20 -91 0 -36 -9 -98 -19 -136 -15 -54 -21 -120 -25 -276 -3
-113 -13 -268 -22 -345 -8 -77 -18 -254 -20 -394 -5 -295 -6 -298 -92 -353
-80 -52 -124 -68 -181 -68 -69 0 -103 -30 -132 -118 -47 -143 -83 -194 -185
-263 -80 -54 -111 -82 -242 -223 -66 -71 -82 -95 -80 -115 4 -31 32 -39 58
-16 13 12 33 15 76 13 l59 -3 -4 -63 c-3 -62 -2 -64 20 -60 14 2 29 14 37 31
18 37 54 54 85 40 13 -6 38 -39 56 -72 26 -50 37 -62 54 -59 19 3 22 10 22 50
1 77 45 109 96 69 13 -10 38 -26 56 -35 18 -9 38 -28 45 -43 15 -32 36 -36 52
-11 8 13 6 31 -7 70 -17 49 -17 56 -2 98 15 42 15 45 -5 70 -11 14 -33 42 -48
63 -15 22 -41 55 -58 75 -43 52 -54 75 -54 120 0 26 6 45 20 57 11 10 40 53
64 95 57 98 100 136 163 146 26 3 54 11 61 17 7 5 14 8 16 6 2 -2 8 -170 15
-374 18 -594 48 -714 192 -782 48 -23 261 -83 377 -108 40 -8 108 -15 151 -15
62 0 81 -4 94 -17 24 -28 97 -377 97 -465 0 -41 5 -100 11 -131 7 -32 9 -79 5
-111 -7 -52 -9 -56 -34 -56 -15 0 -52 12 -82 26 -71 33 -152 54 -210 54 -25 0
-73 9 -106 19 -52 15 -81 17 -177 12 -98 -5 -120 -9 -146 -28 -17 -13 -34 -23
-38 -23 -12 0 -149 -141 -162 -167 -10 -20 -8 -23 26 -29 20 -4 100 -4 177 -1
87 4 228 0 366 -10 239 -16 368 -12 427 12 35 15 36 16 28 58 -14 75 -9 122
20 181 l28 57 -5 290 -6 289 109 0 109 0 0 -3560 0 -3560 70 0 70 0 0 3554 0
3553 61 7 c109 11 216 7 232 -8 11 -11 15 -86 21 -381 7 -404 7 -401 73 -480
42 -50 54 -54 90 -25 25 19 41 20 437 20 430 1 460 4 507 46 16 14 17 20 7 30
-20 18 -412 170 -516 200 -117 33 -181 30 -272 -12 -36 -17 -94 -55 -129 -84
-59 -49 -64 -52 -75 -34 -23 40 -29 84 -33 239 -5 203 17 331 75 445 42 84 68
103 163 119 185 33 244 47 429 106 120 38 212 73 224 85 19 19 20 34 20 383 1
332 3 365 19 390 10 16 29 32 43 37 31 12 404 13 422 1 10 -6 10 -10 -3 -21
-28 -23 -17 -48 35 -76 28 -15 50 -32 50 -38 0 -5 -14 -25 -31 -42 -41 -42
-34 -62 23 -66 62 -4 67 -25 45 -195 -15 -117 -21 -141 -44 -172 -15 -20 -33
-40 -41 -44 -19 -12 3 -37 33 -37 29 0 70 48 104 120 22 48 26 73 30 197 l6
142 31 33 c61 63 79 123 60 190 -19 60 -5 89 47 101 20 5 37 13 37 18 0 4 -11
25 -25 45 -14 20 -25 41 -25 46 0 5 11 13 25 18 29 11 30 12 9 51 -25 50 -4
65 109 72 119 9 205 30 294 72 134 65 235 185 155 185 -16 0 -55 9 -87 20 -88
30 -150 27 -211 -12 -27 -17 -92 -51 -144 -75 -82 -39 -100 -44 -138 -38 -26
4 -48 2 -56 -5 -26 -21 -26 19 -1 67 14 25 25 61 25 79 0 19 3 34 7 34 4 0 25
-12 46 -27 55 -38 95 -36 192 12 95 47 102 64 56 127 -44 60 -41 80 19 125
111 83 125 223 27 271 -22 11 -32 10 -63 -3 -61 -25 -69 -21 -83 39 -9 43 -21
63 -51 90 -56 50 -79 53 -159 22 -77 -30 -102 -53 -126 -114 -24 -60 -54 -73
-166 -71 -86 1 -92 0 -120 -27 -38 -36 -43 -57 -25 -93 27 -51 20 -92 -26
-161 -34 -50 -43 -72 -42 -105 2 -75 58 -124 126 -111 96 19 138 19 160 0 19
-17 20 -26 13 -94 -4 -41 -6 -93 -5 -115 1 -22 -2 -66 -5 -98 -6 -51 -11 -60
-33 -68 -14 -6 -45 -28 -69 -49 l-43 -40 -189 0 c-225 0 -222 -2 -253 110 -18
66 -21 107 -23 330 -2 174 -8 295 -20 380 -9 69 -20 220 -25 335 -5 156 -11
220 -23 250 -13 32 -16 81 -17 246 0 143 -4 220 -14 251 -11 38 -11 48 0 63
38 51 5 88 -138 155 -165 77 -200 82 -653 85 -220 2 -443 -1 -495 -5z m-257
-1114 c118 -57 185 -172 175 -301 -9 -101 -77 -203 -166 -246 -69 -34 -198
-34 -262 0 -72 38 -107 69 -123 109 -47 119 -18 330 56 411 42 46 94 62 183
58 63 -2 93 -9 137 -31z m1001 18 c12 -32 4 -45 -74 -128 -67 -72 -80 -91 -80
-119 0 -44 30 -82 125 -159 43 -34 80 -68 82 -74 5 -16 -43 -71 -91 -106 l-40
-29 -111 111 -111 111 -87 -118 c-48 -65 -97 -133 -108 -151 -19 -32 -22 -33
-62 -27 -49 8 -77 30 -77 58 0 13 51 72 135 157 91 91 135 143 135 158 0 12
-36 70 -80 128 -44 59 -80 115 -80 126 0 38 118 85 145 57 7 -8 31 -47 52 -88
22 -41 45 -79 53 -84 11 -6 41 16 120 92 104 100 141 120 154 85z m-1656 -403
c2 -100 4 -111 21 -111 10 0 24 7 31 15 14 16 46 20 54 7 3 -5 -8 -27 -23 -48
-45 -61 -54 -108 -40 -214 l12 -90 33 6 c31 6 34 4 34 -17 -1 -16 -14 -33 -40
-51 l-40 -28 0 -76 c0 -89 13 -140 46 -180 17 -22 26 -26 37 -19 8 6 26 19 41
29 21 15 30 16 39 7 9 -9 9 -16 -1 -29 -26 -35 -43 -86 -38 -108 4 -13 36 -45
72 -73 l66 -49 45 15 c40 14 46 14 60 0 13 -13 13 -18 1 -43 -26 -52 -16 -60
117 -104 172 -56 225 -53 225 14 0 19 8 40 18 49 16 15 20 15 40 1 15 -10 22
-25 22 -48 0 -55 12 -59 148 -57 l82 1 0 45 c0 38 3 45 20 45 17 0 20 -7 20
-40 0 -29 4 -40 15 -40 31 0 86 30 112 60 14 17 48 42 76 56 100 51 117 93 72
173 -24 41 -32 71 -19 71 3 0 20 -11 38 -25 18 -14 42 -25 54 -25 24 0 81 47
113 92 20 27 20 30 5 47 -9 10 -16 25 -16 35 0 14 6 16 28 11 26 -5 34 1 95
74 73 85 76 101 40 160 -19 30 1 47 31 25 39 -27 68 -17 102 34 18 28 38 47
49 47 30 0 28 -21 -5 -56 -50 -55 -49 -71 9 -135 28 -31 49 -60 45 -65 -10
-16 -35 -10 -67 17 -25 21 -38 25 -66 20 -20 -3 -37 -10 -40 -17 -2 -6 -30
-44 -63 -85 -60 -74 -60 -75 -39 -90 11 -8 21 -20 21 -25 0 -19 -31 -21 -51
-3 -20 18 -21 18 -35 -1 -8 -11 -34 -57 -57 -102 -45 -88 -45 -105 1 -129 32
-16 62 -59 62 -88 0 -14 -4 -26 -8 -26 -5 0 -34 16 -66 35 -32 19 -62 35 -67
35 -5 0 -9 4 -9 9 0 19 -47 -4 -95 -46 -27 -24 -61 -46 -74 -50 -14 -3 -45
-21 -69 -40 -25 -19 -58 -37 -73 -40 -25 -5 -29 -10 -29 -38 0 -17 -3 -35 -7
-38 -12 -13 -33 15 -33 44 0 34 -9 35 -83 14 -29 -8 -83 -19 -121 -24 -73 -10
-86 -20 -86 -63 0 -43 -10 -61 -26 -47 -9 7 -14 32 -14 70 0 71 -3 73 -134 88
-68 8 -99 17 -128 36 -48 32 -88 40 -110 23 -10 -7 -28 -33 -41 -58 -27 -51
-59 -64 -77 -30 -9 16 -7 26 9 48 37 53 32 114 -13 144 -162 110 -155 107
-209 85 -18 -8 -44 -17 -59 -21 -27 -6 -28 -5 -28 32 0 43 14 62 47 62 30 0
29 10 -6 117 -16 48 -33 111 -37 138 -9 67 -20 80 -50 60 -21 -13 -23 -13 -29
5 -4 13 3 32 23 57 16 21 35 53 41 72 12 37 15 171 4 210 -6 23 -9 23 -70 18
-51 -5 -65 -3 -70 9 -7 19 19 47 73 79 71 42 92 100 68 187 -20 69 -15 91 18
79 22 -8 23 -14 26 -120z m3200 27 c6 -6 12 -26 12 -44 0 -38 -24 -59 -80 -69
-29 -5 -42 -1 -77 25 -61 45 -56 65 23 95 40 15 99 11 122 -7z"/>
<path d="M4984 10616 c-46 -46 -44 -86 9 -143 15 -17 32 -23 64 -23 54 0 78
22 87 80 6 41 4 46 -31 82 -48 50 -82 51 -129 4z"/>
</g>
</svg>
