<svg version="1.0" xmlns="http://www.w3.org/2000/svg"
 width="1263.000000pt" height="1646.000000pt" viewBox="0 0 1263.000000 1646.000000"
 preserveAspectRatio="xMidYMid meet">
<g transform="translate(0.000000,1646.000000) scale(0.100000,-0.100000)"
fill="#000000" stroke="none">
<path d="M7346 14001 c-23 -24 -29 -43 -37 -106 -6 -43 -16 -90 -24 -104 -13
-26 -14 -24 -76 101 -34 70 -65 125 -69 123 -14 -9 -50 -153 -60 -240 -12
-111 -12 -366 0 -460 7 -61 13 -74 41 -99 l32 -29 106 8 c58 5 131 8 162 7 60
-2 131 -22 136 -39 4 -12 -94 -98 -149 -132 -20 -12 -98 -37 -174 -56 -146
-37 -244 -81 -414 -183 -79 -48 -98 -64 -117 -102 -12 -25 -23 -58 -25 -75 -3
-27 0 -30 30 -33 18 -2 61 6 95 17 73 25 115 26 145 5 19 -13 22 -24 22 -92 0
-118 -5 -122 -194 -163 -137 -29 -276 -79 -442 -159 -168 -80 -202 -102 -319
-209 -112 -103 -157 -162 -213 -281 -24 -52 -86 -183 -138 -290 -51 -107 -103
-222 -114 -255 -22 -64 -70 -276 -70 -311 0 -32 31 -54 76 -54 33 0 52 10 124
69 47 38 98 87 114 109 15 23 67 79 115 124 79 77 149 131 427 335 55 40 132
102 173 137 91 79 247 166 284 159 22 -4 29 -15 46 -73 12 -37 21 -71 21 -75
0 -3 -14 -18 -30 -32 -63 -53 -74 -113 -40 -210 11 -31 18 -58 16 -60 -2 -2
-46 3 -97 12 -102 18 -147 14 -173 -13 -22 -26 -30 -95 -17 -171 6 -36 9 -66
8 -67 -3 -3 -224 22 -269 31 l-28 5 0 -114 0 -113 -47 -18 c-125 -46 -141 -71
-122 -192 19 -129 20 -128 -202 -228 -156 -71 -200 -104 -218 -167 -13 -41 -6
-178 8 -178 3 0 24 28 46 61 83 126 189 195 320 210 89 10 127 25 228 91 42
28 77 51 77 52 0 0 -7 23 -15 50 -26 87 -27 86 70 86 73 0 88 3 106 21 20 20
21 30 17 103 l-6 82 72 22 c39 11 90 26 113 32 23 6 56 22 72 36 28 23 30 31
33 96 3 62 6 73 28 89 14 11 51 21 85 24 130 13 121 7 140 85 29 120 69 156
178 162 41 3 42 2 45 -32 2 -26 -6 -49 -32 -90 -70 -109 -86 -150 -86 -221 0
-114 -21 -280 -46 -367 -38 -129 -86 -216 -184 -327 -26 -31 -81 -104 -121
-163 -93 -136 -203 -247 -293 -297 -38 -21 -150 -71 -249 -112 -204 -82 -294
-132 -365 -201 -50 -49 -88 -99 -80 -107 2 -3 50 -11 107 -19 56 -8 105 -17
108 -20 12 -11 -48 -94 -114 -157 -37 -36 -115 -97 -173 -136 l-105 -70 -264
-5 c-283 -5 -269 -2 -300 -56 -6 -10 -17 -8 -52 7 -91 42 -224 11 -269 -61
-26 -41 -23 -117 6 -149 29 -32 89 -59 130 -59 66 0 109 31 206 148 29 35 63
45 212 61 60 7 78 5 119 -11 26 -11 47 -24 47 -28 0 -4 -24 -20 -52 -35 -110
-59 -406 -239 -468 -285 -36 -27 -81 -65 -100 -85 -57 -60 -205 -183 -370
-310 -85 -65 -204 -160 -265 -210 -60 -51 -182 -145 -270 -210 -101 -75 -214
-170 -306 -260 -155 -150 -264 -231 -393 -291 -43 -19 -96 -52 -118 -72 -38
-34 -158 -184 -158 -196 0 -3 28 -6 63 -6 61 0 64 1 92 38 43 58 95 92 285
189 222 113 330 179 453 276 122 95 232 168 512 337 121 73 245 150 276 171
30 20 162 98 292 173 273 156 339 199 495 323 62 49 138 102 170 117 114 53
107 46 108 106 1 49 4 56 35 77 l34 23 8 -52 c4 -29 4 -82 1 -117 -17 -177
-85 -280 -254 -380 -110 -66 -122 -100 -72 -206 42 -88 48 -91 130 -66 39 11
80 32 94 46 14 14 40 64 58 113 17 48 63 152 101 232 76 160 95 240 84 345 -6
55 -19 118 -31 149 -3 7 62 73 147 150 l151 138 48 -22 c35 -17 57 -21 83 -16
32 6 41 2 97 -45 34 -28 64 -57 67 -65 9 -23 22 -16 41 24 31 60 45 138 40
218 -4 59 -12 89 -42 148 -20 41 -36 76 -36 79 0 3 12 8 28 11 15 4 35 9 45
12 15 5 17 -2 17 -51 0 -66 17 -104 65 -141 32 -24 41 -26 114 -23 102 5 126
22 166 116 17 38 40 82 53 98 27 34 29 89 4 126 -9 14 -32 49 -50 77 -30 46
-38 52 -85 61 -29 6 -65 12 -80 13 -27 3 -16 15 150 169 l178 167 12 -157 c14
-184 34 -308 70 -428 37 -126 37 -131 14 -242 -44 -204 -91 -355 -146 -466
-30 -60 -63 -144 -75 -185 -20 -75 -53 -276 -66 -404 -6 -67 -6 -69 13 -55 10
8 64 49 120 92 56 42 104 77 106 77 3 0 8 -16 11 -35 12 -62 42 -120 81 -153
20 -18 44 -32 52 -30 8 2 24 26 35 55 24 66 86 134 209 233 l96 78 18 -62 c14
-46 20 -118 26 -291 9 -252 23 -447 34 -465 4 -6 -2 -22 -14 -34 -38 -40 -43
-81 -22 -171 11 -44 19 -102 19 -129 -1 -55 11 -70 74 -87 21 -5 38 -15 38
-21 0 -6 -10 -42 -22 -80 -17 -53 -26 -67 -38 -63 -103 40 -330 79 -555 95
-82 6 -240 24 -349 41 -306 45 -442 53 -749 43 l-269 -9 -24 -28 c-15 -17 -24
-41 -24 -61 l0 -33 68 4 c60 5 73 2 128 -26 48 -24 101 -38 260 -65 109 -19
316 -58 459 -87 225 -44 284 -53 435 -59 178 -8 259 -23 357 -67 l41 -19 -259
-139 c-142 -77 -259 -143 -259 -146 0 -10 101 -29 159 -29 36 0 86 10 132 26
86 29 244 66 379 88 52 9 107 18 123 21 l27 4 0 -2419 0 -2420 70 0 70 0 0
2429 0 2430 58 11 c31 6 111 25 177 42 248 64 597 124 950 165 69 8 70 9 89
47 17 35 18 42 5 65 -11 19 -26 28 -59 33 -63 11 -96 47 -115 128 -9 36 -25
99 -37 140 -19 69 -19 78 -5 112 9 22 36 51 70 77 64 47 74 71 79 186 l3 80
-50 5 -50 5 -62 120 c-89 172 -110 243 -128 431 -8 88 -22 184 -31 214 -8 30
-19 69 -23 86 -9 34 -3 134 8 134 4 0 56 -27 116 -61 141 -79 192 -98 263
-101 l57 -3 33 60 33 60 -4 245 c-5 293 -11 324 -117 575 -187 445 -227 553
-339 912 -25 81 -69 187 -111 270 -119 237 -245 410 -478 656 -70 73 -167 179
-215 235 l-89 102 86 129 c100 147 140 236 157 342 7 41 16 80 22 87 17 22 35
13 43 -20 17 -81 52 -118 111 -118 22 0 24 3 19 23 -4 12 -13 62 -22 111 -47
281 -182 493 -418 656 -40 28 -79 62 -86 76 -17 30 -16 84 0 124 l12 29 49
-19 c85 -34 212 -101 274 -145 60 -42 162 -143 201 -199 l21 -29 35 39 c19 21
142 160 272 309 214 243 235 271 220 282 -29 21 -63 15 -109 -21 -39 -29 -49
-33 -92 -29 -37 4 -63 -1 -112 -22 -35 -14 -65 -24 -67 -22 -2 2 12 30 32 63
56 91 74 135 74 184 0 76 -7 76 -109 -5 -52 -41 -95 -75 -97 -75 -1 0 24 59
57 132 32 72 58 133 56 134 -1 2 -56 -17 -122 -41 l-120 -43 -9 35 c-5 22 -5
43 3 59 12 27 5 31 -18 9 -46 -44 -139 -106 -172 -115 -32 -9 -69 -6 -69 6 0
2 34 72 76 155 41 83 73 153 70 156 -2 3 -86 -56 -185 -131 -99 -75 -182 -136
-183 -136 -2 0 0 55 5 123 13 200 22 195 -118 73 -140 -122 -127 -128 -145 64
-6 69 -13 127 -15 129 -2 2 -37 -31 -77 -74 l-73 -77 -36 83 c-19 45 -40 84
-45 86 -6 2 -22 -10 -38 -26z m798 -5796 c80 -79 201 -155 225 -141 5 4 27 34
47 69 21 34 58 94 82 132 l45 70 23 -85 c37 -135 82 -366 94 -479 l11 -104
-35 -57 c-20 -32 -36 -62 -36 -67 1 -4 15 -17 32 -28 17 -11 46 -47 64 -80 47
-85 86 -123 134 -131 37 -6 39 -9 49 -53 5 -25 13 -80 17 -122 l6 -75 -43 -15
c-33 -10 -96 -14 -244 -14 -196 0 -201 -1 -262 -27 -53 -24 -211 -61 -352 -83
l-44 -7 6 33 c4 19 11 85 17 147 14 157 30 183 150 232 30 13 58 26 62 29 6 5
-2 65 -17 128 -3 12 -25 41 -49 63 -57 54 -85 121 -98 234 -6 50 -22 136 -36
191 -24 88 -27 123 -30 289 l-3 190 52 -80 c28 -43 88 -115 133 -159z"/>
</g>
</svg>
