<svg version="1.0" xmlns="http://www.w3.org/2000/svg"
 width="1263.000000pt" height="1646.000000pt" viewBox="0 0 1263.000000 1646.000000"
 preserveAspectRatio="xMidYMid meet">

<g transform="translate(0.000000,1646.000000) scale(0.100000,-0.100000)"
fill="#000000" stroke="none">
<path d="M7353 14005 c-24 -17 -43 -70 -44 -125 0 -42 -20 -102 -35 -107 -5
-2 -36 51 -68 117 -32 66 -62 117 -66 115 -17 -11 -51 -171 -59 -279 -5 -64
-7 -184 -4 -268 8 -264 28 -287 239 -256 64 9 97 9 152 -1 113 -20 115 -26 39
-98 -79 -73 -140 -104 -270 -133 -54 -12 -125 -33 -159 -46 -104 -43 -327
-174 -352 -208 -23 -31 -46 -87 -46 -112 0 -26 42 -25 131 2 86 26 91 27 124
11 32 -15 35 -20 37 -64 5 -158 -3 -168 -152 -198 -169 -33 -344 -96 -544
-197 -108 -54 -153 -86 -267 -190 -112 -102 -158 -168 -232 -334 -30 -65 -80
-169 -110 -231 -100 -199 -126 -271 -173 -486 l-17 -77 23 -25 c40 -42 76 -34
166 39 43 35 107 97 141 139 82 99 192 194 409 352 98 71 225 168 281 215 61
50 138 103 189 129 115 58 129 54 161 -47 l23 -72 -40 -36 c-59 -53 -68 -95
-41 -180 12 -38 24 -74 27 -80 3 -7 -22 -6 -78 3 -46 8 -102 15 -125 15 -81 2
-110 -55 -91 -179 6 -41 8 -76 5 -79 -3 -3 -61 1 -129 10 -186 24 -167 35
-170 -95 l-3 -111 -59 -24 c-108 -44 -122 -71 -100 -187 23 -119 16 -127 -205
-227 -155 -70 -183 -88 -206 -136 -17 -35 -23 -163 -9 -185 3 -6 22 13 42 43
85 127 199 201 326 213 38 3 85 13 105 21 52 22 191 115 191 128 0 6 -6 31
-13 56 -22 75 -18 79 73 73 75 -6 79 -5 105 21 27 27 27 30 21 105 l-7 78 43
16 c24 9 72 23 108 32 120 31 145 59 138 156 -4 71 18 87 142 102 l94 12 17
65 c21 84 37 116 65 135 26 17 150 46 159 37 14 -14 3 -90 -18 -124 -12 -20
-35 -57 -51 -82 -35 -58 -45 -101 -46 -196 -1 -263 -66 -459 -210 -630 -39
-45 -103 -130 -144 -189 -92 -134 -154 -202 -225 -250 -77 -53 -115 -71 -321
-155 -98 -40 -205 -88 -237 -107 -63 -37 -193 -160 -193 -182 0 -11 26 -18 98
-27 53 -7 103 -16 110 -19 19 -10 -52 -115 -120 -177 -31 -28 -105 -84 -165
-125 l-108 -74 -263 -3 -262 -3 -22 -33 -22 -33 -45 20 c-130 59 -286 -12
-286 -128 0 -53 36 -96 102 -121 71 -27 112 -10 208 91 l80 83 125 17 125 18
59 -25 58 -25 -33 -20 c-19 -11 -77 -44 -129 -73 -203 -114 -386 -236 -460
-305 -118 -112 -212 -191 -390 -326 -91 -70 -214 -168 -275 -219 -60 -50 -164
-131 -230 -178 -159 -115 -231 -176 -345 -292 -119 -122 -234 -207 -369 -273
-115 -56 -164 -98 -238 -204 l-42 -61 50 -6 50 -7 67 69 c57 58 85 77 187 126
188 90 393 211 491 287 124 98 286 206 514 344 107 64 237 145 290 178 52 34
185 112 295 175 248 142 371 221 495 322 107 87 177 132 231 149 56 18 73 42
65 94 -7 43 -6 45 32 70 l40 26 6 -37 c20 -123 -6 -270 -63 -359 -41 -64 -77
-95 -188 -166 -40 -26 -80 -58 -89 -72 -16 -25 -16 -30 -1 -78 9 -29 29 -71
43 -94 l27 -41 62 18 c110 31 113 34 170 185 21 55 61 147 90 205 29 58 60
130 69 160 21 69 20 191 0 282 l-16 71 68 61 c38 33 103 93 145 133 41 40 83
73 93 73 9 0 36 -10 59 -21 33 -17 47 -20 69 -11 32 12 49 2 129 -75 l56 -54
22 52 c55 127 52 237 -10 357 -21 41 -39 76 -39 77 0 1 19 7 43 14 23 7 50 15
59 17 16 5 17 0 12 -39 -9 -61 9 -108 57 -151 33 -29 48 -36 82 -36 107 1 152
29 186 116 11 30 32 70 46 88 34 45 40 84 18 122 -81 139 -84 142 -176 155
-75 11 -78 13 -60 29 10 9 93 87 184 173 l167 157 6 -103 c15 -220 54 -451 95
-560 17 -44 13 -100 -15 -226 -40 -177 -91 -336 -133 -415 -41 -75 -71 -159
-96 -267 -15 -66 -57 -371 -51 -376 1 -2 56 37 122 86 l119 90 21 -67 c11 -37
28 -79 38 -94 17 -26 84 -75 90 -67 1 2 11 26 21 53 9 26 36 71 59 100 49 59
246 220 256 209 21 -23 40 -151 40 -265 0 -129 24 -496 35 -541 5 -20 1 -34
-19 -58 -31 -36 -34 -87 -11 -163 8 -27 15 -75 15 -107 0 -65 9 -75 83 -99 20
-6 37 -15 37 -18 0 -24 -55 -152 -65 -152 -7 0 -31 6 -53 14 -108 38 -291 68
-532 85 -75 6 -230 24 -345 41 -271 40 -433 49 -737 41 -247 -6 -248 -6 -273
-31 -13 -14 -28 -40 -31 -59 l-7 -34 64 6 c57 4 72 1 139 -29 54 -24 118 -40
225 -59 83 -14 301 -55 486 -90 303 -59 348 -65 461 -65 133 0 227 -17 328
-61 42 -18 50 -25 38 -33 -8 -6 -123 -70 -256 -141 -132 -72 -238 -133 -234
-136 12 -11 100 -29 141 -29 23 0 81 13 129 29 49 17 120 37 158 46 74 17 340
65 361 65 11 0 13 -465 13 -2420 l0 -2420 70 0 70 0 2 2432 3 2432 105 22 c58
12 157 36 220 52 63 17 151 38 195 46 118 23 528 83 620 91 104 9 110 11 123
41 27 59 2 104 -57 104 -51 0 -96 51 -110 125 -7 33 -21 89 -32 124 -33 112
-21 158 56 211 25 17 53 42 61 56 19 29 35 189 20 204 -6 6 -29 10 -53 10
l-43 0 -75 153 c-84 170 -97 220 -115 419 -6 70 -17 148 -24 175 -7 26 -19 68
-26 93 -8 30 -10 65 -6 102 l7 58 52 -26 c29 -15 83 -44 120 -66 86 -50 167
-78 227 -78 l47 0 33 71 33 71 -6 222 c-6 278 -17 322 -160 663 -148 352 -208
513 -266 709 -58 199 -74 240 -137 366 -111 222 -251 418 -440 618 -66 69
-172 185 -237 258 l-119 132 60 84 c129 180 192 318 192 421 0 34 5 47 22 59
26 18 38 20 38 6 0 -5 9 -34 21 -65 15 -39 29 -60 49 -70 31 -16 75 -20 66 -7
-2 4 -12 50 -21 102 -49 284 -176 497 -388 651 -104 76 -126 98 -133 136 -8
43 14 123 33 123 23 0 235 -104 298 -145 75 -51 156 -125 201 -186 20 -27 40
-49 44 -47 4 2 126 138 270 302 244 277 262 300 245 312 -29 21 -46 17 -95
-22 -40 -32 -49 -35 -86 -29 -39 5 -68 -2 -188 -51 -16 -6 -14 2 14 52 86 152
92 167 87 212 -3 24 -7 45 -10 49 -3 3 -51 -32 -106 -76 -56 -45 -101 -80
-101 -78 0 2 27 64 60 137 34 73 59 134 57 136 -2 2 -54 -15 -116 -37 -76 -27
-116 -38 -123 -31 -6 6 -9 30 -7 54 l4 45 -45 -34 c-90 -67 -118 -84 -153 -90
-74 -12 -74 -6 8 158 42 83 75 153 73 154 -2 2 -84 -57 -182 -131 -99 -74
-181 -132 -183 -131 -2 2 1 68 7 147 6 79 8 145 6 147 -2 2 -57 -43 -122 -100
-66 -58 -122 -103 -125 -101 -3 2 -11 69 -19 149 -7 80 -16 145 -20 145 -4 0
-36 -32 -70 -70 -35 -39 -67 -69 -72 -68 -5 2 -24 37 -43 78 -19 41 -38 76
-42 77 -5 2 -18 -4 -30 -12z m-5 -1531 c29 -20 30 -76 2 -104 -43 -43 -120
-11 -120 50 0 23 7 35 33 50 39 24 56 25 85 4z m-568 -2914 c0 -11 12 -30 26
-43 l26 -22 -29 -6 c-15 -4 -39 -7 -53 -8 -22 -1 -25 3 -25 36 0 36 -2 38 -30
37 -16 0 -38 -4 -47 -8 -13 -6 -18 -4 -18 7 0 21 15 25 88 26 56 1 62 -1 62
-19z m1235 -1192 c88 -132 227 -259 327 -297 25 -9 28 -6 108 124 45 74 85
137 90 140 9 6 82 -284 104 -420 9 -49 18 -128 22 -175 6 -85 6 -85 -30 -140
-32 -49 -34 -56 -19 -65 31 -19 64 -59 95 -116 37 -71 52 -85 114 -108 l49
-19 11 -67 c6 -37 14 -92 18 -121 l6 -53 -55 -16 c-43 -13 -92 -16 -232 -13
l-178 3 -110 -38 c-60 -20 -170 -48 -244 -61 l-133 -23 6 56 c4 31 11 100 15
153 12 132 25 152 129 203 l83 40 -6 45 c-10 74 -25 109 -56 130 -32 23 -75
91 -89 140 -5 18 -14 76 -20 130 -6 54 -22 138 -35 186 -22 79 -25 109 -25
272 0 100 2 182 4 182 1 0 25 -33 51 -72z"/>
</g>
</svg>
