<svg version="1.0" xmlns="http://www.w3.org/2000/svg"
 width="1080.000000pt" height="1646.000000pt" viewBox="0 0 1080.000000 1646.000000"
 preserveAspectRatio="xMidYMid meet">

<g transform="translate(0.000000,1646.000000) scale(0.100000,-0.100000)"
fill="#000000" stroke="none">
<path d="M5461 12762 c-93 -47 -110 -159 -39 -258 l32 -44 -26 -28 c-14 -15
-38 -47 -53 -72 -16 -25 -47 -66 -69 -91 -23 -25 -70 -104 -106 -175 -48 -95
-70 -130 -85 -132 -15 -2 -67 44 -192 170 -192 195 -209 221 -179 292 23 54
20 70 -16 111 -61 70 -165 99 -221 62 -32 -21 -78 -115 -85 -173 -4 -42 -2
-48 33 -84 50 -51 110 -69 165 -47 21 8 41 12 44 9 3 -3 6 -22 6 -43 0 -23 17
-76 41 -131 76 -172 131 -322 164 -453 40 -158 59 -315 44 -369 -11 -41 -6
-37 -219 -175 -213 -138 -354 -265 -607 -548 -153 -171 -200 -246 -267 -425
-28 -75 -36 -112 -36 -162 0 -53 -4 -69 -20 -84 -11 -11 -76 -34 -143 -52 -67
-17 -131 -37 -142 -43 -11 -6 -75 -27 -142 -47 -128 -39 -237 -97 -250 -135
-4 -11 -6 -40 -4 -65 1 -26 -9 -89 -23 -145 -15 -55 -26 -127 -26 -161 0 -81
-64 -460 -96 -572 -28 -98 -92 -239 -129 -288 -31 -40 -32 -60 -4 -75 30 -15
106 5 142 39 20 19 30 23 38 15 9 -9 6 -26 -11 -66 -22 -53 -22 -55 -6 -105
10 -29 25 -61 35 -73 l18 -22 31 23 c54 40 66 67 72 160 7 116 23 113 70 -15
29 -79 43 -103 66 -117 28 -17 29 -17 49 2 17 17 21 37 23 120 4 106 9 113 49
85 18 -13 29 -13 67 -3 30 8 46 18 46 28 0 74 -79 177 -166 216 -66 29 -110
67 -137 118 -38 74 -35 345 9 593 26 153 79 234 189 291 45 23 64 26 188 30
93 3 142 1 151 -7 8 -7 16 -44 20 -92 14 -161 117 -505 186 -621 117 -197 325
-408 473 -479 l47 -23 0 -3333 0 -3333 70 0 70 0 0 3306 0 3307 33 -7 c17 -4
83 -13 145 -21 143 -17 162 -28 162 -95 0 -27 -5 -61 -12 -77 -7 -18 -10 -88
-9 -200 3 -199 -7 -236 -78 -294 -27 -21 -41 -40 -39 -52 5 -34 106 -86 209
-107 210 -43 570 -54 606 -18 23 23 7 56 -41 86 -23 15 -62 43 -86 63 -25 20
-59 44 -76 52 -56 29 -264 87 -309 87 -24 0 -47 5 -50 11 -6 8 -10 385 -6 446
1 7 27 25 59 41 55 27 68 29 223 35 167 6 240 18 386 63 108 32 271 99 294
120 17 16 19 15 29 -10 5 -15 10 -33 10 -40 0 -6 20 -70 44 -142 24 -71 48
-160 55 -196 6 -37 22 -96 36 -132 32 -85 33 -167 4 -215 -20 -34 -20 -34 -1
-54 17 -16 28 -18 66 -13 45 7 70 18 236 108 47 26 114 54 150 63 41 10 97 36
151 71 48 30 95 54 106 54 10 0 28 6 39 14 11 8 41 23 65 32 84 33 98 62 52
107 -127 121 -344 85 -640 -108 l-82 -54 -56 97 c-47 84 -165 340 -182 395 -9
28 55 86 203 188 72 49 138 97 147 106 41 46 221 315 247 368 15 33 42 112 59
175 17 63 42 155 56 204 13 48 27 126 31 172 6 71 3 94 -16 153 -12 38 -31 77
-41 87 -18 16 -21 15 -56 -9 -21 -15 -50 -37 -65 -48 -26 -21 -28 -21 -50 -5
-13 9 -38 28 -57 41 -43 32 -71 32 -102 -1 -18 -20 -24 -36 -23 -72 0 -26 4
-57 8 -69 7 -18 2 -25 -34 -43 -51 -26 -56 -23 -104 71 l-33 64 -70 -1 c-72
-2 -113 -15 -113 -38 0 -7 11 -30 25 -50 43 -64 29 -156 -25 -156 -10 0 -32
16 -50 36 -25 29 -31 43 -26 64 17 90 -71 174 -144 137 -23 -12 -25 -18 -27
-92 -2 -68 -5 -83 -24 -97 -32 -27 -65 -22 -88 11 -11 16 -44 77 -73 136 -47
97 -52 113 -50 166 6 159 49 257 156 356 173 161 385 247 565 228 157 -16 211
-36 364 -136 79 -52 97 -60 126 -55 71 11 71 11 71 280 0 268 4 286 60 286 16
0 47 7 67 15 21 8 65 21 98 30 33 9 126 44 207 77 81 33 153 58 161 55 18 -7
67 -101 83 -161 28 -103 19 -180 -41 -376 -30 -98 -53 -185 -49 -193 11 -31
42 -30 82 2 55 43 90 57 104 43 9 -9 7 -16 -5 -30 -9 -10 -17 -26 -17 -34 0
-36 50 -160 72 -178 52 -43 83 -15 81 73 -1 73 21 119 52 107 11 -5 38 -26 60
-49 41 -43 74 -52 96 -25 19 23 15 157 -5 186 -14 20 -22 58 -12 58 2 0 27 -5
56 -10 71 -13 87 -7 100 41 13 48 1 76 -37 85 -28 7 -220 171 -333 284 -36 36
-94 106 -127 155 -91 133 -128 173 -172 185 -45 12 -74 4 -236 -65 -60 -26
-145 -53 -188 -61 -42 -7 -90 -20 -107 -29 -43 -22 -93 -19 -117 8 -12 12 -44
61 -72 108 -114 195 -301 315 -521 335 -39 4 -74 12 -80 19 -6 7 -11 78 -12
161 -2 145 -1 152 31 244 18 52 48 127 66 165 40 86 130 215 150 215 9 0 41
-13 72 -30 64 -35 92 -37 148 -11 53 24 91 70 110 133 20 68 19 86 -6 139 -25
50 -45 68 -76 69 -12 0 -25 5 -28 10 -3 6 -15 10 -27 10 -41 0 -89 -34 -139
-97 -28 -36 -65 -78 -82 -94 -18 -16 -126 -77 -242 -135 -231 -117 -314 -167
-391 -237 -29 -26 -58 -47 -66 -47 -38 0 -81 77 -97 174 -7 38 -18 86 -25 108
l-14 38 44 32 c48 34 95 100 114 160 9 31 9 43 -5 72 -17 35 -68 77 -118 95
-38 15 -46 14 -86 -7z m66 -54 c-3 -8 -6 -5 -6 6 -1 11 2 17 5 13 3 -3 4 -12
1 -19z m51 -136 c-3 -36 -4 -37 -45 -40 -35 -3 -44 1 -54 19 -11 21 -8 26 32
60 42 35 44 36 57 18 7 -11 12 -36 10 -57z m1039 70 c7 -4 22 -34 33 -66 29
-86 15 -98 -54 -41 -23 19 -53 38 -66 43 l-24 9 31 32 c31 31 56 38 80 23z
m-1991 -108 c59 -40 94 -71 87 -78 -12 -12 -71 -6 -83 9 -18 21 -28 19 -67
-15 -39 -35 -53 -32 -53 12 0 34 42 98 64 98 7 0 31 -12 52 -26z m1947 -70
c-6 -17 -44 -15 -51 4 -2 8 7 12 27 12 23 0 29 -4 24 -16z m-759 -760 c31 -30
12 -64 -36 -64 -35 0 -59 40 -38 65 16 20 54 19 74 -1z m170 0 c14 -37 -5 -61
-39 -48 -15 6 -21 45 -8 57 12 13 41 7 47 -9z m-554 -4 c47 -25 47 -80 1 -80
-34 0 -51 17 -51 50 0 41 14 49 50 30z m200 -9 c5 -11 10 -32 10 -46 0 -23 -4
-26 -26 -23 -39 4 -52 30 -31 62 21 31 33 33 47 7z m467 -7 c8 -20 -21 -49
-41 -41 -19 8 -21 43 -3 50 23 10 38 7 44 -9z m-836 -24 c25 -14 24 -29 -5
-65 -21 -27 -26 -28 -50 -17 -31 14 -40 33 -32 67 5 20 13 25 37 25 17 0 39
-5 50 -10z m-146 -58 c6 -17 -29 -51 -52 -52 -21 0 -16 68 5 72 24 6 39 -1 47
-20z m-102 -29 c17 -10 6 -54 -17 -64 -47 -22 -90 33 -54 69 10 10 48 8 71 -5z
m995 -403 c22 -17 50 -46 62 -65 20 -32 21 -41 12 -159 -8 -113 -11 -128 -36
-160 -41 -54 -110 -90 -172 -90 -42 0 -63 7 -110 36 -85 52 -117 102 -122 186
-4 74 21 157 61 200 43 46 132 80 213 81 41 1 58 -5 92 -29z m501 -128 c49
-36 65 -69 69 -141 4 -61 1 -76 -23 -119 -30 -54 -66 -82 -87 -65 -7 6 -35 14
-63 18 -27 4 -57 11 -66 15 -19 11 -79 150 -79 185 0 30 56 96 103 119 39 20
111 14 146 -12z m26 -1183 c13 -20 -4 -59 -26 -59 -17 0 -20 4 -15 23 3 12 6
28 6 35 0 15 26 16 35 1z m-301 -61 c10 -13 16 -44 16 -75 0 -48 -2 -53 -25
-59 -40 -10 -55 11 -55 75 0 78 31 106 64 59z m-292 -83 c21 -40 24 -53 15
-72 -5 -13 -14 -23 -18 -23 -16 0 -47 51 -53 90 -12 77 15 79 56 5z"/>
<path d="M5854 10982 c-18 -11 -29 -129 -14 -147 19 -23 64 -18 89 9 52 55 32
146 -32 146 -17 0 -37 -4 -43 -8z"/>
<path d="M6393 10918 c-19 -38 -21 -52 -12 -75 7 -19 16 -23 47 -23 92 0 97
95 6 114 -25 6 -32 3 -41 -16z"/>
<path d="M8680 11306 c0 -8 5 -18 10 -21 6 -3 10 3 10 14 0 12 -4 21 -10 21
-5 0 -10 -6 -10 -14z"/>
</g>
</svg>
