<svg version="1.0" xmlns="http://www.w3.org/2000/svg"
 width="1080.000000pt" height="1646.000000pt" viewBox="0 0 1080.000000 1646.000000"
 preserveAspectRatio="xMidYMid meet">
<g transform="translate(0.000000,1646.000000) scale(0.100000,-0.100000)"
fill="#000000" stroke="none">
<path d="M5439 12756 c-37 -25 -69 -85 -69 -130 0 -35 20 -87 47 -124 23 -31
25 -72 3 -72 -5 0 -21 -21 -36 -46 -15 -25 -49 -71 -76 -102 -28 -33 -73 -107
-107 -177 -62 -126 -81 -152 -103 -138 -39 25 -348 353 -354 376 -3 15 -3 42
0 60 19 92 19 102 -9 136 -35 41 -94 71 -154 78 -43 5 -51 2 -83 -26 -39 -34
-73 -104 -84 -170 -6 -40 -5 -44 39 -86 58 -56 122 -69 189 -41 14 6 18 1 23
-31 7 -49 21 -87 94 -263 127 -308 192 -620 150 -714 -7 -15 -42 -43 -83 -67
-239 -142 -403 -274 -608 -492 -246 -263 -305 -344 -379 -523 -33 -79 -43
-117 -48 -187 -5 -54 -13 -93 -22 -102 -8 -8 -71 -30 -141 -49 -69 -19 -139
-41 -155 -49 -15 -8 -77 -29 -138 -46 -112 -33 -168 -60 -225 -108 -30 -25
-32 -29 -26 -77 5 -37 0 -76 -18 -146 -13 -52 -27 -138 -30 -190 -7 -115 -57
-409 -92 -540 -26 -100 -109 -285 -137 -309 -20 -16 -22 -52 -5 -69 25 -25
119 -6 150 30 10 11 25 18 33 14 13 -5 13 -11 -5 -43 -26 -50 -25 -97 5 -160
30 -65 47 -67 100 -13 37 38 40 44 43 113 4 103 9 122 27 107 8 -7 15 -16 15
-21 0 -4 14 -47 31 -94 28 -76 36 -88 66 -103 34 -16 35 -16 54 8 15 20 19 42
19 116 0 50 3 94 6 97 4 4 20 -1 35 -10 25 -15 35 -16 76 -5 26 7 49 15 51 17
2 2 -3 28 -12 58 -21 71 -84 143 -152 173 -156 69 -192 171 -165 473 32 355
79 463 235 531 60 27 297 38 319 15 8 -8 17 -48 20 -99 12 -154 110 -484 179
-601 23 -38 70 -107 105 -153 131 -169 225 -255 356 -327 l67 -37 0 -3329 0
-3329 70 0 70 0 0 3305 c0 1818 3 3305 8 3305 4 0 23 -4 41 -10 19 -5 79 -14
133 -20 55 -5 107 -14 118 -20 17 -9 18 -26 16 -272 -3 -297 -2 -293 -80 -367
-26 -23 -45 -48 -43 -55 1 -6 30 -29 63 -52 66 -44 141 -64 319 -84 118 -13
411 -13 436 0 19 11 24 35 13 64 -3 9 -29 29 -58 45 -28 17 -63 42 -76 56 -14
15 -45 37 -70 50 -67 34 -247 85 -301 85 -27 0 -51 6 -58 14 -8 9 -11 73 -10
197 1 101 -2 192 -6 201 -11 28 14 58 73 86 42 20 70 26 107 25 101 -4 299 19
409 46 130 33 319 102 359 132 34 25 43 20 52 -28 4 -21 26 -96 50 -168 24
-71 46 -152 50 -180 5 -27 21 -87 36 -132 34 -98 36 -145 9 -198 -25 -48 -25
-58 -1 -79 17 -15 24 -16 80 -3 33 8 99 37 148 64 136 79 162 90 251 109 45 9
82 21 82 26 0 4 5 8 11 8 5 0 7 -5 3 -11 -4 -8 1 -9 17 -4 13 3 32 9 42 11 9
3 17 12 17 20 0 18 -5 18 -38 -2 -18 -11 -14 -5 13 19 22 20 49 39 60 43 19 6
124 52 175 77 17 9 26 22 28 44 3 25 -4 36 -33 61 -42 34 -120 62 -175 62 -57
0 -219 -44 -286 -78 -32 -16 -101 -57 -152 -91 -51 -34 -94 -61 -97 -61 -10 0
-121 210 -164 312 -26 62 -56 128 -65 146 -10 19 -13 38 -9 46 15 25 117 108
213 171 52 35 107 74 122 87 31 27 202 270 246 349 31 54 37 73 112 339 55
193 64 319 30 412 -37 104 -51 110 -129 48 -28 -22 -55 -40 -61 -40 -5 0 -30
16 -56 35 -65 50 -104 48 -144 -7 -33 -46 -35 -57 -16 -110 13 -37 13 -38 -19
-57 -33 -19 -33 -19 -54 2 -11 12 -31 48 -45 80 l-26 57 -67 -1 c-91 -1 -117
-10 -121 -38 -2 -12 8 -40 22 -62 27 -40 30 -56 20 -107 -9 -45 -41 -49 -80
-11 -27 26 -32 40 -36 90 -3 39 -11 69 -25 87 -24 33 -82 50 -121 36 -26 -9
-27 -12 -30 -91 -3 -85 -12 -103 -58 -117 -32 -10 -50 14 -117 152 -46 95 -58
129 -53 150 4 15 9 36 11 47 2 11 4 22 5 25 1 3 2 19 2 35 0 17 9 61 19 98 17
58 30 78 87 139 104 110 264 209 394 244 68 18 214 18 301 -1 88 -18 152 -48
255 -118 91 -63 140 -73 182 -39 22 18 23 21 21 248 -2 250 3 284 43 284 13 0
61 13 107 30 46 16 93 30 104 30 18 0 194 70 290 116 19 9 41 14 50 11 19 -8
62 -94 80 -164 25 -94 19 -158 -24 -295 -64 -200 -73 -238 -67 -264 9 -32 49
-32 88 1 45 38 86 57 93 44 4 -5 -1 -19 -10 -29 -16 -17 -15 -23 9 -102 29
-94 47 -125 83 -139 48 -18 61 1 68 100 4 49 11 94 15 101 11 17 45 -3 91 -51
39 -42 55 -47 84 -25 31 22 34 149 6 202 -12 21 -21 41 -21 44 0 4 29 2 65 -4
75 -11 91 -3 101 51 8 44 -9 83 -36 83 -12 0 -83 55 -173 133 -167 147 -216
197 -266 272 -133 196 -183 242 -256 232 -23 -4 -79 -24 -126 -45 -148 -69
-206 -92 -233 -92 -15 0 -52 -8 -84 -19 -104 -34 -116 -34 -149 2 -17 18 -48
64 -69 102 -51 95 -167 210 -259 257 -86 45 -202 78 -272 78 -74 0 -83 12 -85
123 -2 156 2 188 44 312 46 138 63 174 128 270 70 104 69 103 137 65 48 -27
64 -31 105 -28 123 12 205 150 169 284 -18 66 -47 86 -132 88 l-72 1 -51 -59
c-115 -135 -137 -151 -359 -262 -238 -120 -287 -149 -381 -228 -58 -49 -68
-55 -85 -44 -32 20 -61 82 -77 165 -8 43 -19 91 -24 107 -10 28 -7 32 44 78
59 52 106 135 106 187 0 59 -100 141 -172 141 -19 0 -49 -11 -69 -24z m557
-1585 c87 -63 96 -87 85 -230 -7 -98 -10 -113 -36 -146 -43 -58 -110 -95 -167
-95 -81 0 -180 66 -218 146 -29 59 -23 137 14 217 30 63 64 89 154 118 83 26
122 24 168 -10z m528 -149 c60 -56 72 -142 32 -227 -32 -70 -47 -81 -95 -66
-21 6 -52 11 -69 11 -16 0 -39 8 -51 18 -29 25 -84 158 -75 185 13 42 44 75
94 100 43 22 56 24 92 15 24 -5 56 -21 72 -36z"/>
<path d="M5842 10978 c-7 -7 -12 -40 -12 -80 0 -64 2 -69 25 -78 31 -12 68 1
89 32 19 27 20 96 2 121 -15 20 -85 24 -104 5z"/>
<path d="M6385 10914 c-19 -41 -19 -68 2 -89 23 -24 82 -13 111 20 28 33 28
37 -4 74 -20 24 -33 30 -59 29 -28 -1 -37 -7 -50 -34z"/>
</g>
</svg>
