<svg version="1.0" xmlns="http://www.w3.org/2000/svg"
 width="1080.000000pt" height="1664.000000pt" viewBox="0 0 1080.000000 1664.000000"
 preserveAspectRatio="xMidYMid meet">
<g transform="translate(0.000000,1664.000000) scale(0.100000,-0.100000)"
fill="#000000" stroke="none">
<path d="M7690 15257 c-138 -38 -351 -203 -441 -341 -66 -100 -94 -192 -103
-339 -6 -94 -15 -121 -43 -131 -10 -4 -114 -11 -233 -16 -118 -5 -254 -16
-302 -25 -246 -43 -465 -153 -756 -380 -193 -151 -290 -272 -401 -500 -124
-253 -168 -375 -254 -700 l-24 -90 -27 83 c-31 99 -32 142 -6 201 11 24 20 53
20 66 0 30 -30 55 -68 55 -50 0 -82 17 -82 42 0 13 11 58 25 101 14 43 25 87
25 98 0 28 -36 38 -105 28 -97 -14 -176 -13 -192 4 -14 13 -13 21 1 65 21 61
18 131 -6 145 -12 8 -53 2 -155 -21 -76 -18 -142 -32 -146 -32 -11 0 -97 179
-97 202 0 28 -41 23 -87 -11 -22 -16 -70 -57 -106 -90 l-65 -61 -54 20 c-37
15 -74 42 -125 93 -40 39 -74 69 -77 66 -2 -2 -21 -38 -40 -79 -32 -65 -36
-84 -36 -151 0 -68 -3 -81 -25 -108 -27 -31 -61 -45 -136 -56 -79 -10 -162
-57 -251 -143 -46 -44 -103 -89 -127 -102 -46 -23 -66 -23 -248 -4 -119 12
-209 -40 -265 -154 -30 -60 -33 -75 -33 -157 0 -76 4 -98 25 -140 31 -62 88
-106 174 -135 42 -14 67 -28 71 -40 3 -10 -2 -74 -11 -142 -20 -138 -24 -486
-8 -553 16 -64 39 -59 135 30 157 147 368 290 594 401 127 62 348 130 384 116
19 -7 4 -21 -131 -119 -84 -61 -187 -140 -228 -177 -85 -74 -179 -136 -359
-238 -69 -38 -196 -114 -283 -169 -88 -55 -182 -108 -211 -119 -63 -24 -209
-106 -292 -165 -33 -23 -116 -79 -185 -125 -159 -105 -180 -125 -180 -166 0
-20 6 -34 16 -38 42 -16 74 -3 199 81 115 76 217 125 231 110 3 -3 -8 -32 -25
-66 -17 -33 -31 -69 -31 -80 0 -34 37 -35 101 -4 l59 30 -5 -31 c-23 -136 -25
-269 -4 -282 15 -9 87 74 98 112 12 43 79 146 91 139 11 -7 28 -80 35 -150 10
-86 48 -122 78 -72 8 12 24 73 36 134 21 107 27 123 126 305 162 303 165 307
210 333 48 28 220 69 376 91 170 24 428 15 568 -20 182 -46 363 -132 484 -230
66 -54 137 -156 137 -197 0 -40 -67 -111 -134 -143 -85 -40 -257 -102 -378
-136 -373 -105 -503 -166 -648 -305 l-65 -62 -165 -51 c-278 -86 -374 -107
-590 -127 -86 -9 -183 -22 -216 -30 -159 -41 -292 -142 -405 -308 -108 -158
-180 -249 -274 -343 -107 -108 -180 -164 -300 -233 -199 -114 -277 -181 -291
-247 -6 -30 -4 -31 33 -37 52 -9 95 5 175 53 37 22 70 40 74 40 13 0 -4 -94
-25 -140 -23 -50 -28 -139 -9 -158 16 -16 141 97 189 171 20 33 39 55 41 50 6
-9 40 -118 57 -180 7 -24 16 -43 20 -43 22 0 65 48 86 96 25 57 27 58 118 68
27 3 53 9 59 12 14 9 2 73 -33 177 -17 48 -27 96 -24 106 3 10 62 56 130 100
157 103 178 136 110 168 -34 16 -36 16 -147 -25 -62 -22 -126 -44 -141 -48
l-29 -7 20 39 c25 49 338 357 415 407 64 43 121 64 282 107 261 70 575 91 575
39 0 -6 -26 -52 -57 -102 -69 -113 -103 -186 -137 -299 -34 -109 -57 -130
-199 -182 -369 -136 -478 -212 -563 -391 -31 -65 -108 -266 -173 -450 -95
-268 -181 -433 -295 -569 -35 -40 -56 -75 -56 -90 0 -68 39 -87 117 -54 66 27
73 21 73 -68 0 -107 28 -151 76 -119 29 19 50 58 69 131 8 31 16 58 18 60 1 2
23 -22 47 -51 77 -93 170 -102 170 -17 0 10 -15 67 -34 125 l-33 106 68 7 c38
4 69 10 69 14 0 27 -58 141 -86 169 -27 26 -32 37 -23 47 6 8 17 14 23 14 14
0 136 57 136 64 0 47 -90 100 -173 101 -50 0 -52 1 -50 26 1 26 151 369 206
473 41 78 84 107 220 150 62 19 161 55 221 80 80 32 115 42 127 35 18 -9 23
-21 89 -227 90 -276 192 -444 384 -629 140 -135 245 -213 372 -278 99 -51 171
-75 414 -141 191 -52 258 -81 300 -132 49 -59 62 -122 61 -299 0 -161 -10
-216 -41 -233 -10 -5 -69 -17 -130 -25 -345 -49 -658 -189 -1005 -450 -144
-109 -155 -120 -155 -155 l0 -30 87 0 c65 0 91 4 104 16 12 10 155 44 401 94
416 85 658 140 862 196 173 48 228 69 257 100 22 23 24 34 24 112 0 77 -63
573 -85 677 -6 27 -5 48 3 65 12 24 17 25 105 28 l92 3 0 -3111 0 -3110 70 0
70 0 0 3119 0 3120 54 11 c29 6 104 26 166 45 82 26 117 32 130 25 28 -15 151
-338 185 -485 3 -16 13 -81 21 -144 16 -131 32 -165 89 -195 37 -19 54 -21
205 -18 91 1 309 11 485 21 310 19 325 20 490 61 189 46 480 127 508 141 20
11 24 71 5 87 -18 14 -328 77 -468 96 -158 20 -448 28 -612 16 -146 -11 -242
-28 -337 -60 -101 -34 -141 -21 -141 43 0 18 0 153 0 302 1 239 3 273 18 300
22 38 76 68 199 111 187 66 409 199 524 314 126 124 339 478 399 660 51 153
64 327 35 477 -20 102 -19 126 5 148 30 27 608 217 640 210 53 -12 180 -170
242 -301 44 -92 45 -179 5 -271 -15 -35 -36 -102 -48 -150 -45 -192 -44 -236
6 -249 38 -9 70 9 100 56 14 23 31 40 38 37 6 -2 21 -28 32 -58 18 -46 25 -55
49 -57 37 -5 62 19 81 79 9 27 21 52 28 56 6 3 22 -7 36 -23 14 -17 41 -41 59
-53 38 -26 35 -28 93 58 36 56 36 76 -1 154 -16 34 -25 66 -21 70 5 5 24 1 42
-8 25 -14 46 -16 93 -11 33 3 64 10 69 15 4 4 1 38 -9 74 -14 58 -23 72 -73
119 -31 29 -67 60 -80 69 -33 21 -21 35 46 56 44 14 63 26 85 57 88 122 -36
171 -274 107 -144 -38 -186 -39 -225 -7 -16 14 -76 93 -133 176 -123 180 -151
204 -232 198 -29 -3 -111 -21 -183 -41 -326 -90 -526 -139 -548 -133 -13 3
-60 50 -109 108 -47 57 -124 141 -171 188 l-85 84 61 38 c34 21 82 45 107 54
179 62 493 194 566 237 99 59 134 99 210 242 79 147 126 215 222 316 149 157
209 187 443 219 166 23 308 51 395 76 41 12 58 22 69 44 38 73 5 112 -111 131
l-74 12 80 74 c69 65 80 79 80 108 0 74 -23 80 -162 44 -44 -11 -82 -18 -84
-16 -3 2 11 26 31 53 50 70 58 89 51 118 -15 58 -108 21 -230 -92 -34 -31 -73
-67 -88 -81 l-28 -24 20 38 c11 22 20 45 20 52 0 8 12 36 26 64 44 88 17 145
-59 125 -29 -7 -71 -70 -92 -139 -7 -23 -28 -73 -45 -112 l-33 -70 -21 98
c-17 81 -26 103 -49 123 -36 31 -60 30 -81 -1 -14 -22 -16 -59 -15 -278 1
-249 1 -254 -26 -332 -32 -95 -59 -141 -175 -294 -204 -272 -338 -372 -600
-450 -74 -22 -259 -82 -410 -133 l-275 -93 -110 1 c-201 2 -502 62 -632 125
-155 75 -235 216 -236 420 -2 216 129 287 868 474 472 119 501 130 567 203 41
46 66 108 49 125 -14 14 -73 12 -216 -8 -309 -44 -588 47 -710 230 -130 197
-108 421 55 569 78 70 193 106 339 106 117 0 199 -19 317 -75 141 -66 156 -90
109 -175 -14 -25 -38 -70 -54 -101 -16 -30 -46 -72 -65 -91 -44 -44 -46 -78
-11 -131 49 -71 98 -63 175 29 56 67 174 174 191 174 27 0 2 -50 -61 -121 -92
-104 -103 -123 -102 -167 1 -27 11 -45 39 -74 20 -21 45 -38 56 -38 10 0 55
35 101 79 84 81 134 115 153 103 13 -9 38 -57 64 -126 19 -53 22 -56 54 -56
28 0 39 7 68 48 110 150 157 335 157 617 0 167 13 237 60 345 67 153 24 225
-152 255 -21 3 -40 10 -42 14 -3 5 -1 44 6 87 14 96 -4 200 -51 300 -29 63
-129 175 -206 233 -29 22 -29 23 -10 37 52 38 147 56 330 63 139 6 190 11 223
25 23 10 42 20 42 22 0 11 -50 81 -70 99 -20 18 -36 20 -179 20 -143 -1 -162
-3 -228 -27 -40 -15 -73 -23 -73 -19 0 4 17 23 38 43 29 28 75 50 207 101 268
102 455 164 551 183 103 19 134 40 117 77 -10 22 -19 24 -105 30 -136 8 -291
-7 -384 -38 -104 -35 -384 -171 -465 -225 -35 -24 -90 -68 -122 -98 -31 -31
-60 -52 -64 -49 -9 10 14 107 44 179 30 74 93 174 152 240 23 25 94 89 159
141 141 114 155 129 150 159 -4 28 -41 33 -108 15z m-125 -1277 c77 -48 97
-142 50 -237 -15 -28 -33 -57 -40 -63 -13 -11 -15 -7 -15 22 0 21 -9 46 -21
62 -17 22 -28 26 -70 26 -41 0 -54 -5 -74 -26 -14 -15 -25 -36 -25 -48 0 -33
18 -89 32 -98 26 -16 85 -8 124 17 31 20 27 14 -21 -30 -79 -73 -111 -87 -159
-74 -56 15 -100 61 -126 128 -19 52 -20 65 -11 116 27 144 144 242 274 230 27
-2 64 -14 82 -25z m-3211 -409 c15 -16 24 -31 19 -34 -4 -3 -70 9 -146 26
-161 36 -161 36 -16 101 l94 42 11 -53 c7 -34 20 -64 38 -82z m-441 71 c9 -10
23 -37 31 -60 17 -48 18 -47 -72 -77 -32 -10 -57 -14 -63 -8 -13 13 7 123 27
144 22 24 56 24 77 1z m3875 -114 c7 -7 12 -34 12 -61 0 -40 -5 -53 -29 -77
-34 -34 -62 -31 -91 10 -37 52 -20 96 48 127 35 15 46 15 60 1z m-4135 -252
c62 -26 144 -127 179 -220 56 -145 -8 -267 -173 -332 -85 -33 -123 -29 -198
23 -64 44 -95 86 -116 156 -17 59 -20 193 -4 234 21 58 74 98 174 134 61 22
95 23 138 5z m-603 -248 c79 -40 109 -115 90 -219 -13 -66 -43 -111 -93 -139
-53 -30 -190 -26 -234 6 -51 38 -68 80 -68 169 1 84 14 123 53 158 55 50 179
62 252 25z m4240 -149 c0 -6 -17 -45 -37 -86 -27 -55 -53 -89 -98 -129 -33
-30 -67 -54 -75 -54 -26 0 -40 22 -40 60 0 30 13 51 80 132 43 53 87 101 97
106 19 11 73 -10 73 -29z m134 -185 c20 -20 20 -21 -5 -98 -15 -47 -33 -75
-64 -106 -44 -43 -44 -43 -70 -26 -35 23 -41 44 -22 75 9 14 28 49 43 76 48
90 83 114 118 79z m-4484 -1151 c0 -5 -9 -44 -19 -88 -25 -101 -18 -120 42
-111 94 14 92 15 95 -28 3 -38 -21 -158 -37 -184 -5 -8 -17 4 -35 38 -21 38
-33 50 -51 50 -26 0 -75 -51 -75 -79 0 -10 -20 -48 -44 -86 l-44 -68 -17 26
c-16 26 -16 28 24 110 58 120 53 158 -18 137 -25 -7 -32 -5 -45 15 -17 26 -15
30 30 39 38 8 77 47 72 73 -2 10 -18 25 -35 33 l-32 15 60 50 c55 46 83 61
117 64 6 1 12 -2 12 -6z"/>
<path d="M3514 13033 c-32 -34 -39 -66 -24 -103 22 -54 91 -54 127 -1 31 46
29 74 -8 105 -39 33 -64 33 -95 -1z"/>
</g>
</svg>
