<svg version="1.0" xmlns="http://www.w3.org/2000/svg"
 width="1080.000000pt" height="1664.000000pt" viewBox="0 0 1080.000000 1664.000000"
 preserveAspectRatio="xMidYMid meet">

<g transform="translate(0.000000,1664.000000) scale(0.100000,-0.100000)"
fill="#000000" stroke="none">
<path d="M7710 15256 c-67 -14 -162 -66 -271 -148 -185 -139 -289 -331 -289
-534 0 -93 -13 -121 -59 -133 -20 -5 -117 -11 -216 -14 -426 -13 -638 -90
-1003 -363 -266 -199 -371 -336 -517 -669 -84 -191 -123 -302 -176 -504 -23
-89 -45 -158 -49 -154 -15 17 -50 161 -50 204 0 26 9 66 20 90 25 55 25 64 0
89 -14 14 -33 20 -64 20 -44 0 -77 19 -75 43 0 7 13 53 28 102 38 119 33 130
-55 121 -186 -18 -189 -18 -209 -3 -18 14 -19 18 -6 64 29 101 26 147 -8 156
-16 4 -211 -37 -283 -59 -14 -4 -27 15 -63 85 -25 50 -45 100 -45 111 0 54
-52 30 -184 -85 l-76 -68 -48 18 c-27 11 -78 47 -123 87 -42 37 -78 68 -81 68
-3 0 -20 -33 -39 -72 -27 -59 -34 -90 -39 -159 -7 -115 -29 -140 -141 -153
-89 -11 -168 -55 -267 -148 -129 -122 -181 -141 -312 -114 -92 20 -104 20
-166 1 -63 -19 -128 -74 -159 -135 -47 -93 -52 -229 -11 -307 31 -59 101 -110
182 -132 69 -19 70 -21 51 -204 -28 -266 -29 -307 -18 -426 17 -163 30 -180
92 -115 137 145 441 352 681 463 83 39 287 101 330 101 59 -1 45 -18 -104
-125 -83 -61 -190 -143 -237 -184 -111 -95 -134 -110 -326 -218 -88 -50 -230
-134 -315 -188 -85 -53 -176 -105 -202 -116 -95 -37 -167 -79 -383 -224 -239
-160 -285 -197 -285 -232 0 -28 33 -47 67 -38 14 3 83 44 152 90 85 57 144 89
181 98 30 8 56 13 58 12 2 -2 -13 -35 -32 -74 -20 -39 -36 -77 -36 -86 0 -24
59 -18 109 10 24 14 46 23 49 21 2 -3 -1 -39 -7 -81 -12 -81 -13 -176 -3 -213
7 -22 8 -22 44 15 20 21 44 58 53 83 14 39 82 150 92 150 12 0 32 -75 39 -139
5 -53 13 -80 28 -98 21 -24 22 -24 39 -5 11 12 27 66 41 138 22 111 29 129
103 264 44 80 101 187 127 237 74 144 99 159 341 208 413 83 763 39 1074 -137
127 -73 271 -226 271 -291 0 -30 -100 -128 -155 -152 -103 -46 -247 -96 -433
-149 -313 -90 -432 -148 -562 -272 l-77 -74 -161 -50 c-279 -86 -405 -113
-611 -130 -160 -13 -237 -32 -337 -80 -102 -49 -188 -131 -274 -260 -177 -267
-345 -439 -541 -554 -219 -129 -296 -190 -320 -254 -12 -32 1 -42 59 -42 42 0
101 25 167 69 17 12 36 21 43 21 21 0 14 -75 -14 -145 -20 -49 -25 -77 -21
-106 3 -22 8 -43 11 -46 14 -14 140 106 186 178 21 33 41 55 45 50 12 -20 45
-124 45 -143 0 -10 7 -35 15 -55 l15 -36 34 32 c19 18 42 53 51 77 18 47 22
50 108 60 38 4 60 12 66 23 10 18 -20 144 -44 192 -22 41 -19 82 8 106 12 11
63 46 112 78 50 31 100 66 113 78 42 39 20 87 -41 87 -13 0 -71 -17 -128 -39
-57 -21 -117 -41 -132 -45 l-29 -7 28 51 c34 62 322 347 410 405 133 88 505
175 754 175 127 0 135 -16 64 -125 -61 -94 -119 -216 -142 -302 -11 -38 -26
-80 -33 -92 -22 -35 -78 -68 -173 -101 -140 -49 -292 -117 -362 -161 -125 -80
-187 -175 -282 -439 -27 -74 -70 -193 -96 -265 -54 -148 -149 -351 -197 -422
-18 -26 -59 -81 -91 -121 -62 -78 -67 -94 -42 -130 18 -27 41 -28 105 -5 34
12 52 14 59 7 6 -6 13 -47 17 -92 7 -97 18 -118 57 -108 31 8 71 82 82 153 3
24 9 43 13 43 3 0 29 -25 56 -55 36 -41 60 -58 87 -64 78 -18 87 26 39 179
-16 52 -28 96 -25 99 2 3 31 7 64 9 41 3 60 9 60 18 0 32 -44 122 -76 154 -19
20 -34 42 -34 48 0 7 17 20 38 28 20 8 58 24 84 36 46 21 47 21 33 48 -19 36
-99 70 -164 70 -47 0 -51 2 -51 24 0 24 80 212 178 418 69 146 92 166 245 213
49 15 143 49 209 76 75 31 130 48 143 45 25 -7 34 -27 100 -230 107 -329 243
-528 510 -745 192 -157 317 -213 683 -310 171 -46 216 -65 266 -117 63 -65 86
-189 71 -398 -10 -146 -15 -152 -154 -171 -303 -43 -580 -152 -861 -340 -207
-138 -307 -220 -312 -256 l-5 -29 85 0 c57 0 91 4 101 13 9 8 135 37 281 66
523 103 1072 234 1175 280 52 24 84 60 91 103 6 32 -10 163 -67 568 -12 80
-23 161 -26 180 -8 63 11 75 116 75 l91 0 0 -3107 0 -3108 70 0 70 0 2 3117 3
3117 40 8 c22 4 95 24 162 44 67 20 129 34 137 31 25 -10 43 -46 102 -202 68
-180 100 -302 113 -430 11 -106 31 -158 74 -189 27 -20 41 -21 260 -20 128 1
349 9 493 18 l260 16 235 59 c129 33 283 74 344 93 99 30 111 36 120 62 15 44
-13 58 -188 95 -313 65 -316 65 -672 66 -355 0 -370 -2 -553 -57 -166 -51
-164 -55 -160 327 3 254 5 294 21 322 20 38 89 76 212 118 90 30 255 114 360
183 152 100 319 308 459 572 114 217 163 437 137 617 -24 161 -25 207 -6 223
22 18 599 210 632 210 39 0 88 -43 155 -134 138 -189 165 -296 109 -441 -39
-103 -83 -293 -79 -342 2 -30 9 -41 30 -51 37 -17 68 -1 101 54 15 25 33 44
40 41 6 -2 21 -27 32 -57 24 -63 43 -79 78 -63 17 8 32 29 45 65 29 76 40 79
95 24 26 -25 52 -46 59 -46 16 1 73 74 87 113 11 29 7 47 -31 125 -27 57 -14
72 40 48 29 -13 51 -16 84 -11 71 11 73 14 58 84 -11 54 -19 66 -74 118 -33
32 -72 66 -86 75 -25 17 -25 18 -5 30 11 7 44 22 74 33 46 17 57 27 79 68 33
63 22 90 -42 106 -63 16 -102 14 -187 -9 -41 -11 -107 -27 -147 -36 -109 -23
-122 -15 -249 171 -157 229 -184 247 -322 205 -114 -33 -571 -152 -608 -157
-57 -9 -77 4 -143 88 -36 45 -111 129 -168 187 -57 57 -100 108 -95 112 24 24
134 82 191 101 138 46 452 177 526 219 90 52 128 91 183 186 21 38 61 107 88
154 52 92 143 208 223 282 110 103 193 137 401 163 211 27 410 73 443 102 29
26 33 71 9 97 -24 26 -82 46 -132 46 -64 0 -62 13 11 75 84 73 108 112 94 152
-5 17 -18 29 -31 31 -17 3 -142 -24 -206 -44 -18 -6 -18 -4 -1 28 9 18 29 49
44 68 34 44 39 59 29 88 -20 52 -101 10 -261 -138 -88 -82 -99 -89 -79 -55 13
22 32 63 41 90 10 28 26 72 37 98 l18 49 -24 19 c-13 10 -32 19 -43 19 -29 0
-72 -48 -93 -105 -31 -84 -87 -215 -95 -220 -4 -2 -14 33 -24 78 -23 110 -34
135 -67 152 -25 13 -30 13 -51 -4 l-23 -19 -1 -264 c0 -181 -4 -277 -13 -308
-35 -123 -180 -338 -340 -504 -137 -140 -252 -213 -406 -256 -44 -12 -231 -72
-415 -132 l-335 -111 -120 6 c-214 11 -501 70 -614 127 -151 76 -225 217 -225
425 0 102 10 129 70 188 87 84 278 153 764 277 212 54 408 106 435 114 114 36
191 102 215 184 8 30 7 32 -18 39 -15 3 -70 1 -122 -7 -52 -7 -144 -15 -205
-17 -317 -13 -562 125 -646 363 -30 88 -24 236 15 316 78 164 221 241 446 241
123 1 220 -23 333 -79 94 -47 117 -69 117 -111 0 -40 -80 -186 -139 -256 -46
-54 -49 -69 -21 -114 25 -42 64 -67 92 -59 13 3 57 44 98 89 81 90 158 157
177 157 7 0 13 -12 13 -26 0 -18 -21 -50 -68 -102 -110 -123 -118 -142 -87
-203 20 -38 73 -71 94 -59 9 5 50 42 91 82 83 80 120 104 145 94 14 -5 44 -61
83 -158 26 -64 87 -21 156 112 73 137 106 317 106 569 0 143 14 216 59 311 34
72 39 116 16 159 -16 32 -79 66 -140 76 -80 13 -75 4 -68 124 12 214 -51 347
-237 502 l-55 46 42 22 c73 37 158 51 309 51 96 0 156 5 190 15 80 24 81 26
50 80 -15 25 -40 51 -54 57 -16 7 -85 12 -162 12 -128 1 -140 -1 -224 -31 -49
-18 -91 -31 -93 -29 -2 2 18 26 44 52 42 43 65 55 178 98 304 114 489 176 571
192 98 18 134 35 134 62 0 37 -19 42 -172 42 -230 0 -319 -25 -607 -170 -135
-68 -212 -118 -284 -187 -80 -75 -81 -75 -74 -11 12 118 100 287 209 399 29
30 97 90 150 132 94 75 148 129 148 147 0 21 -37 27 -90 16z m-154 -1267 c109
-52 118 -184 24 -310 -54 -72 -163 -159 -198 -159 -39 1 -105 33 -130 64 -102
131 -35 355 124 411 58 21 131 18 180 -6z m-3237 -331 c8 -34 23 -64 43 -85
45 -47 22 -50 -119 -18 -166 37 -156 34 -141 53 11 13 179 99 199 101 3 1 11
-23 18 -51z m-417 1 c20 -11 57 -81 58 -111 0 -12 -19 -23 -69 -39 -92 -30
-101 -25 -88 43 13 75 24 97 49 108 30 12 26 12 50 -1z m3906 -191 c4 -66 -22
-108 -67 -108 -37 0 -81 47 -81 86 0 39 16 59 65 83 58 28 79 12 83 -61z
m-3150 59 c8 -10 6 -22 -9 -46 -11 -18 -23 -31 -27 -29 -75 37 -75 38 -29 67
37 24 51 26 65 8z m251 -216 l24 -18 -23 -32 -22 -32 -24 22 c-26 25 -31 48
-12 67 16 16 29 15 57 -7z m-1240 -36 c44 -22 117 -110 153 -182 44 -90 46
-176 5 -246 -50 -85 -187 -156 -277 -144 -59 8 -147 72 -181 132 -54 96 -60
278 -11 344 62 83 234 136 311 96z m1346 -225 c10 -46 -5 -58 -26 -19 -12 24
-14 38 -7 46 14 17 25 8 33 -27z m-1950 -23 c76 -42 103 -142 70 -254 -28 -93
-113 -142 -225 -129 -80 10 -121 33 -148 86 -20 39 -23 56 -20 126 5 100 26
140 88 172 62 31 178 31 235 -1z m4213 -130 l22 -23 -38 -74 c-45 -90 -143
-190 -185 -190 -33 0 -51 30 -42 73 7 32 142 208 174 227 26 15 46 12 69 -13z
m150 -199 c40 -40 -43 -222 -110 -244 -11 -3 -30 2 -43 10 -30 20 -33 63 -6
97 10 13 28 44 41 69 12 25 29 53 38 63 17 20 62 23 80 5z m1052 -463 c0 -8
-4 -15 -10 -15 -5 0 -7 7 -4 15 4 8 8 15 10 15 2 0 4 -7 4 -15z m-5295 -632
c-18 -76 -67 -96 -99 -42 -10 17 -16 32 -14 33 6 6 93 34 107 35 9 1 11 -7 6
-26z m-245 -69 c0 -9 -8 -48 -17 -86 -24 -101 -13 -113 91 -93 47 10 58 -4 51
-60 -11 -76 -39 -175 -49 -172 -6 2 -22 23 -36 48 -15 24 -33 45 -41 47 -19 3
-64 -45 -76 -83 -16 -47 -83 -147 -96 -142 -7 2 -16 16 -21 30 -8 22 -4 39 27
100 21 39 39 86 40 102 2 29 1 30 -43 29 -30 -1 -49 4 -57 15 -21 27 -15 40
22 47 31 5 85 46 85 64 0 10 -32 36 -53 43 -24 9 -17 18 54 77 42 35 69 50 90
50 20 0 29 -5 29 -16z m-290 -170 c0 -8 -4 -12 -10 -9 -5 3 -10 10 -10 16 0 5
5 9 10 9 6 0 10 -7 10 -16z m30 -39 c10 -12 10 -15 -4 -15 -9 0 -16 7 -16 15
0 8 2 15 4 15 2 0 9 -7 16 -15z"/>
<path d="M7410 13760 c-12 -12 -20 -33 -20 -55 0 -19 -1 -38 -2 -42 0 -4 11
-16 25 -27 23 -17 31 -18 67 -7 50 15 74 49 65 91 -12 54 -96 79 -135 40z"/>
<path d="M7722 13478 c-25 -25 0 -64 32 -52 21 8 21 50 0 58 -20 8 -18 8 -32
-6z"/>
<path d="M3525 13019 c-29 -25 -34 -36 -29 -57 8 -34 32 -62 53 -62 30 0 60
30 67 66 5 28 2 40 -17 60 -12 13 -26 24 -30 24 -5 0 -24 -14 -44 -31z"/>
<path d="M2891 12867 c-18 -20 -20 -28 -12 -50 6 -15 15 -27 20 -27 5 0 16 -3
24 -6 9 -3 22 8 37 31 l22 35 -24 20 c-30 25 -40 25 -67 -3z"/>
</g>
</svg>
