<svg version="1.0" xmlns="http://www.w3.org/2000/svg"
 width="1263.000000pt" height="1664.000000pt" viewBox="0 0 1263.000000 1664.000000"
 preserveAspectRatio="xMidYMid meet">
<g transform="translate(0.000000,1664.000000) scale(0.100000,-0.100000)"
fill="#000000" stroke="none">
<path d="M4739 14768 c-18 -36 -89 -166 -131 -243 -21 -38 -48 -90 -60 -115
-13 -25 -25 -47 -28 -50 -3 -3 -18 -32 -35 -65 -16 -33 -32 -62 -35 -65 -4 -4
-48 -86 -99 -185 -9 -16 -18 -32 -21 -35 -3 -3 -18 -32 -35 -65 -16 -33 -32
-62 -35 -65 -3 -3 -13 -21 -24 -40 -44 -83 -96 -180 -131 -245 -21 -38 -44
-80 -49 -93 -9 -18 -17 -21 -41 -17 -16 4 -39 10 -50 15 -23 10 -145 46 -190
56 -16 4 -34 10 -40 14 -5 4 -27 11 -49 14 -21 4 -46 11 -55 16 -9 5 -50 19
-91 31 -156 45 -175 51 -192 60 -10 5 -25 9 -33 9 -9 0 -41 8 -73 19 -31 10
-91 29 -132 41 -41 12 -86 25 -100 30 -14 5 -65 20 -115 35 -49 14 -101 30
-115 35 -14 5 -59 18 -100 30 -41 12 -115 35 -165 50 -49 16 -106 32 -125 36
-19 3 -41 10 -50 15 -22 11 -114 38 -118 34 -2 -2 1 -11 7 -22 6 -10 33 -76
61 -148 28 -71 57 -143 64 -160 7 -16 23 -59 36 -95 13 -36 27 -69 32 -75 4
-5 8 -15 8 -23 0 -12 12 -41 55 -137 7 -16 17 -42 20 -58 4 -15 11 -30 16 -33
5 -3 9 -12 9 -21 0 -8 7 -29 14 -46 8 -18 40 -97 71 -177 30 -80 60 -154 65
-165 5 -11 26 -63 45 -115 20 -52 42 -109 50 -127 8 -17 15 -34 15 -38 0 -7
36 -92 50 -117 6 -10 10 -23 10 -30 1 -7 9 -31 20 -53 11 -22 19 -45 20 -51 0
-6 7 -24 15 -41 8 -16 18 -43 21 -60 6 -31 4 -33 -129 -125 -11 -7 -27 -20
-37 -28 -10 -8 -59 -44 -110 -80 -51 -36 -102 -74 -115 -85 -13 -11 -32 -26
-42 -33 -41 -28 -217 -155 -227 -164 -6 -5 -56 -41 -111 -80 -55 -40 -105 -77
-111 -82 -6 -6 -21 -18 -34 -26 -12 -8 -52 -37 -88 -63 -37 -27 -78 -56 -90
-65 -13 -9 -70 -51 -125 -92 -56 -41 -121 -88 -144 -104 -24 -16 -43 -34 -43
-41 0 -6 29 -16 68 -23 37 -6 101 -17 142 -26 69 -13 201 -38 375 -71 39 -8
106 -21 150 -30 132 -26 224 -44 335 -64 134 -24 363 -69 415 -81 22 -5 56
-12 75 -15 19 -3 57 -11 83 -18 l48 -11 -7 -40 c-3 -22 -10 -47 -15 -56 -4 -8
-13 -35 -18 -60 -6 -25 -17 -72 -26 -105 -9 -33 -23 -85 -30 -115 -8 -30 -21
-82 -30 -115 -9 -33 -25 -94 -35 -135 -10 -41 -34 -136 -53 -210 -20 -74 -61
-234 -92 -355 -31 -121 -65 -254 -76 -295 -38 -142 -51 -201 -45 -207 6 -6
155 45 170 59 6 4 16 8 24 8 8 0 28 7 45 15 18 8 160 62 317 120 157 58 294
109 305 114 11 5 49 19 85 32 36 12 70 25 75 29 6 4 39 17 75 30 36 12 79 28
95 35 17 6 59 22 95 35 36 12 81 29 100 37 19 8 44 18 55 23 11 4 49 18 85 31
36 12 76 27 90 32 93 37 155 56 161 49 23 -24 36 -508 19 -682 -18 -185 -39
-326 -66 -440 -40 -173 -56 -236 -65 -252 -5 -10 -9 -24 -9 -32 0 -18 -66
-198 -110 -301 -25 -57 -124 -261 -129 -265 -4 -3 -12 -18 -19 -33 -7 -16 -41
-74 -77 -130 -81 -127 -88 -137 -100 -151 -6 -6 -22 -27 -35 -46 -13 -19 -29
-40 -35 -46 -5 -7 -23 -29 -40 -50 -94 -119 -280 -310 -395 -404 -23 -19 -52
-44 -64 -55 -12 -11 -33 -28 -46 -37 -25 -17 -25 -17 -3 -17 35 -1 252 74 315
109 10 6 22 10 28 10 21 0 333 149 338 162 2 5 8 8 14 8 18 0 348 204 395 245
19 15 54 42 90 68 144 104 434 376 578 542 33 38 67 76 75 85 46 49 158 194
233 300 37 52 73 103 79 112 15 19 23 32 78 114 22 34 40 66 40 72 0 6 4 12 9
14 8 3 130 210 166 283 11 22 23 42 28 43 4 2 7 7 7 12 0 4 31 72 69 151 38
79 85 187 105 239 21 52 43 109 51 125 7 17 15 37 17 47 3 15 6 15 41 1 l37
-15 0 -3444 0 -3444 70 0 70 0 0 3416 0 3415 23 -7 c21 -6 75 -28 144 -60 17
-8 37 -14 45 -14 7 -1 31 -9 53 -20 22 -11 46 -19 53 -20 7 0 20 -4 30 -10 30
-16 104 -47 172 -70 67 -23 73 -25 150 -58 25 -11 95 -38 155 -60 118 -44 221
-84 272 -108 17 -8 37 -14 45 -14 8 0 18 -4 24 -8 5 -5 45 -21 89 -37 44 -15
85 -31 90 -35 6 -4 57 -24 115 -45 58 -21 110 -41 115 -45 6 -4 46 -19 90 -35
44 -15 85 -31 90 -35 6 -4 22 -10 37 -14 14 -3 33 -8 41 -11 11 -5 15 18 21
132 9 197 36 873 43 1101 l6 194 31 -6 c18 -3 173 -13 346 -21 173 -9 439 -22
590 -30 151 -8 467 -23 702 -34 235 -11 439 -23 454 -27 23 -6 25 -5 16 12 -6
11 -54 64 -107 119 -53 55 -124 131 -158 169 -34 38 -84 92 -112 120 -50 51
-291 308 -310 330 -5 7 -46 50 -90 97 -44 46 -138 147 -210 224 -71 77 -152
163 -180 191 -27 28 -65 68 -84 90 -27 31 -233 252 -314 337 -18 18 -18 19 2
34 12 8 29 22 39 32 9 9 49 41 87 71 39 30 72 57 75 61 3 3 34 30 70 58 96 77
142 114 159 131 9 8 30 25 47 37 32 23 83 65 113 93 9 8 32 26 51 40 19 14 42
32 51 40 44 40 77 68 109 90 19 14 42 32 51 40 44 40 77 68 109 90 19 14 42
32 50 40 9 8 36 31 60 50 23 19 54 45 66 57 13 12 30 26 38 30 14 8 87 68 134
111 14 12 28 22 31 22 3 0 28 20 56 45 27 25 53 45 57 45 5 0 8 4 8 9 0 5 -21
11 -47 14 -45 6 -124 18 -343 53 -155 26 -257 41 -410 64 -80 12 -183 28 -230
35 -47 7 -132 21 -190 30 -58 9 -143 23 -190 30 -47 7 -142 22 -213 32 -70 11
-132 24 -137 29 -9 10 -66 118 -184 349 -39 77 -73 142 -76 145 -3 3 -23 41
-44 85 -22 44 -43 82 -48 83 -4 2 -8 8 -8 14 0 11 -16 44 -147 294 -37 72 -90
176 -118 230 -27 54 -52 101 -55 104 -3 3 -23 42 -45 87 -22 46 -45 83 -51 83
-7 0 -61 -33 -122 -72 -129 -84 -296 -192 -432 -278 -52 -32 -99 -63 -105 -67
-5 -5 -48 -32 -95 -62 -255 -163 -331 -212 -424 -272 -55 -36 -139 -90 -186
-120 -47 -29 -87 -56 -90 -60 -15 -18 -92 -52 -98 -44 -4 6 -41 33 -82 61
-122 82 -205 139 -210 144 -3 3 -32 23 -65 45 -51 33 -122 84 -160 112 -6 5
-51 35 -100 68 -50 33 -95 64 -102 70 -25 20 -40 31 -128 90 -50 33 -95 64
-101 70 -6 5 -20 16 -30 22 -37 25 -139 93 -157 105 -11 7 -28 21 -39 31 -12
9 -25 17 -29 17 -4 0 -14 6 -21 13 -7 6 -40 30 -73 52 -33 22 -62 43 -65 46
-6 7 -47 29 -54 29 -3 0 -11 -10 -17 -22z m2673 -2398 c172 -60 283 -111 316
-143 48 -46 65 -115 68 -277 1 -74 5 -158 9 -187 7 -47 5 -54 -18 -77 -30 -30
-56 -32 -138 -11 -77 20 -143 49 -168 74 -19 19 -19 29 -14 205 6 182 6 186
-14 186 -11 0 -32 -11 -47 -25 -90 -83 -102 -327 -21 -423 14 -17 89 -71 168
-120 240 -152 281 -213 282 -418 0 -103 -2 -114 -30 -169 -52 -103 -164 -165
-294 -165 -29 0 -112 14 -184 32 -176 43 -196 60 -253 220 -14 40 -41 101 -60
135 -28 50 -32 66 -24 87 17 45 52 60 128 52 119 -12 194 -28 212 -46 10 -10
22 -49 29 -96 18 -107 37 -154 65 -154 29 0 40 9 61 50 23 44 31 169 16 227
-16 58 -50 95 -129 139 -176 98 -286 194 -334 292 -31 63 -33 73 -32 172 0 89
4 115 27 174 50 127 146 249 221 282 45 19 65 17 158 -16z m-2988 -19 c146
-72 259 -250 312 -495 22 -96 30 -352 15 -457 -48 -340 -211 -570 -403 -570
-59 0 -331 79 -384 112 -86 53 -174 189 -208 323 -59 229 -40 541 50 828 65
204 146 295 243 271 29 -8 54 -6 107 8 99 27 186 21 268 -20z m2180 3 c51 -40
107 -83 160 -121 85 -62 134 -188 122 -319 -18 -225 -205 -578 -339 -643 -65
-31 -107 -28 -161 14 -26 19 -49 35 -52 35 -5 0 0 -218 9 -426 2 -59 -20 -94
-60 -94 -33 0 -170 54 -225 89 -62 39 -73 61 -59 116 16 63 15 1215 -1 1249
-8 20 -8 35 1 66 17 59 37 65 123 38 93 -28 162 -27 258 6 101 35 173 32 224
-10z m1629 3 l56 -25 3 -479 c4 -546 6 -530 -68 -519 -58 8 -155 58 -210 108
-49 45 -54 68 -29 138 12 35 15 108 15 406 l0 363 28 21 c23 19 36 21 88 17
36 -2 85 -15 117 -30z m-3133 0 c97 -27 145 -49 154 -72 3 -9 -4 -44 -17 -78
-21 -59 -22 -76 -21 -332 2 -501 54 -845 127 -845 92 0 152 284 163 775 6 240
-3 389 -28 472 -11 39 -10 45 8 70 18 23 30 29 73 31 53 3 178 -26 232 -53
l29 -16 0 -338 c0 -461 -20 -696 -76 -889 -30 -103 -54 -151 -102 -204 -70
-78 -121 -84 -280 -34 -59 19 -146 46 -193 60 -102 31 -143 68 -179 162 -81
217 -124 654 -101 1015 21 317 28 326 211 276z m3082 -1147 c29 -11 68 -29 87
-41 l34 -20 -8 -162 c-7 -168 -12 -189 -45 -207 -24 -13 -114 15 -203 63 -73
38 -84 56 -63 108 11 27 16 72 16 139 0 108 9 146 37 152 24 5 79 -7 145 -32z"/>
<path d="M4296 12151 c-9 -10 -32 -55 -51 -100 -48 -116 -55 -122 -117 -96
-41 17 -86 -265 -73 -465 17 -266 85 -430 177 -430 70 0 117 70 157 230 30
126 41 235 41 426 0 238 -26 380 -79 433 -26 26 -33 26 -55 2z"/>
<path d="M6455 12085 c-33 -20 -75 -50 -92 -68 l-33 -31 0 -223 c0 -223 0
-224 21 -213 105 57 246 360 237 512 -3 53 -3 53 -38 56 -26 2 -51 -7 -95 -33z"/>
</g>
</svg>
