<svg version="1.0" xmlns="http://www.w3.org/2000/svg"
 width="1263.000000pt" height="1664.000000pt" viewBox="0 0 1263.000000 1664.000000"
 preserveAspectRatio="xMidYMid meet">

<g transform="translate(0.000000,1664.000000) scale(0.100000,-0.100000)"
fill="#000000" stroke="none">
<path d="M4718 14718 c-21 -40 -50 -95 -66 -123 -15 -27 -49 -88 -74 -135 -25
-47 -57 -105 -70 -130 -14 -25 -44 -81 -68 -125 -23 -44 -50 -93 -60 -110 -10
-16 -38 -69 -63 -117 -26 -47 -55 -101 -65 -120 -10 -18 -45 -82 -77 -143 -32
-60 -71 -132 -87 -158 -15 -26 -28 -51 -28 -55 0 -27 -25 -28 -98 -5 -42 14
-106 33 -142 43 -36 10 -155 46 -265 80 -110 34 -229 71 -265 81 -36 10 -110
32 -165 49 -112 36 -178 56 -246 75 -55 16 -243 73 -279 85 -14 5 -63 20 -110
34 -47 13 -123 36 -169 50 -47 14 -86 24 -88 22 -3 -3 7 -30 73 -188 14 -35
39 -99 55 -143 16 -44 34 -89 39 -100 9 -18 68 -170 246 -625 36 -91 69 -174
74 -185 16 -33 181 -456 201 -515 19 -52 19 -55 2 -67 -10 -7 -22 -16 -28 -20
-5 -5 -44 -33 -85 -63 -84 -60 -215 -156 -365 -267 -90 -66 -154 -113 -347
-253 -33 -25 -87 -63 -118 -85 -113 -80 -315 -229 -320 -235 -3 -4 -33 -26
-67 -49 -35 -24 -65 -47 -68 -51 -3 -5 11 -12 32 -15 21 -3 56 -10 78 -16 22
-5 63 -14 90 -19 110 -19 369 -68 525 -99 119 -24 223 -44 495 -96 105 -19
208 -40 230 -45 22 -5 78 -16 125 -25 47 -9 92 -18 101 -21 19 -5 20 1 -31
-189 -17 -66 -38 -145 -45 -175 -8 -30 -30 -118 -50 -195 -20 -77 -43 -165
-50 -195 -8 -30 -23 -89 -34 -130 -11 -41 -40 -154 -65 -250 -24 -96 -59 -229
-77 -295 -17 -66 -39 -154 -49 -197 l-18 -76 37 13 c105 37 270 99 296 110 17
7 59 23 95 35 36 13 79 29 95 35 26 11 121 47 315 119 213 80 463 174 550 208
313 120 385 146 392 139 10 -9 38 -310 38 -413 0 -99 -25 -401 -41 -498 -54
-325 -115 -543 -219 -791 -193 -456 -458 -814 -858 -1160 -56 -49 -99 -89 -95
-89 5 0 48 14 97 30 362 123 714 306 1016 529 319 235 646 563 895 896 16 22
34 45 40 51 39 44 249 374 332 523 82 145 253 496 253 518 0 4 6 19 13 33 7
14 26 60 41 103 16 42 30 77 33 77 2 0 19 -7 38 -14 l35 -15 0 -3440 0 -3441
70 0 70 0 0 3410 c0 1876 4 3410 8 3410 8 0 283 -105 432 -165 36 -14 92 -35
125 -46 33 -12 78 -29 100 -39 41 -18 113 -46 370 -145 83 -32 211 -81 285
-110 159 -62 123 -48 340 -133 l175 -68 7 26 c4 14 14 215 23 445 20 561 36
949 38 951 2 2 423 -18 852 -41 160 -8 472 -24 695 -35 223 -11 448 -23 500
-26 l95 -7 -25 29 c-14 16 -27 31 -30 34 -3 3 -39 41 -80 85 -40 44 -110 118
-154 165 -45 47 -137 146 -206 220 -69 74 -138 148 -154 165 -17 16 -59 62
-94 100 -36 39 -97 104 -136 145 -39 41 -132 140 -206 220 -74 80 -169 181
-211 225 -87 93 -166 177 -238 254 -28 30 -50 60 -48 65 2 6 333 279 735 606
645 524 729 596 709 603 -12 4 -67 15 -122 23 -93 14 -160 24 -375 59 -47 7
-148 22 -225 34 -77 11 -183 28 -235 36 -52 8 -138 22 -190 30 -52 9 -135 22
-185 30 -49 8 -144 22 -210 31 -66 9 -136 20 -155 25 -38 9 -25 -13 -230 384
-40 77 -101 194 -135 260 -34 66 -96 185 -137 265 -42 80 -107 206 -146 280
-38 74 -89 172 -112 217 -47 92 -39 90 -123 34 -23 -15 -69 -45 -102 -66 -33
-21 -96 -61 -140 -90 -137 -89 -286 -184 -380 -244 -49 -32 -130 -84 -180
-116 -49 -32 -136 -87 -193 -124 -57 -36 -138 -89 -180 -116 -136 -89 -257
-164 -274 -170 -18 -7 -31 1 -208 124 -63 44 -164 114 -225 156 -60 42 -164
113 -230 159 -66 47 -183 128 -260 181 -77 53 -192 132 -255 176 -176 122
-259 179 -262 179 -2 0 -20 -33 -40 -72z m1863 -2346 c15 -9 51 -36 80 -59 30
-23 74 -57 99 -75 167 -124 172 -365 14 -680 -104 -207 -204 -309 -305 -312
-28 0 -48 8 -85 37 l-49 38 -3 -155 c-2 -116 1 -172 13 -216 13 -51 14 -64 2
-92 -21 -49 -41 -62 -89 -55 -57 8 -227 95 -252 130 -18 24 -19 32 -8 72 17
62 17 1194 1 1240 -17 45 -4 101 27 121 23 16 29 15 97 -5 96 -28 163 -26 272
9 97 32 139 32 186 2z m919 -32 c173 -67 200 -81 238 -124 44 -51 54 -93 59
-251 2 -77 6 -165 9 -195 5 -47 3 -59 -16 -82 -17 -23 -30 -28 -63 -28 -51 0
-183 43 -229 74 l-33 22 0 189 c0 130 -3 189 -11 192 -21 7 -71 -46 -95 -99
-19 -44 -23 -70 -23 -153 -1 -92 2 -104 29 -155 28 -50 41 -62 175 -147 210
-134 255 -181 286 -298 19 -69 18 -211 -2 -268 -21 -62 -83 -130 -147 -161
-64 -31 -167 -48 -222 -37 -87 19 -221 52 -248 63 -50 20 -100 89 -136 189
-18 52 -47 115 -63 142 -34 52 -33 82 4 119 19 19 28 20 112 14 107 -7 205
-29 217 -47 4 -8 13 -45 19 -84 22 -137 47 -184 88 -159 37 23 57 84 57 179 0
128 -21 162 -136 230 -184 107 -286 197 -335 295 -37 72 -45 206 -19 296 37
128 141 280 224 324 52 29 104 21 261 -40z m-3077 16 c154 -74 277 -278 321
-535 32 -191 17 -462 -35 -621 -69 -212 -168 -329 -311 -367 l-64 -16 -158 46
c-87 26 -176 57 -199 68 -99 51 -182 178 -229 349 -20 75 -23 108 -23 285 1
181 3 213 28 330 39 179 83 308 131 379 53 77 92 99 166 91 35 -3 73 0 105 10
79 23 197 15 268 -19z m697 -3 c89 -25 127 -45 136 -68 3 -8 -3 -43 -14 -77
-27 -85 -33 -217 -22 -499 18 -446 61 -679 126 -679 26 0 61 48 83 117 55 168
93 656 72 933 -6 81 -15 160 -21 175 -15 40 -12 80 9 106 17 21 27 24 78 22
66 -2 218 -44 240 -66 32 -32 23 -722 -12 -988 -46 -349 -140 -519 -289 -519
-38 0 -248 58 -386 107 -84 30 -125 96 -169 270 -65 258 -90 787 -51 1068 21
146 33 151 220 98z m3115 6 c39 -19 51 -30 56 -54 4 -16 7 -233 8 -480 1 -501
2 -495 -62 -495 -73 1 -232 92 -263 152 -12 24 -12 34 6 90 18 58 20 92 20
420 l0 357 23 22 c19 18 31 20 92 16 46 -2 87 -12 120 -28z m-43 -1151 c102
-39 119 -60 113 -141 -3 -34 -8 -106 -11 -161 -7 -113 -23 -143 -74 -132 -58
11 -186 67 -219 94 l-35 29 18 62 c9 34 16 78 15 99 -10 151 11 200 79 187 21
-4 72 -20 114 -37z"/>
<path d="M6465 12087 c-32 -17 -76 -48 -97 -68 l-38 -36 0 -216 c0 -141 4
-217 10 -217 6 0 31 19 56 42 102 94 222 422 188 512 -10 25 -53 19 -119 -17z"/>
<path d="M4286 12138 c-8 -13 -25 -50 -37 -83 -29 -80 -55 -115 -84 -115 -13
0 -27 5 -30 10 -12 20 -23 9 -38 -42 -32 -105 -39 -185 -34 -381 6 -211 21
-291 73 -386 43 -80 111 -105 159 -57 76 76 123 272 132 557 8 249 -16 428
-68 493 -25 32 -54 33 -73 4z"/>
</g>
</svg>
