<svg version="1.0" xmlns="http://www.w3.org/2000/svg"
 width="1239.000000pt" height="1664.000000pt" viewBox="0 0 1239.000000 1664.000000"
 preserveAspectRatio="xMidYMid meet">

<g transform="translate(0.000000,1664.000000) scale(0.100000,-0.100000)"
fill="#000000" stroke="none">
<path d="M6633 15182 c-10 -11 -47 -60 -82 -110 -34 -50 -116 -147 -180 -214
-64 -68 -161 -179 -216 -248 -164 -207 -426 -526 -890 -1085 -730 -878 -838
-1016 -833 -1062 3 -31 7 -32 200 -73 78 -16 127 -21 178 -18 l70 5 0 -26 c0
-14 -4 -64 -10 -111 -5 -47 -17 -294 -25 -550 -9 -256 -20 -500 -25 -544 -12
-118 -19 -123 -216 -152 -88 -13 -173 -23 -190 -24 l-31 0 -6 121 c-4 67 -13
133 -20 148 -11 23 -18 26 -62 26 -74 -1 -385 -84 -411 -111 -16 -15 -27 -48
-40 -125 -24 -137 -26 -139 -154 -139 -122 0 -135 9 -145 97 -15 135 -29 142
-238 107 -84 -14 -158 -31 -166 -38 -11 -12 -11 -34 -3 -122 6 -60 9 -110 7
-112 -2 -3 -49 -10 -105 -17 -98 -13 -146 -9 -174 14 -7 6 -39 68 -72 138 -32
70 -112 227 -176 348 -69 128 -114 223 -109 228 6 6 35 1 72 -12 108 -36 119
-30 119 73 0 103 108 772 164 1021 19 83 33 151 33 152 -2 1 -365 -49 -703
-97 -1 0 -5 -64 -9 -142 -4 -79 -13 -157 -20 -175 -14 -34 -20 -36 -135 -47
-30 -3 -76 -9 -101 -12 -61 -8 -76 8 -113 123 -16 48 -39 112 -52 141 -36 81
-43 82 -279 26 -110 -26 -201 -48 -203 -49 -1 -1 11 -82 27 -181 16 -98 26
-182 23 -186 -11 -11 -217 -78 -239 -78 -31 0 -69 35 -104 98 -56 98 -148 231
-168 242 -30 15 -49 13 -172 -24 -63 -19 -140 -42 -171 -50 -49 -14 -58 -20
-58 -40 0 -12 40 -110 88 -217 49 -107 120 -264 158 -349 37 -85 90 -193 116
-240 26 -47 76 -136 110 -198 71 -131 79 -135 171 -103 91 33 388 110 420 111
18 0 39 -10 58 -29 27 -27 29 -35 29 -106 0 -45 -20 -195 -51 -373 -82 -487
-87 -515 -129 -807 -65 -444 -154 -969 -240 -1400 -27 -137 -72 -388 -100
-556 -66 -408 -82 -481 -181 -834 -21 -77 -50 -192 -64 -255 -18 -82 -35 -131
-59 -170 -26 -43 -40 -87 -65 -205 -18 -82 -39 -180 -48 -217 -16 -65 -15 -69
3 -89 15 -17 26 -19 64 -15 25 4 144 19 265 35 121 17 292 37 380 45 331 32
954 46 1465 32 281 -8 654 4 1253 40 l107 7 0 -2232 0 -2231 70 0 70 0 0 2234
0 2233 63 6 c34 3 172 16 307 28 135 11 255 25 268 30 43 17 45 40 36 459 -15
750 -10 899 37 1185 68 417 138 591 309 778 123 134 397 346 525 406 182 86
460 124 638 86 37 -8 95 -29 128 -46 146 -78 309 -305 382 -534 45 -136 99
-451 129 -735 18 -175 17 -897 -2 -1090 -8 -80 -15 -170 -15 -200 l0 -55 39
-3 c22 -2 67 1 100 7 34 6 176 20 316 31 313 25 371 31 780 80 179 22 415 47
525 55 398 30 1077 110 1275 150 69 13 190 29 270 35 80 6 285 26 455 45 171
18 354 36 408 40 54 3 123 15 154 26 31 10 156 33 277 49 122 17 229 33 238
36 34 10 30 41 -21 143 -28 55 -66 151 -85 213 -40 134 -192 770 -235 983 -87
436 -319 1768 -361 2070 -43 319 -180 1395 -180 1422 0 22 4 23 70 23 40 0 86
6 106 15 43 18 62 57 202 416 55 140 139 343 188 452 68 153 85 202 78 215 -7
11 -60 27 -160 49 -166 36 -210 40 -240 18 -12 -8 -58 -68 -104 -134 -86 -126
-133 -176 -175 -187 -43 -11 -116 6 -141 31 -22 22 -24 32 -24 123 0 130 -6
139 -86 124 -32 -6 -100 -14 -151 -18 -66 -5 -96 -11 -106 -23 -9 -10 -17 -52
-21 -116 -4 -55 -9 -125 -12 -157 l-6 -56 -62 -8 c-33 -4 -81 -8 -106 -9 -25
-1 -70 -6 -101 -10 -78 -11 -80 -9 -195 262 -25 59 -63 54 -308 -38 -139 -53
-176 -77 -176 -118 0 -14 22 -64 50 -110 46 -79 106 -230 211 -530 58 -169 85
-199 189 -210 l55 -6 3 -49 c4 -68 -142 -658 -172 -693 -21 -24 -27 -24 -254
-35 -227 -11 -234 -10 -260 9 -24 18 -28 28 -33 99 -6 86 -36 166 -69 184 -26
14 -385 13 -412 -1 -20 -11 -20 -17 -14 -124 9 -150 16 -145 -200 -145 -141 0
-163 2 -177 18 -16 17 -67 179 -67 213 0 10 -11 30 -23 45 l-24 27 -158 -17
c-87 -10 -163 -20 -169 -22 -25 -10 -36 -49 -47 -176 -6 -73 -15 -141 -20
-150 -16 -29 -43 -38 -147 -44 l-99 -7 -17 74 c-46 203 -132 805 -143 1006 -5
92 -3 113 8 117 8 3 100 13 204 22 105 9 196 21 203 26 25 21 10 55 -96 217
-137 209 -246 395 -429 731 -80 146 -162 293 -184 327 -49 75 -111 211 -277
609 -178 427 -216 531 -246 669 -17 81 -30 124 -42 132 -24 17 -31 16 -51 -5z
m-146 -2282 c90 -40 208 -195 261 -342 55 -153 74 -290 92 -658 26 -537 28
-615 16 -640 -11 -25 -14 -25 -161 -31 -98 -4 -212 -18 -330 -38 -99 -18 -233
-39 -299 -47 -104 -13 -121 -13 -134 0 -19 19 -26 214 -25 721 1 321 4 408 18
489 41 239 140 438 251 507 92 57 233 75 311 39z m3802 -2476 c136 -68 247
-334 291 -698 9 -75 9 -92 -5 -112 -8 -13 -17 -24 -19 -24 -1 0 -63 -11 -137
-25 -586 -107 -668 -116 -726 -79 -19 12 -23 23 -23 69 0 127 44 335 100 469
75 181 240 373 355 414 52 18 108 14 164 -14z m-7279 -654 c107 -55 248 -353
285 -604 17 -114 14 -140 -13 -155 -9 -5 -156 -12 -327 -15 -170 -4 -359 -11
-419 -17 -60 -5 -110 -9 -111 -7 -8 8 106 432 132 495 37 88 108 190 163 233
113 89 207 112 290 70z"/>
</g>
</svg>
