<svg version="1.0" xmlns="http://www.w3.org/2000/svg"
 width="1239.000000pt" height="1664.000000pt" viewBox="0 0 1239.000000 1664.000000"
 preserveAspectRatio="xMidYMid meet">
<g transform="translate(0.000000,1664.000000) scale(0.100000,-0.100000)"
fill="#000000" stroke="none">
<path d="M6607 15153 c-84 -122 -156 -210 -264 -324 -65 -69 -149 -165 -188
-214 -114 -148 -390 -485 -934 -1140 -618 -744 -565 -680 -689 -844 -83 -108
-102 -139 -102 -167 0 -27 5 -35 23 -39 184 -43 317 -63 371 -56 l58 8 -6 -36
c-10 -67 -25 -305 -31 -506 -10 -341 -25 -678 -31 -723 -12 -82 -25 -88 -233
-117 -101 -14 -186 -23 -188 -21 -3 2 -8 57 -13 123 -12 169 -18 180 -95 174
-46 -4 -344 -80 -376 -97 -39 -20 -55 -55 -70 -153 -18 -119 -25 -125 -143
-129 -89 -4 -96 -2 -119 20 -19 19 -26 40 -32 93 -8 81 -34 115 -87 115 -60
-1 -297 -46 -314 -60 -14 -12 -15 -29 -9 -126 l7 -111 -34 -7 c-18 -4 -71 -9
-118 -13 -81 -5 -87 -4 -116 20 -18 15 -42 55 -59 94 -34 82 -116 246 -225
447 -79 147 -92 183 -68 174 7 -3 44 -15 82 -28 64 -21 70 -21 81 -6 7 9 16
56 19 104 7 91 82 590 115 772 11 58 34 168 51 244 17 76 29 140 27 143 -4 3
-693 -86 -704 -92 -1 0 -7 -73 -13 -160 -8 -113 -16 -165 -26 -176 -9 -10 -40
-19 -82 -23 -37 -4 -93 -12 -125 -18 -77 -15 -84 -7 -141 157 -48 137 -75 175
-122 175 -13 0 -110 -21 -214 -46 -138 -33 -190 -50 -190 -60 0 -8 12 -87 26
-175 14 -88 23 -166 21 -173 -7 -18 -186 -76 -234 -76 -49 0 -53 4 -153 171
-77 128 -114 169 -152 169 -16 0 -91 -18 -166 -39 -75 -22 -149 -42 -164 -45
-60 -13 -57 -27 68 -303 208 -461 229 -506 306 -643 129 -229 123 -220 160
-220 18 1 58 10 88 21 58 21 321 92 380 103 25 4 44 1 66 -13 27 -16 33 -28
39 -69 9 -67 4 -106 -70 -542 -36 -206 -85 -517 -110 -690 -56 -391 -157 -980
-235 -1375 -33 -165 -79 -426 -104 -580 -54 -336 -79 -460 -147 -710 -70 -258
-96 -360 -109 -426 -6 -31 -27 -83 -46 -115 -29 -49 -42 -89 -74 -244 -21
-102 -44 -198 -49 -214 -14 -35 0 -63 35 -72 14 -4 132 7 263 25 601 80 964
95 1991 81 253 -3 1003 25 1208 45 l52 5 0 -2235 0 -2235 75 0 75 0 0 2240 0
2240 43 0 c23 0 130 9 237 19 107 11 230 23 273 26 112 10 113 12 122 180 4
75 5 216 1 313 -18 523 -19 765 -1 932 19 188 63 441 100 579 77 286 243 489
610 746 187 131 326 175 576 182 182 6 237 -1 326 -43 160 -76 348 -350 413
-603 26 -103 73 -377 97 -562 15 -122 18 -220 18 -644 0 -462 -7 -633 -31
-753 -4 -19 1 -35 13 -51 l20 -24 109 16 c60 9 201 24 314 32 263 20 439 38
785 81 154 19 391 43 527 54 235 19 599 57 954 100 89 11 231 33 315 49 85 16
224 34 310 40 86 6 235 20 330 32 262 30 457 49 524 49 36 0 82 8 115 21 33
13 152 35 294 55 132 19 245 39 253 45 21 18 15 47 -27 123 -57 104 -101 244
-184 593 -138 572 -171 739 -370 1883 -113 648 -112 643 -221 1490 -46 366
-87 686 -91 713 l-6 47 84 0 c60 0 90 4 106 16 31 22 77 117 167 349 96 247
155 391 234 564 34 74 61 144 61 157 0 27 -12 31 -208 74 -79 17 -153 28 -167
24 -32 -8 -65 -46 -155 -178 -76 -112 -115 -150 -166 -159 -46 -9 -106 9 -131
38 -21 23 -23 37 -23 124 0 125 -2 128 -105 112 -42 -6 -102 -11 -135 -11 -69
0 -104 -11 -115 -37 -4 -10 -12 -84 -17 -165 -9 -111 -15 -148 -25 -153 -8 -3
-47 -7 -86 -10 -40 -3 -102 -11 -139 -17 -58 -9 -70 -9 -92 5 -25 17 -80 122
-111 212 -21 63 -41 85 -76 85 -35 0 -322 -99 -380 -131 -39 -21 -44 -29 -47
-63 -3 -30 4 -51 31 -95 68 -111 85 -151 203 -489 35 -101 72 -194 81 -207 25
-34 80 -62 136 -70 l47 -7 0 -67 c0 -49 -19 -141 -75 -361 -42 -162 -82 -302
-91 -310 -18 -18 -137 -28 -361 -29 -150 -1 -153 -1 -168 23 -12 18 -14 37 -9
74 5 44 2 60 -24 116 -17 35 -40 69 -51 76 -13 6 -94 12 -212 13 l-191 2 -19
-24 c-20 -25 -21 -72 -4 -186 9 -58 -4 -63 -171 -71 -84 -4 -164 -4 -178 0
-33 8 -48 39 -80 166 -15 62 -33 110 -43 118 -9 6 -35 12 -58 12 -51 0 -285
-29 -297 -37 -22 -13 -36 -74 -43 -178 -4 -60 -13 -124 -20 -142 -12 -28 -18
-32 -67 -37 -29 -4 -80 -8 -112 -9 l-59 -2 -14 50 c-47 178 -175 1134 -152
1135 88 6 399 41 412 45 16 7 22 23 18 53 -1 7 -48 83 -105 170 -131 200 -241
387 -399 677 -69 127 -145 263 -169 304 -24 41 -58 100 -75 130 -40 68 -119
246 -270 610 -157 375 -197 487 -223 616 -31 158 -64 184 -123 98z m-110
-2261 c58 -30 155 -141 201 -230 80 -154 112 -305 131 -617 13 -202 31 -623
31 -717 0 -94 -5 -98 -143 -98 -113 0 -166 -7 -467 -54 -261 -42 -292 -46
-310 -36 -14 8 -18 36 -23 197 -13 351 -8 889 8 993 41 270 145 474 274 540
104 52 221 61 298 22z m3758 -2453 c56 -15 143 -107 185 -193 67 -141 107
-290 134 -497 18 -140 12 -152 -81 -169 -693 -122 -758 -130 -804 -87 -20 19
-21 26 -15 106 25 308 124 547 301 727 110 111 181 140 280 113z m-7230 -680
c121 -81 275 -461 275 -680 0 -47 -4 -60 -19 -69 -11 -5 -89 -10 -178 -10
-196 -1 -622 -17 -655 -25 l-25 -6 52 208 c29 114 62 233 74 264 52 136 160
267 266 320 51 26 69 30 117 27 38 -3 68 -12 93 -29z"/>
</g>
</svg>
