<svg version="1.0" xmlns="http://www.w3.org/2000/svg" width="190" height="288" viewBox="0 0 1105 1646"><title>Κτήνος που κρατάει λουλούδια</title><path d="M541 452c-5.2.5-16.9 2-26 3.4-9.1 1.4-29.1 4.1-44.5 6-15.4 2-30.3 4.2-33.1 5.1-7.9 2.3-8.8 3.9-8.5 14.6.1 7.7-.1 9.4-1.9 11.6-1.5 2-2 4-2 9.1 0 3.6-.9 9.8-1.9 13.6-1.5 5.4-2.1 12-2.5 27.6-.3 11.3-1.3 26.8-2.2 34.5-.8 7.7-1.8 25.4-2 39.4-.5 29.5-.6 29.8-9.2 35.3-8 5.2-12.4 6.8-18.1 6.8-6.9 0-10.3 3-13.2 11.8-4.7 14.3-8.3 19.4-18.5 26.3-8 5.4-11.1 8.2-24.2 22.3-6.6 7.1-8.2 9.5-8 11.5.4 3.1 3.2 3.9 5.8 1.6 1.3-1.2 3.3-1.5 7.6-1.3l5.9.3-.4 6.3c-.3 6.2-.2 6.4 2 6 1.4-.2 2.9-1.4 3.7-3.1 1.8-3.7 5.4-5.4 8.5-4 1.3.6 3.8 3.9 5.6 7.2 2.6 5 3.7 6.2 5.4 5.9 1.9-.3 2.2-1 2.2-5 .1-7.7 4.5-10.9 9.6-6.9 1.3 1 3.8 2.6 5.6 3.5 1.8.9 3.8 2.8 4.5 4.3 1.5 3.2 3.6 3.6 5.2 1.1.8-1.3.6-3.1-.7-7-1.7-4.9-1.7-5.6-.2-9.8 1.5-4.2 1.5-4.5-.5-7-1.1-1.4-3.3-4.2-4.8-6.3-1.5-2.2-4.1-5.5-5.8-7.5-4.3-5.2-5.4-7.5-5.4-12 0-2.6.6-4.5 2-5.7 1.1-1 4-5.3 6.4-9.5 5.7-9.8 10-13.6 16.3-14.6 2.6-.3 5.4-1.1 6.1-1.7.7-.5 1.4-.8 1.6-.6.2.2.8 17 1.5 37.4 1.8 59.4 4.8 71.4 19.2 78.2 4.8 2.3 26.1 8.3 37.7 10.8 4 .8 10.8 1.5 15.1 1.5 6.2 0 8.1.4 9.4 1.7 2.4 2.8 9.7 37.7 9.7 46.5 0 4.1.5 10 1.1 13.1.7 3.2.9 7.9.5 11.1-.7 5.2-.9 5.6-3.4 5.6-1.5 0-5.2-1.2-8.2-2.6-7.1-3.3-15.2-5.4-21-5.4-2.5 0-7.3-.9-10.6-1.9-5.2-1.5-8.1-1.7-17.7-1.2-9.8.5-12 .9-14.6 2.8-1.7 1.3-3.4 2.3-3.8 2.3-1.2 0-14.9 14.1-16.2 16.7-1 2-.8 2.3 2.6 2.9 2 .4 10 .4 17.7.1 8.7-.4 22.8 0 36.6 1 23.9 1.6 36.8 1.2 42.7-1.2 3.5-1.5 3.6-1.6 2.8-5.8-1.4-7.5-.9-12.2 2-18.1l2.8-5.7-.5-29-.6-28.9H538v712h14V798.3l6.1-.7c10.9-1.1 21.6-.7 23.2.8 1.1 1.1 1.5 8.6 2.1 38.1.7 40.4.7 40.1 7.3 48 4.2 5 5.4 5.4 9 2.5 2.5-1.9 4.1-2 43.7-2 43-.1 46-.4 50.7-4.6 1.6-1.4 1.7-2 .7-3-2-1.8-41.2-17-51.6-20-11.7-3.3-18.1-3-27.2 1.2-3.6 1.7-9.4 5.5-12.9 8.4-5.9 4.9-6.4 5.2-7.5 3.4-2.3-4-2.9-8.4-3.3-23.9-.5-20.3 1.7-33.1 7.5-44.5 4.2-8.4 6.8-10.3 16.3-11.9 18.5-3.3 24.4-4.7 42.9-10.6 12-3.8 21.2-7.3 22.4-8.5 1.9-1.9 2-3.4 2-38.3.1-33.2.3-36.5 1.9-39 1-1.6 2.9-3.2 4.3-3.7 3.1-1.2 40.4-1.3 42.2-.1 1 .6 1 1-.3 2.1-2.8 2.3-1.7 4.8 3.5 7.6 2.8 1.5 5 3.2 5 3.8 0 .5-1.4 2.5-3.1 4.2-4.1 4.2-3.4 6.2 2.3 6.6 6.2.4 6.7 2.5 4.5 19.5-1.5 11.7-2.1 14.1-4.4 17.2-1.5 2-3.3 4-4.1 4.4-1.9 1.2.3 3.7 3.3 3.7 2.9 0 7-4.8 10.4-12 2.2-4.8 2.6-7.3 3-19.7l.6-14.2 3.1-3.3c6.1-6.3 7.9-12.3 6-19-1.9-6-.5-8.9 4.7-10.1 2-.5 3.7-1.3 3.7-1.8 0-.4-1.1-2.5-2.5-4.5s-2.5-4.1-2.5-4.6 1.1-1.3 2.5-1.8c2.9-1.1 3-1.2.9-5.1-2.5-5-.4-6.5 10.9-7.2 11.9-.9 20.5-3 29.4-7.2 13.4-6.5 23.5-18.5 15.5-18.5-1.6 0-5.5-.9-8.7-2-8.8-3-15-2.7-21.1 1.2-2.7 1.7-9.2 5.1-14.4 7.5-8.2 3.9-10 4.4-13.8 3.8-2.6-.4-4.8-.2-5.6.5-2.6 2.1-2.6-1.9-.1-6.7 1.4-2.5 2.5-6.1 2.5-7.9 0-1.9.3-3.4.7-3.4.4 0 2.5 1.2 4.6 2.7 5.5 3.8 9.5 3.6 19.2-1.2 9.5-4.7 10.2-6.4 5.6-12.7-4.4-6-4.1-8 1.9-12.5 11.1-8.3 12.5-22.3 2.7-27.1-2.2-1.1-3.2-1-6.3.3-6.1 2.5-6.9 2.1-8.3-3.9-.9-4.3-2.1-6.3-5.1-9-5.6-5-7.9-5.3-15.9-2.2-7.7 3-10.2 5.3-12.6 11.4-2.4 6-5.4 7.3-16.6 7.1-8.6-.1-9.2 0-12 2.7-3.8 3.6-4.3 5.7-2.5 9.3 2.7 5.1 2 9.2-2.6 16.1-3.4 5-4.3 7.2-4.2 10.5.2 7.5 5.8 12.4 12.6 11.1 9.6-1.9 13.8-1.9 16 0 1.9 1.7 2 2.6 1.3 9.4-.4 4.1-.6 9.3-.5 11.5.1 2.2-.2 6.6-.5 9.8-.6 5.1-1.1 6-3.3 6.8-1.4.6-4.5 2.8-6.9 4.9l-4.3 4h-18.9c-22.5 0-22.2.2-25.3-11-1.8-6.6-2.1-10.7-2.3-33-.2-17.4-.8-29.5-2-38-.9-6.9-2-22-2.5-33.5-.5-15.6-1.1-22-2.3-25-1.3-3.2-1.6-8.1-1.7-24.6 0-14.3-.4-22-1.4-25.1-1.1-3.8-1.1-4.8 0-6.3 3.8-5.1.5-8.8-13.8-15.5-16.5-7.7-20-8.2-65.3-8.5-22-.2-44.3.1-49.5.5zm-25.7 111.4c11.8 5.7 18.5 17.2 17.5 30.1-.9 10.1-7.7 20.3-16.6 24.6-6.9 3.4-19.8 3.4-26.2 0-7.2-3.8-10.7-6.9-12.3-10.9-4.7-11.9-1.8-33 5.6-41.1 4.2-4.6 9.4-6.2 18.3-5.8 6.3.2 9.3.9 13.7 3.1zm100.1-1.8c1.2 3.2.4 4.5-7.4 12.8-6.7 7.2-8 9.1-8 11.9 0 4.4 3 8.2 12.5 15.9 4.3 3.4 8 6.8 8.2 7.4.5 1.6-4.3 7.1-9.1 10.6l-4 2.9-11.1-11.1-11.1-11.1-8.7 11.8c-4.8 6.5-9.7 13.3-10.8 15.1-1.9 3.2-2.2 3.3-6.2 2.7-4.9-.8-7.7-3-7.7-5.8 0-1.3 5.1-7.2 13.5-15.7 9.1-9.1 13.5-14.3 13.5-15.8 0-1.2-3.6-7-8-12.8-4.4-5.9-8-11.5-8-12.6 0-3.8 11.8-8.5 14.5-5.7.7.8 3.1 4.7 5.2 8.8 2.2 4.1 4.5 7.9 5.3 8.4 1.1.6 4.1-1.6 12-9.2 10.4-10 14.1-12 15.4-8.5zm-165.6 40.3c.2 10 .4 11.1 2.1 11.1 1 0 2.4-.7 3.1-1.5 1.4-1.6 4.6-2 5.4-.7.3.5-.8 2.7-2.3 4.8-4.5 6.1-5.4 10.8-4 21.4l1.2 9 3.3-.6c3.1-.6 3.4-.4 3.4 1.7-.1 1.6-1.4 3.3-4 5.1l-4 2.8v7.6c0 8.9 1.3 14 4.6 18 1.7 2.2 2.6 2.6 3.7 1.9.8-.6 2.6-1.9 4.1-2.9 2.1-1.5 3-1.6 3.9-.7.9.9.9 1.6-.1 2.9-2.6 3.5-4.3 8.6-3.8 10.8.4 1.3 3.6 4.5 7.2 7.3l6.6 4.9 4.5-1.5c4-1.4 4.6-1.4 6 0 1.3 1.3 1.3 1.8.1 4.3-2.6 5.2-1.6 6 11.7 10.4 17.2 5.6 22.5 5.3 22.5-1.4 0-1.9.8-4 1.8-4.9 1.6-1.5 2-1.5 4-.1 1.5 1 2.2 2.5 2.2 4.8 0 5.5 1.2 5.9 14.8 5.7l8.2-.1v-4.5c0-3.8.3-4.5 2-4.5s2 .7 2 4c0 2.9.4 4 1.5 4 3.1 0 8.6-3 11.2-6 1.4-1.7 4.8-4.2 7.6-5.6 10-5.1 11.7-9.3 7.2-17.3-2.4-4.1-3.2-7.1-1.9-7.1.3 0 2 1.1 3.8 2.5 1.8 1.4 4.2 2.5 5.4 2.5 2.4 0 8.1-4.7 11.3-9.2 2-2.7 2-3 .5-4.7-.9-1-1.6-2.5-1.6-3.5 0-1.4.6-1.6 2.8-1.1 2.6.5 3.4-.1 9.5-7.4 7.3-8.5 7.6-10.1 4-16-1.9-3 .1-4.7 3.1-2.5 3.9 2.7 6.8 1.7 10.2-3.4 1.8-2.8 3.8-4.7 4.9-4.7 3 0 2.8 2.1-.5 5.6-5 5.5-4.9 7.1.9 13.5 2.8 3.1 4.9 6 4.5 6.5-1 1.6-3.5 1-6.7-1.7-2.5-2.1-3.8-2.5-6.6-2-2 .3-3.7 1-4 1.7-.2.6-3 4.4-6.3 8.5-6 7.4-6 7.5-3.9 9 1.1.8 2.1 2 2.1 2.5 0 1.9-3.1 2.1-5.1.3-2-1.8-2.1-1.8-3.5.1-.8 1.1-3.4 5.7-5.7 10.2-4.5 8.8-4.5 10.5.1 12.9 3.2 1.6 6.2 5.9 6.2 8.8 0 1.4-.4 2.6-.8 2.6-.5 0-3.4-1.6-6.6-3.5-3.2-1.9-6.2-3.5-6.7-3.5s-.9-.4-.9-.9c0-1.9-4.7.4-9.5 4.6-2.7 2.4-6.1 4.6-7.4 5-1.4.3-4.5 2.1-6.9 4-2.5 1.9-5.8 3.7-7.3 4-2.5.5-2.9 1-2.9 3.8 0 1.7-.3 3.5-.7 3.8-1.2 1.3-3.3-1.5-3.3-4.4 0-3.4-.9-3.5-8.3-1.4-2.9.8-8.3 1.9-12.1 2.4-7.3 1-8.6 2-8.6 6.3s-1 6.1-2.6 4.7c-.9-.7-1.4-3.2-1.4-7 0-7.1-.3-7.3-13.4-8.8-6.8-.8-9.9-1.7-12.8-3.6-4.8-3.2-8.8-4-11-2.3-1 .7-2.8 3.3-4.1 5.8-2.7 5.1-5.9 6.4-7.7 3-.9-1.6-.7-2.6.9-4.8 3.7-5.3 3.2-11.4-1.3-14.4-16.2-11-15.5-10.7-20.9-8.5-1.8.8-4.4 1.7-5.9 2.1-2.7.6-2.8.5-2.8-3.2 0-4.3 1.4-6.2 4.7-6.2 3 0 2.9-1-.6-11.7-1.6-4.8-3.3-11.1-3.7-13.8-.9-6.7-2-8-5-6-2.1 1.3-2.3 1.3-2.9-.5-.4-1.3.3-3.2 2.3-5.7 1.6-2.1 3.5-5.3 4.1-7.2 1.2-3.7 1.5-17.1.4-21-.6-2.3-.9-2.3-7-1.8-5.1.5-6.5.3-7-.9-.7-1.9 1.9-4.7 7.3-7.9 7.1-4.2 9.2-10 6.8-18.7-2-6.9-1.5-9.1 1.8-7.9 2.2.8 2.3 1.4 2.6 12zm320-2.7c.6.6 1.2 2.6 1.2 4.4 0 3.8-2.4 5.9-8 6.9-2.9.5-4.2.1-7.7-2.5-6.1-4.5-5.6-6.5 2.3-9.5 4-1.5 9.9-1.1 12.2.7z"/><path d="M498.4 584.4c-4.6 4.6-4.4 8.6.9 14.3 1.5 1.7 3.2 2.3 6.4 2.3 5.4 0 7.8-2.2 8.7-8 .6-4.1.4-4.6-3.1-8.2-4.8-5-8.2-5.1-12.9-.4z"/></svg>