<svg version="1.0" xmlns="http://www.w3.org/2000/svg" width="190" height="288" viewBox="0 0 1263 1646"><title>Ιππότης με σπαθί</title><path d="M735.3 245.5c-2.4 1.7-4.3 7-4.4 12.5 0 4.2-2 10.2-3.5 10.7-.5.2-3.6-5.1-6.8-11.7-3.2-6.6-6.2-11.7-6.6-11.5-1.7 1.1-5.1 17.1-5.9 27.9-.5 6.4-.7 18.4-.4 26.8.8 26.4 2.8 28.7 23.9 25.6 6.4-.9 9.7-.9 15.2.1 11.3 2 11.5 2.6 3.9 9.8-7.9 7.3-14 10.4-27 13.3-5.4 1.2-12.5 3.3-15.9 4.6-10.4 4.3-32.7 17.4-35.2 20.8-2.3 3.1-4.6 8.7-4.6 11.2 0 2.6 4.2 2.5 13.1-.2 8.6-2.6 9.1-2.7 12.4-1.1 3.2 1.5 3.5 2 3.7 6.4.5 15.8-.3 16.8-15.2 19.8-16.9 3.3-34.4 9.6-54.4 19.7-10.8 5.4-15.3 8.6-26.7 19-11.2 10.2-15.8 16.8-23.2 33.4-3 6.5-8 16.9-11 23.1-10 19.9-12.6 27.1-17.3 48.6l-1.7 7.7 2.3 2.5c4 4.2 7.6 3.4 16.6-3.9 4.3-3.5 10.7-9.7 14.1-13.9 8.2-9.9 19.2-19.4 40.9-35.2 9.8-7.1 22.5-16.8 28.1-21.5 6.1-5 13.8-10.3 18.9-12.9 11.5-5.8 12.9-5.4 16.1 4.7l2.3 7.2-4 3.6c-5.9 5.3-6.8 9.5-4.1 18 1.2 3.8 2.4 7.4 2.7 8 .3.7-2.2.6-7.8-.3-4.6-.8-10.2-1.5-12.5-1.5-8.1-.2-11 5.5-9.1 17.9.6 4.1.8 7.6.5 7.9-.3.3-6.1-.1-12.9-1-18.6-2.4-16.7-3.5-17 9.5l-.3 11.1-5.9 2.4c-10.8 4.4-12.2 7.1-10 18.7 2.3 11.9 1.6 12.7-20.5 22.7-15.5 7-18.3 8.8-20.6 13.6-1.7 3.5-2.3 16.3-.9 18.5.3.6 2.2-1.3 4.2-4.3 8.5-12.7 19.9-20.1 32.6-21.3 3.8-.3 8.5-1.3 10.5-2.1 5.2-2.2 19.1-11.5 19.1-12.8 0-.6-.6-3.1-1.3-5.6-2.2-7.5-1.8-7.9 7.3-7.3 7.5.6 7.9.5 10.5-2.1 2.7-2.7 2.7-3 2.1-10.5l-.7-7.8 4.3-1.6c2.4-.9 7.2-2.3 10.8-3.2 12-3.1 14.5-5.9 13.8-15.6-.4-7.1 1.8-8.7 14.2-10.2l9.4-1.2 1.7-6.5c2.1-8.4 3.7-11.6 6.5-13.5 2.6-1.7 15-4.6 15.9-3.7 1.4 1.4.3 9-1.8 12.4-1.2 2-3.5 5.7-5.1 8.2-3.5 5.8-4.5 10.1-4.6 19.6-.1 26.3-6.6 45.9-21 63-3.9 4.5-10.3 13-14.4 18.9-9.2 13.4-15.4 20.2-22.5 25-7.7 5.3-11.5 7.1-32.1 15.5-9.8 4-20.5 8.8-23.7 10.7-6.3 3.7-19.3 16-19.3 18.2 0 1.1 2.6 1.8 9.8 2.7 5.3.7 10.3 1.6 11 1.9 1.9 1-5.2 11.5-12 17.7-3.1 2.8-10.5 8.4-16.5 12.5l-10.8 7.4-26.3.3-26.2.3-2.2 3.3-2.2 3.3-4.5-2c-13-5.9-28.6 1.2-28.6 12.8 0 5.3 3.6 9.6 10.2 12.1 7.1 2.7 11.2 1 20.8-9.1l8-8.3 12.5-1.7 12.5-1.8 5.9 2.5 5.8 2.5-3.3 2c-1.9 1.1-7.7 4.4-12.9 7.3-20.3 11.4-38.6 23.6-46 30.5-11.8 11.2-21.2 19.1-39 32.6-9.1 7-21.4 16.8-27.5 21.9-6 5-16.4 13.1-23 17.8-15.9 11.5-23.1 17.6-34.5 29.2-11.9 12.2-23.4 20.7-36.9 27.3-11.5 5.6-16.4 9.8-23.8 20.4l-4.2 6.1 5 .6 5 .7 6.7-6.9c5.7-5.8 8.5-7.7 18.7-12.6 18.8-9 39.3-21.1 49.1-28.7 12.4-9.8 28.6-20.6 51.4-34.4 10.7-6.4 23.7-14.5 29-17.8 5.2-3.4 18.5-11.2 29.5-17.5 24.8-14.2 37.1-22.1 49.5-32.2 10.7-8.7 17.7-13.2 23.1-14.9 5.6-1.8 7.3-4.2 6.5-9.4-.7-4.3-.6-4.5 3.2-7l4-2.6.6 3.7c2 12.3-.6 27-6.3 35.9-4.1 6.4-7.7 9.5-18.8 16.6-4 2.6-8 5.8-8.9 7.2-1.6 2.5-1.6 3-.1 7.8.9 2.9 2.9 7.1 4.3 9.4l2.7 4.1 6.2-1.8c11-3.1 11.3-3.4 17-18.5 2.1-5.5 6.1-14.7 9-20.5 2.9-5.8 6-13 6.9-16 2.1-6.9 2-19.1 0-28.2l-1.6-7.1 6.8-6.1c3.8-3.3 10.3-9.3 14.5-13.3 4.1-4 8.3-7.3 9.3-7.3.9 0 3.6 1 5.9 2.1 3.3 1.7 4.7 2 6.9 1.1 3.2-1.2 4.9-.2 12.9 7.5l5.6 5.4 2.2-5.2c5.5-12.7 5.2-23.7-1-35.7-2.1-4.1-3.9-7.6-3.9-7.7 0-.1 1.9-.7 4.3-1.4 2.3-.7 5-1.5 5.9-1.7 1.6-.5 1.7 0 1.2 3.9-.9 6.1.9 10.8 5.7 15.1 3.3 2.9 4.8 3.6 8.2 3.6 10.7-.1 15.2-2.9 18.6-11.6 1.1-3 3.2-7 4.6-8.8 3.4-4.5 4-8.4 1.8-12.2-8.1-13.9-8.4-14.2-17.6-15.5-7.5-1.1-7.8-1.3-6-2.9 1-.9 9.3-8.7 18.4-17.3l16.7-15.7.6 10.3c1.5 22 5.4 45.1 9.5 56 1.7 4.4 1.3 10-1.5 22.6-4 17.7-9.1 33.6-13.3 41.5-4.1 7.5-7.1 15.9-9.6 26.7-1.5 6.6-5.7 37.1-5.1 37.6.1.2 5.6-3.7 12.2-8.6l11.9-9 2.1 6.7c1.1 3.7 2.8 7.9 3.8 9.4 1.7 2.6 8.4 7.5 9 6.7.1-.2 1.1-2.6 2.1-5.3.9-2.6 3.6-7.1 5.9-10 4.9-5.9 24.6-22 25.6-20.9 2.1 2.3 4 15.1 4 26.5 0 12.9 2.4 49.6 3.5 54.1.5 2 .1 3.4-1.9 5.8-3.1 3.6-3.4 8.7-1.1 16.3.8 2.7 1.5 7.5 1.5 10.7 0 6.5.9 7.5 8.3 9.9 2 .6 3.7 1.5 3.7 1.8 0 2.4-5.5 15.2-6.5 15.2-.7 0-3.1-.6-5.3-1.4-10.8-3.8-29.1-6.8-53.2-8.5-7.5-.6-23-2.4-34.5-4.1-27.1-4-43.3-4.9-73.7-4.1-24.7.6-24.8.6-27.3 3.1-1.3 1.4-2.8 4-3.1 5.9l-.7 3.4 6.4-.6c5.7-.4 7.2-.1 13.9 2.9 5.4 2.4 11.8 4 22.5 5.9 8.3 1.4 30.1 5.5 48.6 9 30.3 5.9 34.8 6.5 46.1 6.5 13.3 0 22.7 1.7 32.8 6.1 4.2 1.8 5 2.5 3.8 3.3-.8.6-12.3 7-25.6 14.1-13.2 7.2-23.8 13.3-23.4 13.6 1.2 1.1 10 2.9 14.1 2.9 2.3 0 8.1-1.3 12.9-2.9 4.9-1.7 12-3.7 15.8-4.6 7.4-1.7 34-6.5 36.1-6.5 1.1 0 1.3 46.5 1.3 242v242h14l.2-243.2.3-243.2 10.5-2.2c5.8-1.2 15.7-3.6 22-5.2 6.3-1.7 15.1-3.8 19.5-4.6 11.8-2.3 52.8-8.3 62-9.1 10.4-.9 11-1.1 12.3-4.1 2.7-5.9.2-10.4-5.7-10.4-5.1 0-9.6-5.1-11-12.5-.7-3.3-2.1-8.9-3.2-12.4-3.3-11.2-2.1-15.8 5.6-21.1 2.5-1.7 5.3-4.2 6.1-5.6 1.9-2.9 3.5-18.9 2-20.4-.6-.6-2.9-1-5.3-1H907l-7.5-15.3c-8.4-17-9.7-22-11.5-41.9-.6-7-1.7-14.8-2.4-17.5-.7-2.6-1.9-6.8-2.6-9.3-.8-3-1-6.5-.6-10.2l.7-5.8 5.2 2.6c2.9 1.5 8.3 4.4 12 6.6 8.6 5 16.7 7.8 22.7 7.8h4.7l3.3-7.1 3.3-7.1-.6-22.2c-.6-27.8-1.7-32.2-16-66.3-14.8-35.2-20.8-51.3-26.6-70.9-5.8-19.9-7.4-24-13.7-36.6-11.1-22.2-25.1-41.8-44-61.8-6.6-6.9-17.2-18.5-23.7-25.8L797.8 481l6-8.4c12.9-18 19.2-31.8 19.2-42.1 0-3.4.5-4.7 2.2-5.9 2.6-1.8 3.8-2 3.8-.6 0 .5.9 3.4 2.1 6.5 1.5 3.9 2.9 6 4.9 7 3.1 1.6 7.5 2 6.6.7-.2-.4-1.2-5-2.1-10.2-4.9-28.4-17.6-49.7-38.8-65.1-10.4-7.6-12.6-9.8-13.3-13.6-.8-4.3 1.4-12.3 3.3-12.3 2.3 0 23.5 10.4 29.8 14.5 7.5 5.1 15.6 12.5 20.1 18.6 2 2.7 4 4.9 4.4 4.7.4-.2 12.6-13.8 27-30.2 24.4-27.7 26.2-30 24.5-31.2-2.9-2.1-4.6-1.7-9.5 2.2-4 3.2-4.9 3.5-8.6 2.9-3.9-.5-6.8.2-18.8 5.1-1.6.6-1.4-.2 1.4-5.2 8.6-15.2 9.2-16.7 8.7-21.2-.3-2.4-.7-4.5-1-4.9-.3-.3-5.1 3.2-10.6 7.6-5.6 4.5-10.1 8-10.1 7.8 0-.2 2.7-6.4 6-13.7 3.4-7.3 5.9-13.4 5.7-13.6-.2-.2-5.4 1.5-11.6 3.7-7.6 2.7-11.6 3.8-12.3 3.1-.6-.6-.9-3-.7-5.4l.4-4.5-4.5 3.4c-9 6.7-11.8 8.4-15.3 9-7.4 1.2-7.4.6.8-15.8 4.2-8.3 7.5-15.3 7.3-15.4-.2-.2-8.4 5.7-18.2 13.1-9.9 7.4-18.1 13.2-18.3 13.1-.2-.2.1-6.8.7-14.7.6-7.9.8-14.5.6-14.7-.2-.2-5.7 4.3-12.2 10-6.6 5.8-12.2 10.3-12.5 10.1-.3-.2-1.1-6.9-1.9-14.9-.7-8-1.6-14.5-2-14.5-.4 0-3.6 3.2-7 7-3.5 3.9-6.7 6.9-7.2 6.8-.5-.2-2.4-3.7-4.3-7.8s-3.8-7.6-4.2-7.7c-.5-.2-1.8.4-3 1.2zm-.5 153.1c2.9 2 3 7.6.2 10.4-4.3 4.3-12 1.1-12-5 0-2.3.7-3.5 3.3-5 3.9-2.4 5.6-2.5 8.5-.4zM678 690c0 1.1 1.2 3 2.6 4.3l2.6 2.2-2.9.6c-1.5.4-3.9.7-5.3.8-2.2.1-2.5-.3-2.5-3.6 0-3.6-.2-3.8-3-3.7-1.6 0-3.8.4-4.7.8-1.3.6-1.8.4-1.8-.7 0-2.1 1.5-2.5 8.8-2.6 5.6-.1 6.2.1 6.2 1.9zm123.5 119.2c8.8 13.2 22.7 25.9 32.7 29.7 2.5.9 2.8.6 10.8-12.4 4.5-7.4 8.5-13.7 9-14 .9-.6 8.2 28.4 10.4 42 .9 4.9 1.8 12.8 2.2 17.5.6 8.5.6 8.5-3 14-3.2 4.9-3.4 5.6-1.9 6.5 3.1 1.9 6.4 5.9 9.5 11.6 3.7 7.1 5.2 8.5 11.4 10.8l4.9 1.9 1.1 6.7c.6 3.7 1.4 9.2 1.8 12.1l.6 5.3-5.5 1.6c-4.3 1.3-9.2 1.6-23.2 1.3l-17.8-.3-11 3.8c-6 2-17 4.8-24.4 6.1l-13.3 2.3.6-5.6c.4-3.1 1.1-10 1.5-15.3 1.2-13.2 2.5-15.2 12.9-20.3l8.3-4-.6-4.5c-1-7.4-2.5-10.9-5.6-13-3.2-2.3-7.5-9.1-8.9-14-.5-1.8-1.4-7.6-2-13-.6-5.4-2.2-13.8-3.5-18.6-2.2-7.9-2.5-10.9-2.5-27.2 0-10 .2-18.2.4-18.2.1 0 2.5 3.3 5.1 7.2z"/></svg>