<svg version="1.0" xmlns="http://www.w3.org/2000/svg" width="190" height="288" viewBox="0 0 1080 1664"><path d="M771 138.4c-6.7 1.4-16.2 6.6-27.1 14.8-18.5 13.9-28.9 33.1-28.9 53.4 0 9.3-1.3 12.1-5.9 13.3-2 .5-11.7 1.1-21.6 1.4-42.6 1.3-63.8 9-100.3 36.3-26.6 19.9-37.1 33.6-51.7 66.9-8.4 19.1-12.3 30.2-17.6 50.4-2.3 8.9-4.5 15.8-4.9 15.4-1.5-1.7-5-16.1-5-20.4 0-2.6.9-6.6 2-9 2.5-5.5 2.5-6.4 0-8.9-1.4-1.4-3.3-2-6.4-2-4.4 0-7.7-1.9-7.5-4.3 0-.7 1.3-5.3 2.8-10.2 3.8-11.9 3.3-13-5.5-12.1-18.6 1.8-18.9 1.8-20.9.3-1.8-1.4-1.9-1.8-.6-6.4 2.9-10.1 2.6-14.7-.8-15.6-1.6-.4-21.1 3.7-28.3 5.9-1.4.4-2.7-1.5-6.3-8.5-2.5-5-4.5-10-4.5-11.1 0-5.4-5.2-3-18.4 8.5l-7.6 6.8-4.8-1.8c-2.7-1.1-7.8-4.7-12.3-8.7-4.2-3.7-7.8-6.8-8.1-6.8-.3 0-2 3.3-3.9 7.2-2.7 5.9-3.4 9-3.9 15.9-.7 11.5-2.9 14-14.1 15.3-8.9 1.1-16.8 5.5-26.7 14.8-12.9 12.2-18.1 14.1-31.2 11.4-9.2-2-10.4-2-16.6-.1-6.3 1.9-12.8 7.4-15.9 13.5-4.7 9.3-5.2 22.9-1.1 30.7 3.1 5.9 10.1 11 18.2 13.2 6.9 1.9 7 2.1 5.1 20.4-2.8 26.6-2.9 30.7-1.8 42.6 1.7 16.3 3 18 9.2 11.5 13.7-14.5 44.1-35.2 68.1-46.3 8.3-3.9 28.7-10.1 33-10.1 5.9.1 4.5 1.8-10.4 12.5-8.3 6.1-19 14.3-23.7 18.4-11.1 9.5-13.4 11-32.6 21.8-8.8 5-23 13.4-31.5 18.8-8.5 5.3-17.6 10.5-20.2 11.6-9.5 3.7-16.7 7.9-38.3 22.4-23.9 16-28.5 19.7-28.5 23.2 0 2.8 3.3 4.7 6.7 3.8 1.4-.3 8.3-4.4 15.2-9 8.5-5.7 14.4-8.9 18.1-9.8 3-.8 5.6-1.3 5.8-1.2.2.2-1.3 3.5-3.2 7.4-2 3.9-3.6 7.7-3.6 8.6 0 2.4 5.9 1.8 10.9-1 2.4-1.4 4.6-2.3 4.9-2.1.2.3-.1 3.9-.7 8.1-1.2 8.1-1.3 17.6-.3 21.3.7 2.2.8 2.2 4.4-1.5 2-2.1 4.4-5.8 5.3-8.3 1.4-3.9 8.2-15 9.2-15 1.2 0 3.2 7.5 3.9 13.9.5 5.3 1.3 8 2.8 9.8 2.1 2.4 2.2 2.4 3.9.5 1.1-1.2 2.7-6.6 4.1-13.8 2.2-11.1 2.9-12.9 10.3-26.4 4.4-8 10.1-18.7 12.7-23.7 7.4-14.4 9.9-15.9 34.1-20.8 41.3-8.3 76.3-3.9 107.4 13.7 12.7 7.3 27.1 22.6 27.1 29.1 0 3-10 12.8-15.5 15.2-10.3 4.6-24.7 9.6-43.3 14.9-31.3 9-43.2 14.8-56.2 27.2l-7.7 7.4-16.1 5c-27.9 8.6-40.5 11.3-61.1 13-16 1.3-23.7 3.2-33.7 8-10.2 4.9-18.8 13.1-27.4 26-17.7 26.7-34.5 43.9-54.1 55.4-21.9 12.9-29.6 19-32 25.4-1.2 3.2.1 4.2 5.9 4.2 4.2 0 10.1-2.5 16.7-6.9 1.7-1.2 3.6-2.1 4.3-2.1 2.1 0 1.4 7.5-1.4 14.5-2 4.9-2.5 7.7-2.1 10.6.3 2.2.8 4.3 1.1 4.6 1.4 1.4 14-10.6 18.6-17.8 2.1-3.3 4.1-5.5 4.5-5 1.2 2 4.5 12.4 4.5 14.3 0 1 .7 3.5 1.5 5.5l1.5 3.6 3.4-3.2c1.9-1.8 4.2-5.3 5.1-7.7 1.8-4.7 2.2-5 10.8-6 3.8-.4 6-1.2 6.6-2.3 1-1.8-2-14.4-4.4-19.2-2.2-4.1-1.9-8.2.8-10.6 1.2-1.1 6.3-4.6 11.2-7.8 5-3.1 10-6.6 11.3-7.8 4.2-3.9 2-8.7-4.1-8.7-1.3 0-7.1 1.7-12.8 3.9-5.7 2.1-11.7 4.1-13.2 4.5l-2.9.7 2.8-5.1c3.4-6.2 32.2-34.7 41-40.5 13.3-8.8 50.5-17.5 75.4-17.5 12.7 0 13.5 1.6 6.4 12.5-6.1 9.4-11.9 21.6-14.2 30.2-1.1 3.8-2.6 8-3.3 9.2-2.2 3.5-7.8 6.8-17.3 10.1-14 4.9-29.2 11.7-36.2 16.1-12.5 8-18.7 17.5-28.2 43.9-2.7 7.4-7 19.3-9.6 26.5-5.4 14.8-14.9 35.1-19.7 42.2-1.8 2.6-5.9 8.1-9.1 12.1-6.2 7.8-6.7 9.4-4.2 13 1.8 2.7 4.1 2.8 10.5.5 3.4-1.2 5.2-1.4 5.9-.7.6.6 1.3 4.7 1.7 9.2.7 9.7 1.8 11.8 5.7 10.8 3.1-.8 7.1-8.2 8.2-15.3.3-2.4.9-4.3 1.3-4.3.3 0 2.9 2.5 5.6 5.5 3.6 4.1 6 5.8 8.7 6.4 7.8 1.8 8.7-2.6 3.9-17.9-1.6-5.2-2.8-9.6-2.5-9.9.2-.3 3.1-.7 6.4-.9 4.1-.3 6-.9 6-1.8 0-3.2-4.4-12.2-7.6-15.4-1.9-2-3.4-4.2-3.4-4.8 0-.7 1.7-2 3.8-2.8 2-.8 5.8-2.4 8.4-3.6 4.6-2.1 4.7-2.1 3.3-4.8-1.9-3.6-9.9-7-16.4-7-4.7 0-5.1-.2-5.1-2.4 0-2.4 8-21.2 17.8-41.8 6.9-14.6 9.2-16.6 24.5-21.3 4.9-1.5 14.3-4.9 20.9-7.6 7.5-3.1 13-4.8 14.3-4.5 2.5.7 3.4 2.7 10 23 10.7 32.9 24.3 52.8 51 74.5 19.2 15.7 31.7 21.3 68.3 31 17.1 4.6 21.6 6.5 26.6 11.7 6.3 6.5 8.6 18.9 7.1 39.8-1 14.6-1.5 15.2-15.4 17.1-30.3 4.3-58 15.2-86.1 34-20.7 13.8-30.7 22-31.2 25.6l-.5 2.9h8.5c5.7 0 9.1-.4 10.1-1.3.9-.8 13.5-3.7 28.1-6.6 52.3-10.3 107.2-23.4 117.5-28 5.2-2.4 8.4-6 9.1-10.3.6-3.2-1-16.3-6.7-56.8-1.2-8-2.3-16.1-2.6-18-.8-6.3 1.1-7.5 11.6-7.5h9.1V1468h14l.2-311.7.3-311.7 4-.8c2.2-.4 9.5-2.4 16.2-4.4 6.7-2 12.9-3.4 13.7-3.1 2.5 1 4.3 4.6 10.2 20.2 6.8 18 10 30.2 11.3 43 1.1 10.6 3.1 15.8 7.4 18.9 2.7 2 4.1 2.1 26 2 12.8-.1 34.9-.9 49.3-1.8l26-1.6 23.5-5.9c12.9-3.3 28.3-7.4 34.4-9.3 9.9-3 11.1-3.6 12-6.2 1.5-4.4-1.3-5.8-18.8-9.5-31.3-6.5-31.6-6.5-67.2-6.6-35.5 0-37 .2-55.3 5.7-16.6 5.1-16.4 5.5-16-32.7.3-25.4.5-29.4 2.1-32.2 2-3.8 8.9-7.6 21.2-11.8 9-3 25.5-11.4 36-18.3 15.2-10 31.9-30.8 45.9-57.2 11.4-21.7 16.3-43.7 13.7-61.7-2.4-16.1-2.5-20.7-.6-22.3 2.2-1.8 59.9-21 63.2-21 3.9 0 8.8 4.3 15.5 13.4 13.8 18.9 16.5 29.6 10.9 44.1-3.9 10.3-8.3 29.3-7.9 34.2.2 3 .9 4.1 3 5.1 3.7 1.7 6.8.1 10.1-5.4 1.5-2.5 3.3-4.4 4-4.1.6.2 2.1 2.7 3.2 5.7 2.4 6.3 4.3 7.9 7.8 6.3 1.7-.8 3.2-2.9 4.5-6.5 2.9-7.6 4-7.9 9.5-2.4 2.6 2.5 5.2 4.6 5.9 4.6 1.6-.1 7.3-7.4 8.7-11.3 1.1-2.9.7-4.7-3.1-12.5-2.7-5.7-1.4-7.2 4-4.8 2.9 1.3 5.1 1.6 8.4 1.1 7.1-1.1 7.3-1.4 5.8-8.4-1.1-5.4-1.9-6.6-7.4-11.8-3.3-3.2-7.2-6.6-8.6-7.5-2.5-1.7-2.5-1.8-.5-3 1.1-.7 4.4-2.2 7.4-3.3 4.6-1.7 5.7-2.7 7.9-6.8 3.3-6.3 2.2-9-4.2-10.6-6.3-1.6-10.2-1.4-18.7.9-4.1 1.1-10.7 2.7-14.7 3.6-10.9 2.3-12.2 1.5-24.9-17.1-15.7-22.9-18.4-24.7-32.2-20.5-11.4 3.3-57.1 15.2-60.8 15.7-5.7.9-7.7-.4-14.3-8.8-3.6-4.5-11.1-12.9-16.8-18.7-5.7-5.7-10-10.8-9.5-11.2 2.4-2.4 13.4-8.2 19.1-10.1 13.8-4.6 45.2-17.7 52.6-21.9 9-5.2 12.8-9.1 18.3-18.6 2.1-3.8 6.1-10.7 8.8-15.4 5.2-9.2 14.3-20.8 22.3-28.2 11-10.3 19.3-13.7 40.1-16.3 21.1-2.7 41-7.3 44.3-10.2 2.9-2.6 3.3-7.1.9-9.7-2.4-2.6-8.2-4.6-13.2-4.6-6.4 0-6.2-1.3 1.1-7.5 8.4-7.3 10.8-11.2 9.4-15.2-.5-1.7-1.8-2.9-3.1-3.1-1.7-.3-14.2 2.4-20.6 4.4-1.8.6-1.8.4-.1-2.8.9-1.8 2.9-4.9 4.4-6.8 3.4-4.4 3.9-5.9 2.9-8.8-2-5.2-10.1-1-26.1 13.8-8.8 8.2-9.9 8.9-7.9 5.5 1.3-2.2 3.2-6.3 4.1-9 1-2.8 2.6-7.2 3.7-9.8l1.8-4.9-2.4-1.9c-1.3-1-3.2-1.9-4.3-1.9-2.9 0-7.2 4.8-9.3 10.5-3.1 8.4-8.7 21.5-9.5 22-.4.2-1.4-3.3-2.4-7.8-2.3-11-3.4-13.5-6.7-15.2-2.5-1.3-3-1.3-5.1.4l-2.3 1.9-.1 26.4c0 18.1-.4 27.7-1.3 30.8-3.5 12.3-18 33.8-34 50.4-13.7 14-25.2 21.3-40.6 25.6-4.4 1.2-23.1 7.2-41.5 13.2l-33.5 11.1-12-.6c-21.4-1.1-50.1-7-61.4-12.7-15.1-7.6-22.5-21.7-22.5-42.5 0-10.2 1-12.9 7-18.8 8.7-8.4 27.8-15.3 76.4-27.7 21.2-5.4 40.8-10.6 43.5-11.4 11.4-3.6 19.1-10.2 21.5-18.4.8-3 .7-3.2-1.8-3.9-1.5-.3-7-.1-12.2.7-5.2.7-14.4 1.5-20.5 1.7-31.7 1.3-56.2-12.5-64.6-36.3-3-8.8-2.4-23.6 1.5-31.6 7.8-16.4 22.1-24.1 44.6-24.1 12.3-.1 22 2.3 33.3 7.9 9.4 4.7 11.7 6.9 11.7 11.1 0 4-8 18.6-13.9 25.6-4.6 5.4-4.9 6.9-2.1 11.4 2.5 4.2 6.4 6.7 9.2 5.9 1.3-.3 5.7-4.4 9.8-8.9 8.1-9 15.8-15.7 17.7-15.7.7 0 1.3 1.2 1.3 2.6 0 1.8-2.1 5-6.8 10.2-11 12.3-11.8 14.2-8.7 20.3 2 3.8 7.3 7.1 9.4 5.9.9-.5 5-4.2 9.1-8.2 8.3-8 12-10.4 14.5-9.4 1.4.5 4.4 6.1 8.3 15.8 2.6 6.4 8.7 2.1 15.6-11.2 7.3-13.7 10.6-31.7 10.6-56.9 0-14.3 1.4-21.6 5.9-31.1 3.4-7.2 3.9-11.6 1.6-15.9-1.6-3.2-7.9-6.6-14-7.6-8-1.3-7.5-.4-6.8-12.4 1.2-21.4-5.1-34.7-23.7-50.2l-5.5-4.6 4.2-2.2c7.3-3.7 15.8-5.1 30.9-5.1 9.6 0 15.6-.5 19-1.5 8-2.4 8.1-2.6 5-8-1.5-2.5-4-5.1-5.4-5.7-1.6-.7-8.5-1.2-16.2-1.2-12.8-.1-14 .1-22.4 3.1-4.9 1.8-9.1 3.1-9.3 2.9-.2-.2 1.8-2.6 4.4-5.2 4.2-4.3 6.5-5.5 17.8-9.8 30.4-11.4 48.9-17.6 57.1-19.2 9.8-1.8 13.4-3.5 13.4-6.2 0-3.7-1.9-4.2-17.2-4.2-23 0-31.9 2.5-60.7 17-13.5 6.8-21.2 11.8-28.4 18.7-8 7.5-8.1 7.5-7.4 1.1 1.2-11.8 10-28.7 20.9-39.9 2.9-3 9.7-9 15-13.2 9.4-7.5 14.8-12.9 14.8-14.7 0-2.1-3.7-2.7-9-1.6zm-15.4 126.7c10.9 5.2 11.8 18.4 2.4 31-5.4 7.2-16.3 15.9-19.8 15.9-3.9-.1-10.5-3.3-13-6.4-10.2-13.1-3.5-35.5 12.4-41.1 5.8-2.1 13.1-1.8 18 .6zm-323.7 33.1c.8 3.4 2.3 6.4 4.3 8.5 4.5 4.7 2.2 5-11.9 1.8-16.6-3.7-15.6-3.4-14.1-5.3 1.1-1.3 17.9-9.9 19.9-10.1.3-.1 1.1 2.3 1.8 5.1zm-41.7-.1c2 1.1 5.7 8.1 5.8 11.1 0 1.2-1.9 2.3-6.9 3.9-9.2 3-10.1 2.5-8.8-4.3 1.3-7.5 2.4-9.7 4.9-10.8 3-1.2 2.6-1.2 5 .1zm390.6 19.1c.4 6.6-2.2 10.8-6.7 10.8-3.7 0-8.1-4.7-8.1-8.6 0-3.9 1.6-5.9 6.5-8.3 5.8-2.8 7.9-1.2 8.3 6.1zm-315-5.9c.8 1 .6 2.2-.9 4.6-1.1 1.8-2.3 3.1-2.7 2.9-7.5-3.7-7.5-3.8-2.9-6.7 3.7-2.4 5.1-2.6 6.5-.8zm25.1 21.6l2.4 1.8-2.3 3.2-2.2 3.2-2.4-2.2c-2.6-2.5-3.1-4.8-1.2-6.7 1.6-1.6 2.9-1.5 5.7.7zm-124 3.6c4.4 2.2 11.7 11 15.3 18.2 4.4 9 4.6 17.6.5 24.6-5 8.5-18.7 15.6-27.7 14.4-5.9-.8-14.7-7.2-18.1-13.2-5.4-9.6-6-27.8-1.1-34.4 6.2-8.3 23.4-13.6 31.1-9.6zM501.5 359c1 4.6-.5 5.8-2.6 1.9-1.2-2.4-1.4-3.8-.7-4.6 1.4-1.7 2.5-.8 3.3 2.7zm-195 2.3c7.6 4.2 10.3 14.2 7 25.4-2.8 9.3-11.3 14.2-22.5 12.9-8-1-12.1-3.3-14.8-8.6-2-3.9-2.3-5.6-2-12.6.5-10 2.6-14 8.8-17.2 6.2-3.1 17.8-3.1 23.5.1zm421.3 13l2.2 2.3-3.8 7.4c-4.5 9-14.3 19-18.5 19-3.3 0-5.1-3-4.2-7.3.7-3.2 14.2-20.8 17.4-22.7 2.6-1.5 4.6-1.2 6.9 1.3zm15 19.9c4 4-4.3 22.2-11 24.4-1.1.3-3-.2-4.3-1-3-2-3.3-6.3-.6-9.7 1-1.3 2.8-4.4 4.1-6.9 1.2-2.5 2.9-5.3 3.8-6.3 1.7-2 6.2-2.3 8-.5zM848 440.5c0 .8-.4 1.5-1 1.5-.5 0-.7-.7-.4-1.5.4-.8.8-1.5 1-1.5.2 0 .4.7.4 1.5zm-529.5 63.2c-1.8 7.6-6.7 9.6-9.9 4.2-1-1.7-1.6-3.2-1.4-3.3.6-.6 9.3-3.4 10.7-3.5.9-.1 1.1.7.6 2.6zm-24.5 6.9c0 .9-.8 4.8-1.7 8.6-2.4 10.1-1.3 11.3 9.1 9.3 4.7-1 5.8.4 5.1 6-1.1 7.6-3.9 17.5-4.9 17.2-.6-.2-2.2-2.3-3.6-4.8-1.5-2.4-3.3-4.5-4.1-4.7-1.9-.3-6.4 4.5-7.6 8.3-1.6 4.7-8.3 14.7-9.6 14.2-.7-.2-1.6-1.6-2.1-3-.8-2.2-.4-3.9 2.7-10 2.1-3.9 3.9-8.6 4-10.2.2-2.9.1-3-4.3-2.9-3 .1-4.9-.4-5.7-1.5-2.1-2.7-1.5-4 2.2-4.7 3.1-.5 8.5-4.6 8.5-6.4 0-1-3.2-3.6-5.3-4.3-2.4-.9-1.7-1.8 5.4-7.7 4.2-3.5 6.9-5 9-5 2 0 2.9.5 2.9 1.6zm-29 17c0 .8-.4 1.2-1 .9-.5-.3-1-1-1-1.6 0-.5.5-.9 1-.9.6 0 1 .7 1 1.6zm3 3.9c1 1.2 1 1.5-.4 1.5-.9 0-1.6-.7-1.6-1.5s.2-1.5.4-1.5.9.7 1.6 1.5z"/><path d="M741 288c-1.2 1.2-2 3.3-2 5.5 0 1.9-.1 3.8-.2 4.2 0 .4 1.1 1.6 2.5 2.7 2.3 1.7 3.1 1.8 6.7.7 5-1.5 7.4-4.9 6.5-9.1-1.2-5.4-9.6-7.9-13.5-4zM772.2 316.2c-2.5 2.5 0 6.4 3.2 5.2 2.1-.8 2.1-5 0-5.8-2-.8-1.8-.8-3.2.6zM352.5 362.1c-2.9 2.5-3.4 3.6-2.9 5.7.8 3.4 3.2 6.2 5.3 6.2 3 0 6-3 6.7-6.6.5-2.8.2-4-1.7-6-1.2-1.3-2.6-2.4-3-2.4-.5 0-2.4 1.4-4.4 3.1zM289.1 377.3c-1.8 2-2 2.8-1.2 5 .6 1.5 1.5 2.7 2 2.7s1.6.3 2.4.6c.9.3 2.2-.8 3.7-3.1l2.2-3.5-2.4-2c-3-2.5-4-2.5-6.7.3z"/></svg>