<svg version="1.0" xmlns="http://www.w3.org/2000/svg" width="190" height="288" viewBox="0 0 1080 1646"><path d="M546.1 369.8c-9.3 4.7-11 15.9-3.9 25.8l3.2 4.4-2.6 2.8c-1.4 1.5-3.8 4.7-5.3 7.2-1.6 2.5-4.7 6.6-6.9 9.1-2.3 2.5-7 10.4-10.6 17.5-4.8 9.5-7 13-8.5 13.2-1.5.2-6.7-4.4-19.2-17-19.2-19.5-20.9-22.1-17.9-29.2 2.3-5.4 2-7-1.6-11.1-6.1-7-16.5-9.9-22.1-6.2-3.2 2.1-7.8 11.5-8.5 17.3-.4 4.2-.2 4.8 3.3 8.4 5 5.1 11 6.9 16.5 4.7 2.1-.8 4.1-1.2 4.4-.9.3.3.6 2.2.6 4.3 0 2.3 1.7 7.6 4.1 13.1 7.6 17.2 13.1 32.2 16.4 45.3 4 15.8 5.9 31.5 4.4 36.9-1.1 4.1-.6 3.7-21.9 17.5-21.3 13.8-35.4 26.5-60.7 54.8-15.3 17.1-20 24.6-26.7 42.5-2.8 7.5-3.6 11.2-3.6 16.2 0 5.3-.4 6.9-2 8.4-1.1 1.1-7.6 3.4-14.3 5.2-6.7 1.7-13.1 3.7-14.2 4.3-1.1.6-7.5 2.7-14.2 4.7-12.8 3.9-23.7 9.7-25 13.5-.4 1.1-.6 4-.4 6.5.1 2.6-.9 8.9-2.3 14.5-1.5 5.5-2.6 12.7-2.6 16.1 0 8.1-6.4 46-9.6 57.2-2.8 9.8-9.2 23.9-12.9 28.8-3.1 4-3.2 6-.4 7.5 3 1.5 10.6-.5 14.2-3.9 2-1.9 3-2.3 3.8-1.5.9.9.6 2.6-1.1 6.6-2.2 5.3-2.2 5.5-.6 10.5 1 2.9 2.5 6.1 3.5 7.3l1.8 2.2 3.1-2.3c5.4-4 6.6-6.7 7.2-16 .7-11.6 2.3-11.3 7 1.5 2.9 7.9 4.3 10.3 6.6 11.7 2.8 1.7 2.9 1.7 4.9-.2 1.7-1.7 2.1-3.7 2.3-12 .4-10.6.9-11.3 4.9-8.5 1.8 1.3 2.9 1.3 6.7.3 3-.8 4.6-1.8 4.6-2.8 0-7.4-7.9-17.7-16.6-21.6-6.6-2.9-11-6.7-13.7-11.8-3.8-7.4-3.5-34.5.9-59.3 2.6-15.3 7.9-23.4 18.9-29.1 4.5-2.3 6.4-2.6 18.8-3 9.3-.3 14.2-.1 15.1.7.8.7 1.6 4.4 2 9.2 1.4 16.1 11.7 50.5 18.6 62.1 11.7 19.7 32.5 40.8 47.3 47.9l4.7 2.3V1470h14V808.7l3.3.7c1.7.4 8.3 1.3 14.5 2.1 14.3 1.7 16.2 2.8 16.2 9.5 0 2.7-.5 6.1-1.2 7.7-.7 1.8-1 8.8-.9 20 .3 19.9-.7 23.6-7.8 29.4-2.7 2.1-4.1 4-3.9 5.2.5 3.4 10.6 8.6 20.9 10.7 21 4.3 57 5.4 60.6 1.8 2.3-2.3.7-5.6-4.1-8.6-2.3-1.5-6.2-4.3-8.6-6.3-2.5-2-5.9-4.4-7.6-5.2-5.6-2.9-26.4-8.7-30.9-8.7-2.4 0-4.7-.5-5-1.1-.6-.8-1-38.5-.6-44.6.1-.7 2.7-2.5 5.9-4.1 5.5-2.7 6.8-2.9 22.3-3.5 16.7-.6 24-1.8 38.6-6.3 10.8-3.2 27.1-9.9 29.4-12 1.7-1.6 1.9-1.5 2.9 1 .5 1.5 1 3.3 1 4 0 .6 2 7 4.4 14.2 2.4 7.1 4.8 16 5.5 19.6.6 3.7 2.2 9.6 3.6 13.2 3.2 8.5 3.3 16.7.4 21.5-2 3.4-2 3.4-.1 5.4 1.7 1.6 2.8 1.8 6.6 1.3 4.5-.7 7-1.8 23.6-10.8 4.7-2.6 11.4-5.4 15-6.3 4.1-1 9.7-3.6 15.1-7.1 4.8-3 9.5-5.4 10.6-5.4 1 0 2.8-.6 3.9-1.4 1.1-.8 4.1-2.3 6.5-3.2 8.4-3.3 9.8-6.2 5.2-10.7-12.7-12.1-34.4-8.5-64 10.8l-8.2 5.4-5.6-9.7c-4.7-8.4-16.5-34-18.2-39.5-.9-2.8 5.5-8.6 20.3-18.8 7.2-4.9 13.8-9.7 14.7-10.6 4.1-4.6 22.1-31.5 24.7-36.8 1.5-3.3 4.2-11.2 5.9-17.5 1.7-6.3 4.2-15.5 5.6-20.4 1.3-4.8 2.7-12.6 3.1-17.2.6-7.1.3-9.4-1.6-15.3-1.2-3.8-3.1-7.7-4.1-8.7-1.8-1.6-2.1-1.5-5.6.9-2.1 1.5-5 3.7-6.5 4.8-2.6 2.1-2.8 2.1-5 .5-1.3-.9-3.8-2.8-5.7-4.1-4.3-3.2-7.1-3.2-10.2.1-1.8 2-2.4 3.6-2.3 7.2 0 2.6.4 5.7.8 6.9.7 1.8.2 2.5-3.4 4.3-5.1 2.6-5.6 2.3-10.4-7.1l-3.3-6.4-7 .1c-7.2.2-11.3 1.5-11.3 3.8 0 .7 1.1 3 2.5 5 4.3 6.4 2.9 15.6-2.5 15.6-1 0-3.2-1.6-5-3.6-2.5-2.9-3.1-4.3-2.6-6.4 1.7-9-7.1-17.4-14.4-13.7-2.3 1.2-2.5 1.8-2.7 9.2-.2 6.8-.5 8.3-2.4 9.7-3.2 2.7-6.5 2.2-8.8-1.1-1.1-1.6-4.4-7.7-7.3-13.6-4.7-9.7-5.2-11.3-5-16.6.6-15.9 4.9-25.7 15.6-35.6 17.3-16.1 38.5-24.7 56.5-22.8 15.7 1.6 21.1 3.6 36.4 13.6 7.9 5.2 9.7 6 12.6 5.5 7.1-1.1 7.1-1.1 7.1-28 0-26.8.4-28.6 6-28.6 1.6 0 4.7-.7 6.7-1.5 2.1-.8 6.5-2.1 9.8-3 3.3-.9 12.6-4.4 20.7-7.7s15.3-5.8 16.1-5.5c1.8.7 6.7 10.1 8.3 16.1 2.8 10.3 1.9 18-4.1 37.6-3 9.8-5.3 18.5-4.9 19.3 1.1 3.1 4.2 3 8.2-.2 5.5-4.3 9-5.7 10.4-4.3.9.9.7 1.6-.5 3-.9 1-1.7 2.6-1.7 3.4 0 3.6 5 16 7.2 17.8 5.2 4.3 8.3 1.5 8.1-7.3-.1-7.3 2.1-11.9 5.2-10.7 1.1.5 3.8 2.6 6 4.9 4.1 4.3 7.4 5.2 9.6 2.5 1.9-2.3 1.5-15.7-.5-18.6-1.4-2-2.2-5.8-1.2-5.8.2 0 2.7.5 5.6 1 7.1 1.3 8.7.7 10-4.1 1.3-4.8.1-7.6-3.7-8.5-2.8-.7-22-17.1-33.3-28.4-3.6-3.6-9.4-10.6-12.7-15.5-9.1-13.3-12.8-17.3-17.2-18.5-4.5-1.2-7.4-.4-23.6 6.5-6 2.6-14.5 5.3-18.8 6.1-4.2.7-9 2-10.7 2.9-4.3 2.2-9.3 1.9-11.7-.8-1.2-1.2-4.4-6.1-7.2-10.8-11.4-19.5-30.1-31.5-52.1-33.5-3.9-.4-7.4-1.2-8-1.9-.6-.7-1.1-7.8-1.2-16.1-.2-14.5-.1-15.2 3.1-24.4 1.8-5.2 4.8-12.7 6.6-16.5 4-8.6 13-21.5 15-21.5.9 0 4.1 1.3 7.2 3 6.4 3.5 9.2 3.7 14.8 1.1 5.3-2.4 9.1-7 11-13.3 2-6.8 1.9-8.6-.6-13.9-2.5-5-4.5-6.8-7.6-6.9-1.2 0-2.5-.5-2.8-1-.3-.6-1.5-1-2.7-1-4.1 0-8.9 3.4-13.9 9.7-2.8 3.6-6.5 7.8-8.2 9.4-1.8 1.6-12.6 7.7-24.2 13.5-23.1 11.7-31.4 16.7-39.1 23.7-2.9 2.6-5.8 4.7-6.6 4.7-3.8 0-8.1-7.7-9.7-17.4-.7-3.8-1.8-8.6-2.5-10.8l-1.4-3.8 4.4-3.2c4.8-3.4 9.5-10 11.4-16 .9-3.1.9-4.3-.5-7.2-1.7-3.5-6.8-7.7-11.8-9.5-3.8-1.5-4.6-1.4-8.6.7zm6.6 5.4c-.3.8-.6.5-.6-.6-.1-1.1.2-1.7.5-1.3.3.3.4 1.2.1 1.9zm5.1 13.6c-.3 3.6-.4 3.7-4.5 4-3.5.3-4.4-.1-5.4-1.9-1.1-2.1-.8-2.6 3.2-6 4.2-3.5 4.4-3.6 5.7-1.8.7 1.1 1.2 3.6 1 5.7zm103.9-7c.7.4 2.2 3.4 3.3 6.6 2.9 8.6 1.5 9.8-5.4 4.1-2.3-1.9-5.3-3.8-6.6-4.3l-2.4-.9 3.1-3.2c3.1-3.1 5.6-3.8 8-2.3zm-199.1 10.8c5.9 4 9.4 7.1 8.7 7.8-1.2 1.2-7.1.6-8.3-.9-1.8-2.1-2.8-1.9-6.7 1.5-3.9 3.5-5.3 3.2-5.3-1.2 0-3.4 4.2-9.8 6.4-9.8.7 0 3.1 1.2 5.2 2.6zm194.7 7c-.6 1.7-4.4 1.5-5.1-.4-.2-.8.7-1.2 2.7-1.2 2.3 0 2.9.4 2.4 1.6zm-75.9 76c3.1 3 1.2 6.4-3.6 6.4-3.5 0-5.9-4-3.8-6.5 1.6-2 5.4-1.9 7.4.1zm17 0c1.4 3.7-.5 6.1-3.9 4.8-1.5-.6-2.1-4.5-.8-5.7 1.2-1.3 4.1-.7 4.7.9zm-55.4.4c4.7 2.5 4.7 8 .1 8-3.4 0-5.1-1.7-5.1-5 0-4.1 1.4-4.9 5-3zm20 .9c.5 1.1 1 3.2 1 4.6 0 2.3-.4 2.6-2.6 2.3-3.9-.4-5.2-3-3.1-6.2 2.1-3.1 3.3-3.3 4.7-.7zm46.7.7c.8 2-2.1 4.9-4.1 4.1-1.9-.8-2.1-4.3-.3-5 2.3-1 3.8-.7 4.4.9zm-83.6 2.4c2.5 1.4 2.4 2.9-.5 6.5-2.1 2.7-2.6 2.8-5 1.7-3.1-1.4-4-3.3-3.2-6.7.5-2 1.3-2.5 3.7-2.5 1.7 0 3.9.5 5 1zm-14.6 5.8c.6 1.7-2.9 5.1-5.2 5.2-2.1 0-1.6-6.8.5-7.2 2.4-.6 3.9.1 4.7 2zm-10.2 2.9c1.7 1 .6 5.4-1.7 6.4-4.7 2.2-9-3.3-5.4-6.9 1-1 4.8-.8 7.1.5zm99.5 40.3c2.2 1.7 5 4.6 6.2 6.5 2 3.2 2.1 4.1 1.2 15.9-.8 11.3-1.1 12.8-3.6 16-4.1 5.4-11 9-17.2 9-4.2 0-6.3-.7-11-3.6-8.5-5.2-11.7-10.2-12.2-18.6-.4-7.4 2.1-15.7 6.1-20 4.3-4.6 13.2-8 21.3-8.1 4.1-.1 5.8.5 9.2 2.9zm50.1 12.8c4.9 3.6 6.5 6.9 6.9 14.1.4 6.1.1 7.6-2.3 11.9-3 5.4-6.6 8.2-8.7 6.5-.7-.6-3.5-1.4-6.3-1.8-2.7-.4-5.7-1.1-6.6-1.5-1.9-1.1-7.9-15-7.9-18.5 0-3 5.6-9.6 10.3-11.9 3.9-2 11.1-1.4 14.6 1.2zm2.6 118.3c1.3 2-.4 5.9-2.6 5.9-1.7 0-2-.4-1.5-2.3.3-1.2.6-2.8.6-3.5 0-1.5 2.6-1.6 3.5-.1zm-30.1 6.1c1 1.3 1.6 4.4 1.6 7.5 0 4.8-.2 5.3-2.5 5.9-4 1-5.5-1.1-5.5-7.5 0-7.8 3.1-10.6 6.4-5.9zm-29.2 8.3c2.1 4 2.4 5.3 1.5 7.2-.5 1.3-1.4 2.3-1.8 2.3-1.6 0-4.7-5.1-5.3-9-1.2-7.7 1.5-7.9 5.6-.5z"/><path d="M585.4 547.8c-1.8 1.1-2.9 12.9-1.4 14.7 1.9 2.3 6.4 1.8 8.9-.9 5.2-5.5 3.2-14.6-3.2-14.6-1.7 0-3.7.4-4.3.8zM639.3 554.2c-1.9 3.8-2.1 5.2-1.2 7.5.7 1.9 1.6 2.3 4.7 2.3 9.2 0 9.7-9.5.6-11.4-2.5-.6-3.2-.3-4.1 1.6zM868 515.4c0 .8.5 1.8 1 2.1.6.3 1-.3 1-1.4 0-1.2-.4-2.1-1-2.1-.5 0-1 .6-1 1.4z"/></svg>