<svg version="1.0" xmlns="http://www.w3.org/2000/svg" width="190" height="288" viewBox="0 0 1272 1646"><title>Φαντάσμα</title><path d="M747 264.9c-7.6 1.8-16.3 4.3-19.5 5.7-1.9.8-9.4 3-16.7 5-49.2 13.3-87.1 38.1-116.7 76.4-15.3 19.8-27.7 39.7-38.5 62.1-17 35.1-23.9 62.3-24 94.4-.1 27.6 3.8 45.7 16.6 77.4 17.4 43.5 26.1 72 32.4 106.1 2.7 14.5 2.5 37.8-.5 49.5-3.1 12.6-11.4 29-20.6 41-4.3 5.5-9.4 13.4-11.4 17.5-4.5 9.3-4.9 17.8-1.2 24.8 3.1 6 7.4 7.8 13.1 5.6 5-2 13.5-11.1 21.7-23 7.6-11.2 13.6-17.9 21.6-24.2 8.5-6.7 14.2-9.5 19.9-9.6 6.6-.1 11.6 3.7 21 16.2L652 800l.2 312.8.3 312.7 6.8.3 6.7.3v-307.7c0-292.6.1-307.6 1.8-306.9 12.1 4.7 22.7 4.4 33.4-1 7.8-3.9 11.4-7.3 21.1-20 12.5-16.3 15.8-19.5 20.2-19.5 3 0 4.9 1.3 15 10.9 21.4 20.4 29 21.1 55.1 5.6 16.5-9.9 26.1-12 41.5-9.1 23.4 4.4 38.9-.3 45.7-14 3.1-6.2 8.7-10.5 19.7-15.3 13.4-5.8 20.3-10.1 25.8-16 7.7-8.2 7.7-16.2-.1-24-5.6-5.6-11.6-8.5-20.3-10.1-8.9-1.7-16.3-.6-31.5 4.5-16 5.4-24.3 6.4-33.4 4.1-10.5-2.7-17.9-8.6-24.3-19.6-3.4-5.9-18.4-44.3-24.1-61.8-8.1-25-12.2-48.4-11.4-65.1.5-10.8 3.4-16.6 10.2-20.6 4.5-2.6 7.2-3.3 33.6-8.1 44.9-8.1 48.4-8.6 68-9.4 32.4-1.2 46.8-5.2 70.3-19.2 6.7-4 17.6-10 24.2-13.3 11.2-5.7 12.2-6.5 14.4-10.8l2.3-4.7-4.2-10.8c-6.1-15.1-11.3-25-18.6-34.8-8-10.7-20-34.4-25.4-49.9-6.1-17.9-10.4-23.1-21-25.8-4.6-1.2-5.7-2-7.2-4.9-2.3-4.4-3.8-13.1-3.8-22.3-.1-20.1-7.5-33.8-24.3-44.9-7.3-4.8-11.6-5.2-12.9-1.4-.7 2.2 1 8.4 10 35 6.1 17.8 11.3 33.3 11.7 34.6 1.2 4-1.2 7.9-6.3 10.2-9.7 4.5-12.1 9.4-10.1 20.4 1.6 8.5-.3 14.2-6 17.9-2.6 1.7-4.8 4.5-6.6 8.2-2.5 5-2.7 6.4-2.2 12.8.3 4 1.5 11.1 2.8 15.9l2.3 8.8-2.6 2.7c-5.5 5.8-6 11.3-2.3 24.8 4.7 16.8 3 28.7-5 35.2-6.7 5.6-11.5 6.3-49.2 7.5-38.1 1.2-37.3 1.3-37.3-5.2 0-3.6 11.3-40.7 28.1-91.8 4.4-13.4 9.4-29.6 11.1-36 7.2-27.3 3.9-52.3-9.6-73.2-4.9-7.5-13.2-16.3-19.8-20.7-3.6-2.5-25.6-13.3-42.3-20.8-4.5-2-19.6-2.9-25.5-1.6zm177.9 34.4l5.5 5.8-2.1 6.2-2 6.2-5.6-11.1c-4.2-8.5-5.3-11.4-4.4-12.3 1.7-1.7 2.7-1.2 8.6 5.2zm6 23.4c.6 1.4.9 2.8.6 3.2-.8.7-4.4-3.9-4.5-5.6 0-2 2.6-.4 3.9 2.4zm-214 38.7c6.7 3.5 15.7 17.3 22.1 33.8 8.9 23 10.7 57.8 3.6 71.6-5.5 10.6-14.5 16.1-26.7 16.2-9.4 0-14.9-2.5-19.7-9.3-4.9-6.8-7.1-14.2-9.8-33.1l-2.5-17 3.6-18c6-30.3 8.6-36.8 17.7-42.8 4.6-3.1 7.6-3.5 11.7-1.4zm227.9 7.1c-.9.9-21.8 1.7-21.8.8 0-.5 4.8-2.1 10.8-3.5l10.7-2.5.3 2.4c.2 1.4.2 2.6 0 2.8zm14.5 6.9c2.4 1.8 2.1 4.5-.5 5.1-1.3.3-10.2 2.3-19.8 4.4l-17.5 3.8-.3-3c-.2-1.6.2-3.6 1-4.2 1.2-1.2 28.7-7.3 33.3-7.4 1.1 0 2.8.6 3.8 1.3zm5.1 24.7c2.9 2.3 3.6 7.2 1.4 10.2-1.4 1.8-14.4 9.5-19.4 11.5-6.3 2.5-21 5.2-28 5.2-6.1 0-7.8-.4-9.4-2-2.6-2.6-2.6-8.3 0-12 1.9-2.6 2.3-2.7 8.3-2.3 8.8.7 21.2-2.5 31.8-8.2 9.5-5 11.5-5.4 15.3-2.4zm-318 9c8.2 6.4 12.7 27.1 10.6 48.6-1.5 14.6-5.3 33.4-7.7 37.5-2.9 5-7.7 7.8-13.5 7.8-5.7 0-9.1-1.5-13.4-6.2-4.3-4.5-6.7-9.5-11.3-23.8l-3.9-12.1 2.2-11.2c3.9-19 10.6-31.9 20.4-39.4 5.4-4.1 12.3-4.6 16.6-1.2zm343.1 20.8c.8 2.6-2 8.6-5.1 11-3.3 2.6-5.8 2.6-13.4 0-6-2-13-2.7-16.9-1.4-1.1.3-4 3.7-6.5 7.5s-5.5 7.4-6.5 8c-2.9 1.5-7.7 1.2-13.9-.7-5.2-1.7-5.5-1.7-9 .2-2 1.1-3.8 2.9-4 4-.9 5.2-6.2 4.9-6.2-.4 0-3.6 2.4-6.8 7-9.1 4.7-2.4 9.2-2.5 15.1-.5 2.4.9 5.3 1.4 6.5 1.1 1.2-.3 3.9-3.4 6.2-7 2.3-3.5 5.4-7.1 6.8-8.1 4.3-2.8 12.9-3.1 20.1-.6 9.2 3.1 11.1 2.9 13-1.7 2.2-5.3 3.3-6.5 4.9-5.1.7.6 1.6 1.9 1.9 2.8zm9.6 17c2.9 2.3 3.1 8.1.4 11.1-2.8 3.1-8.8 2.7-11.4-.6-2.8-3.5-2.6-6.9.4-9.9 2.9-3 7.3-3.3 10.6-.6zm-24.6 8.6c3.1 3 3.2 6.6.2 10.1-3.3 3.8-8.1 3.7-11.5-.1-6.4-7.5 4.4-17 11.3-10zm-24.2 9.7c3.9 4.6.5 12.8-5.3 12.8-4.1 0-8-3.5-8-7.1 0-1.7.5-3.9 1.1-5 2.2-4.2 8.9-4.6 12.2-.7zm-29 6c5.5 7.3-5.3 15.9-11.8 9.3-3.1-3-3.2-7.1-.3-10.2 3.1-3.3 9.3-2.9 12.1.9zm-139.3 72c5.9 3.7 7.6 5.7 6.7 8.2-.9 2.2-4 2-7.9-.4-1.8-1.1-3.8-2-4.4-2-1.8 0-13 22.9-14.4 29.6-2.3 10.2-4.5 10.9-11.7 3.3-2.6-2.9-9-8.7-14.2-13.1-8.2-6.9-9.6-7.7-10.2-6.2-.3 1.1-1.9 8.4-3.4 16.4-1.5 8-4 19.4-5.6 25.5-1.5 6-3.3 13.9-4 17.5-1.5 8.3-2.4 10-5.4 10-3 0-4.6-2.6-14-22.5-8.7-18.6-10.4-21.4-21.3-37.8-8.3-12.4-8.6-12.7-10.5-11-2.1 1.9-18.8 23.8-27.2 35.8-7.1 10.1-9 11.8-11.5 10.5-2-1.1-8.7-13.6-13-24.3l-2.3-5.9-2 3.4c-1.1 1.8-4.3 6.3-7 10-5.3 7.4-8.2 8.7-9.3 4.2-.5-2 .2-3.8 3.4-8.2 2.3-3.2 6.2-9.2 8.8-13.4 6.4-10.4 10.3-11.4 11.9-3 .8 4.6 9.2 24.7 10.8 26.1.9.7 2.2-.4 4.7-4.2 6.2-9.2 23.6-32.1 28.2-37 4.7-5 7.5-5.8 10-3 2.5 3 16.1 23.3 21.6 32.3 2.8 4.7 7.7 14.2 10.8 21.3 3.1 7 5.9 12.5 6.2 12.2 1-.9 5.2-18.8 9.3-38.8 4.5-22.4 6.1-26.7 9.7-26.7 2.5 0 12.6 7.7 23.8 18.2l6.1 5.7 3.3-8.6c3.6-9.1 11.9-24 14.7-26.1 2.4-1.8 3.3-1.6 9.3 2z"/></svg>