<svg version="1.0" xmlns="http://www.w3.org/2000/svg" width="190" height="288" viewBox="0 0 1263 1664"><path d="M471.8 192.2c-2.1 4-5 9.5-6.6 12.3-1.5 2.7-4.9 8.8-7.4 13.5-2.5 4.7-5.7 10.5-7 13-1.4 2.5-4.4 8.1-6.8 12.5-2.3 4.4-5 9.3-6 11-1 1.6-3.8 6.9-6.3 11.7-2.6 4.7-5.5 10.1-6.5 12-1 1.8-4.5 8.2-7.7 14.3-3.2 6-7.1 13.2-8.7 15.8-1.5 2.6-2.8 5.1-2.8 5.5 0 2.7-2.5 2.8-9.8.5-4.2-1.4-10.6-3.3-14.2-4.3-3.6-1-15.5-4.6-26.5-8-11-3.4-22.9-7.1-26.5-8.1-3.6-1-11-3.2-16.5-4.9-11.2-3.6-17.8-5.6-24.6-7.5-5.5-1.6-24.3-7.3-27.9-8.5-1.4-.5-6.3-2-11-3.4-4.7-1.3-12.3-3.6-16.9-5-4.7-1.4-8.6-2.4-8.8-2.2-.3.3.7 3 7.3 18.8 1.4 3.5 3.9 9.9 5.5 14.3s3.4 8.9 3.9 10c.9 1.8 6.8 17 24.6 62.5 3.6 9.1 6.9 17.4 7.4 18.5 1.6 3.3 18.1 45.6 20.1 51.5 1.9 5.2 1.9 5.5.2 6.7-1 .7-2.2 1.6-2.8 2-.5.5-4.4 3.3-8.5 6.3-8.4 6-21.5 15.6-36.5 26.7-9 6.6-15.4 11.3-34.7 25.3-3.3 2.5-8.7 6.3-11.8 8.5-11.3 8-31.5 22.9-32 23.5-.3.4-3.3 2.6-6.7 4.9-3.5 2.4-6.5 4.7-6.8 5.1-.3.5 1.1 1.2 3.2 1.5 2.1.3 5.6 1 7.8 1.6 2.2.5 6.3 1.4 9 1.9 11 1.9 36.9 6.8 52.5 9.9 11.9 2.4 22.3 4.4 49.5 9.6 10.5 1.9 20.8 4 23 4.5 2.2.5 7.8 1.6 12.5 2.5 4.7.9 9.2 1.8 10.1 2.1 1.9.5 2-.1-3.1 18.9-1.7 6.6-3.8 14.5-4.5 17.5-.8 3-3 11.8-5 19.5-2 7.7-4.3 16.5-5 19.5-.8 3-2.3 8.9-3.4 13s-4 15.4-6.5 25c-2.4 9.6-5.9 22.9-7.7 29.5-1.7 6.6-3.9 15.4-4.9 19.7l-1.8 7.6 3.7-1.3c10.5-3.7 27-9.9 29.6-11 1.7-.7 5.9-2.3 9.5-3.5 3.6-1.3 7.9-2.9 9.5-3.5 2.6-1.1 12.1-4.7 31.5-11.9 21.3-8 46.3-17.4 55-20.8 31.3-12 38.5-14.6 39.2-13.9 1 .9 3.8 31 3.8 41.3 0 9.9-2.5 40.1-4.1 49.8-5.4 32.5-11.5 54.3-21.9 79.1-19.3 45.6-45.8 81.4-85.8 116-5.6 4.9-9.9 8.9-9.5 8.9.5 0 4.8-1.4 9.7-3 36.2-12.3 71.4-30.6 101.6-52.9 31.9-23.5 64.6-56.3 89.5-89.6 1.6-2.2 3.4-4.5 4-5.1 3.9-4.4 24.9-37.4 33.2-52.3 8.2-14.5 25.3-49.6 25.3-51.8 0-.4.6-1.9 1.3-3.3.7-1.4 2.6-6 4.1-10.3 1.6-4.2 3-7.7 3.3-7.7.2 0 1.9.7 3.8 1.4l3.5 1.5V1395h14v-341c0-187.6.4-341 .8-341 .8 0 28.3 10.5 43.2 16.5 3.6 1.4 9.2 3.5 12.5 4.6 3.3 1.2 7.8 2.9 10 3.9 4.1 1.8 11.3 4.6 37 14.5 8.3 3.2 21.1 8.1 28.5 11 15.9 6.2 12.3 4.8 34 13.3l17.5 6.8.7-2.6c.4-1.4 1.4-21.5 2.3-44.5 2-56.1 3.6-94.9 3.8-95.1.2-.2 42.3 1.8 85.2 4.1 16 .8 47.2 2.4 69.5 3.5 22.3 1.1 44.8 2.3 50 2.6l9.5.7-2.5-2.9c-1.4-1.6-2.7-3.1-3-3.4-.3-.3-3.9-4.1-8-8.5-4-4.4-11-11.8-15.4-16.5-4.5-4.7-13.7-14.6-20.6-22-6.9-7.4-13.8-14.8-15.4-16.5-1.7-1.6-5.9-6.2-9.4-10-3.6-3.9-9.7-10.4-13.6-14.5-3.9-4.1-13.2-14-20.6-22-7.4-8-16.9-18.1-21.1-22.5-8.7-9.3-16.6-17.7-23.8-25.4-2.8-3-5-6-4.8-6.5.2-.6 33.3-27.9 73.5-60.6 64.5-52.4 72.9-59.6 70.9-60.3-1.2-.4-6.7-1.5-12.2-2.3-9.3-1.4-16-2.4-37.5-5.9-4.7-.7-14.8-2.2-22.5-3.4-7.7-1.1-18.3-2.8-23.5-3.6-5.2-.8-13.8-2.2-19-3-5.2-.9-13.5-2.2-18.5-3-4.9-.8-14.4-2.2-21-3.1-6.6-.9-13.6-2-15.5-2.5-3.8-.9-2.5 1.3-23-38.4-4-7.7-10.1-19.4-13.5-26-3.4-6.6-9.6-18.5-13.7-26.5-4.2-8-10.7-20.6-14.6-28-3.8-7.4-8.9-17.2-11.2-21.7-4.7-9.2-3.9-9-12.3-3.4-2.3 1.5-6.9 4.5-10.2 6.6-3.3 2.1-9.6 6.1-14 9-13.7 8.9-28.6 18.4-38 24.4-4.9 3.2-13 8.4-18 11.6-4.9 3.2-13.6 8.7-19.3 12.4-5.7 3.6-13.8 8.9-18 11.6-13.6 8.9-25.7 16.4-27.4 17-1.8.7-3.1-.1-20.8-12.4-6.3-4.4-16.4-11.4-22.5-15.6-6-4.2-16.4-11.3-23-15.9-6.6-4.7-18.3-12.8-26-18.1-7.7-5.3-19.2-13.2-25.5-17.6-17.6-12.2-25.9-17.9-26.2-17.9-.2 0-2 3.3-4 7.2zm186.3 234.6c1.5.9 5.1 3.6 8 5.9 3 2.3 7.4 5.7 9.9 7.5 16.7 12.4 17.2 36.5 1.4 68-10.4 20.7-20.4 30.9-30.5 31.2-2.8 0-4.8-.8-8.5-3.7l-4.9-3.8-.3 15.5c-.2 11.6.1 17.2 1.3 21.6 1.3 5.1 1.4 6.4.2 9.2-2.1 4.9-4.1 6.2-8.9 5.5-5.7-.8-22.7-9.5-25.2-13-1.8-2.4-1.9-3.2-.8-7.2 1.7-6.2 1.7-119.4.1-124-1.7-4.5-.4-10.1 2.7-12.1 2.3-1.6 2.9-1.5 9.7.5 9.6 2.8 16.3 2.6 27.2-.9 9.7-3.2 13.9-3.2 18.6-.2zM750 430c17.3 6.7 20 8.1 23.8 12.4 4.4 5.1 5.4 9.3 5.9 25.1.2 7.7.6 16.5.9 19.5.5 4.7.3 5.9-1.6 8.2-1.7 2.3-3 2.8-6.3 2.8-5.1 0-18.3-4.3-22.9-7.4l-3.3-2.2v-18.9c0-13-.3-18.9-1.1-19.2-2.1-.7-7.1 4.6-9.5 9.9-1.9 4.4-2.3 7-2.3 15.3-.1 9.2.2 10.4 2.9 15.5 2.8 5 4.1 6.2 17.5 14.7 21 13.4 25.5 18.1 28.6 29.8 1.9 6.9 1.8 21.1-.2 26.8-2.1 6.2-8.3 13-14.7 16.1-6.4 3.1-16.7 4.8-22.2 3.7-8.7-1.9-22.1-5.2-24.8-6.3-5-2-10-8.9-13.6-18.9-1.8-5.2-4.7-11.5-6.3-14.2-3.4-5.2-3.3-8.2.4-11.9 1.9-1.9 2.8-2 11.2-1.4 10.7.7 20.5 2.9 21.7 4.7.4.8 1.3 4.5 1.9 8.4 2.2 13.7 4.7 18.4 8.8 15.9 3.7-2.3 5.7-8.4 5.7-17.9 0-12.8-2.1-16.2-13.6-23-18.4-10.7-28.6-19.7-33.5-29.5-3.7-7.2-4.5-20.6-1.9-29.6 3.7-12.8 14.1-28 22.4-32.4 5.2-2.9 10.4-2.1 26.1 4zm-307.7-1.6c15.4 7.4 27.7 27.8 32.1 53.5 3.2 19.1 1.7 46.2-3.5 62.1-6.9 21.2-16.8 32.9-31.1 36.7l-6.4 1.6-15.8-4.6c-8.7-2.6-17.6-5.7-19.9-6.8-9.9-5.1-18.2-17.8-22.9-34.9-2-7.5-2.3-10.8-2.3-28.5.1-18.1.3-21.3 2.8-33 3.9-17.9 8.3-30.8 13.1-37.9 5.3-7.7 9.2-9.9 16.6-9.1 3.5.3 7.3 0 10.5-1 7.9-2.3 19.7-1.5 26.8 1.9zm69.7.3c8.9 2.5 12.7 4.5 13.6 6.8.3.8-.3 4.3-1.4 7.7-2.7 8.5-3.3 21.7-2.2 49.9 1.8 44.6 6.1 67.9 12.6 67.9 2.6 0 6.1-4.8 8.3-11.7 5.5-16.8 9.3-65.6 7.2-93.3-.6-8.1-1.5-16-2.1-17.5-1.5-4-1.2-8 .9-10.6 1.7-2.1 2.7-2.4 7.8-2.2 6.6.2 21.8 4.4 24 6.6 3.2 3.2 2.3 72.2-1.2 98.8-4.6 34.9-14 51.9-28.9 51.9-3.8 0-24.8-5.8-38.6-10.7-8.4-3-12.5-9.6-16.9-27-6.5-25.8-9-78.7-5.1-106.8 2.1-14.6 3.3-15.1 22-9.8zm311.5-.6c3.9 1.9 5.1 3 5.6 5.4.4 1.6.7 23.3.8 48 .1 50.1.2 49.5-6.2 49.5-7.3-.1-23.2-9.2-26.3-15.2-1.2-2.4-1.2-3.4.6-9 1.8-5.8 2-9.2 2-42v-35.7l2.3-2.2c1.9-1.8 3.1-2 9.2-1.6 4.6.2 8.7 1.2 12 2.8zm-4.3 115.1c10.2 3.9 11.9 6 11.3 14.1-.3 3.4-.8 10.6-1.1 16.1-.7 11.3-2.3 14.3-7.4 13.2-5.8-1.1-18.6-6.7-21.9-9.4l-3.5-2.9 1.8-6.2c.9-3.4 1.6-7.8 1.5-9.9-1-15.1 1.1-20 7.9-18.7 2.1.4 7.2 2 11.4 3.7z"/><path d="M646.5 455.3c-3.2 1.7-7.6 4.8-9.7 6.8l-3.8 3.6v21.6c0 14.1.4 21.7 1 21.7s3.1-1.9 5.6-4.2c10.2-9.4 22.2-42.2 18.8-51.2-1-2.5-5.3-1.9-11.9 1.7zM428.6 450.2c-.8 1.3-2.5 5-3.7 8.3-2.9 8-5.5 11.5-8.4 11.5-1.3 0-2.7-.5-3-1-1.2-2-2.3-.9-3.8 4.2-3.2 10.5-3.9 18.5-3.4 38.1.6 21.1 2.1 29.1 7.3 38.6 4.3 8 11.1 10.5 15.9 5.7 7.6-7.6 12.3-27.2 13.2-55.7.8-24.9-1.6-42.8-6.8-49.3-2.5-3.2-5.4-3.3-7.3-.4z"/></svg>