<svg version="1.0" xmlns="http://www.w3.org/2000/svg" width="190" height="288" viewBox="0 0 1239 1664"><path d="M663.3 145.8c-1 1.1-4.7 6-8.2 11-3.4 5-11.6 14.7-18 21.4-6.4 6.8-16.1 17.9-21.6 24.8-16.4 20.7-42.6 52.6-89 108.5-73 87.8-83.8 101.6-83.3 106.2.3 3.1.7 3.2 20 7.3 7.8 1.6 12.7 2.1 17.8 1.8l7-.5v2.6c0 1.4-.4 6.4-1 11.1-.5 4.7-1.7 29.4-2.5 55-.9 25.6-2 50-2.5 54.4-1.2 11.8-1.9 12.3-21.6 15.2-8.8 1.3-17.3 2.3-19 2.4h-3.1l-.6-12.1c-.4-6.7-1.3-13.3-2-14.8-1.1-2.3-1.8-2.6-6.2-2.6-7.4.1-38.5 8.4-41.1 11.1-1.6 1.5-2.7 4.8-4 12.5-2.4 13.7-2.6 13.9-15.4 13.9-12.2 0-13.5-.9-14.5-9.7-1.5-13.5-2.9-14.2-23.8-10.7-8.4 1.4-15.8 3.1-16.6 3.8-1.1 1.2-1.1 3.4-.3 12.2.6 6 .9 11 .7 11.2-.2.3-4.9 1-10.5 1.7-9.8 1.3-14.6.9-17.4-1.4-.7-.6-3.9-6.8-7.2-13.8-3.2-7-11.2-22.7-17.6-34.8-6.9-12.8-11.4-22.3-10.9-22.8.6-.6 3.5-.1 7.2 1.2 10.8 3.6 11.9 3 11.9-7.3s10.8-77.2 16.4-102.1c1.9-8.3 3.3-15.1 3.3-15.2-.2-.1-36.5 4.9-70.3 9.7-.1 0-.5 6.4-.9 14.2-.4 7.9-1.3 15.7-2 17.5-1.4 3.4-2 3.6-13.5 4.7-3 .3-7.6.9-10.1 1.2-6.1.8-7.6-.8-11.3-12.3-1.6-4.8-3.9-11.2-5.2-14.1-3.6-8.1-4.3-8.2-27.9-2.6-11 2.6-20.1 4.8-20.3 4.9-.1.1 1.1 8.2 2.7 18.1 1.6 9.8 2.6 18.2 2.3 18.6-1.1 1.1-21.7 7.8-23.9 7.8-3.1 0-6.9-3.5-10.4-9.8-5.6-9.8-14.8-23.1-16.8-24.2-3-1.5-4.9-1.3-17.2 2.4-6.3 1.9-14 4.2-17.1 5-4.9 1.4-5.8 2-5.8 4 0 1.2 4 11 8.8 21.7 4.9 10.7 12 26.4 15.8 34.9 3.7 8.5 9 19.3 11.6 24 2.6 4.7 7.6 13.6 11 19.8 7.1 13.1 7.9 13.5 17.1 10.3 9.1-3.3 38.8-11 42-11.1 1.8 0 3.9 1 5.8 2.9 2.7 2.7 2.9 3.5 2.9 10.6 0 4.5-2 19.5-5.1 37.3-8.2 48.7-8.7 51.5-12.9 80.7-6.5 44.4-15.4 96.9-24 140-2.7 13.7-7.2 38.8-10 55.6-6.6 40.8-8.2 48.1-18.1 83.4-2.1 7.7-5 19.2-6.4 25.5-1.8 8.2-3.5 13.1-5.9 17-2.6 4.3-4 8.7-6.5 20.5-1.8 8.2-3.9 18-4.8 21.7-1.6 6.5-1.5 6.9.3 8.9 1.5 1.7 2.6 1.9 6.4 1.5 2.5-.4 14.4-1.9 26.5-3.5 12.1-1.7 29.2-3.7 38-4.5 33.1-3.2 95.4-4.6 146.5-3.2 28.1.8 65.4-.4 125.3-4l10.7-.7V1468h14V1021.3l6.3-.6c3.4-.3 17.2-1.6 30.7-2.8 13.5-1.1 25.5-2.5 26.8-3 4.3-1.7 4.5-4 3.6-45.9-1.5-75-1-89.9 3.7-118.5 6.8-41.7 13.8-59.1 30.9-77.8 12.3-13.4 39.7-34.6 52.5-40.6 18.2-8.6 46-12.4 63.8-8.6 3.7.8 9.5 2.9 12.8 4.6 14.6 7.8 30.9 30.5 38.2 53.4 4.5 13.6 9.9 45.1 12.9 73.5 1.8 17.5 1.7 89.7-.2 109-.8 8-1.5 17-1.5 20v5.5l3.9.3c2.2.2 6.7-.1 10-.7 3.4-.6 17.6-2 31.6-3.1 31.3-2.5 37.1-3.1 78-8 17.9-2.2 41.5-4.7 52.5-5.5 39.8-3 107.7-11 127.5-15 6.9-1.3 19-2.9 27-3.5 8-.6 28.5-2.6 45.5-4.5 17.1-1.8 35.4-3.6 40.8-4 5.4-.3 12.3-1.5 15.4-2.6 3.1-1 15.6-3.3 27.7-4.9 12.2-1.7 22.9-3.3 23.8-3.6 3.4-1 3-4.1-2.1-14.3-2.8-5.5-6.6-15.1-8.5-21.3-4-13.4-19.2-77-23.5-98.3-8.7-43.6-31.9-176.8-36.1-207-4.3-31.9-18-139.5-18-142.2 0-2.2.4-2.3 7-2.3 4 0 8.6-.6 10.6-1.5 4.3-1.8 6.2-5.7 20.2-41.6 5.5-14 13.9-34.3 18.8-45.2 6.8-15.3 8.5-20.2 7.8-21.5-.7-1.1-6-2.7-16-4.9-16.6-3.6-21-4-24-1.8-1.2.8-5.8 6.8-10.4 13.4-8.6 12.6-13.3 17.6-17.5 18.7-4.3 1.1-11.6-.6-14.1-3.1-2.2-2.2-2.4-3.2-2.4-12.3 0-13-.6-13.9-8.6-12.4-3.2.6-10 1.4-15.1 1.8-6.6.5-9.6 1.1-10.6 2.3-.9 1-1.7 5.2-2.1 11.6-.4 5.5-.9 12.5-1.2 15.7l-.6 5.6-6.2.8c-3.3.4-8.1.8-10.6.9-2.5.1-7 .6-10.1 1-7.8 1.1-8 .9-19.5-26.2-2.5-5.9-6.3-5.4-30.8 3.8-13.9 5.3-17.6 7.7-17.6 11.8 0 1.4 2.2 6.4 5 11 4.6 7.9 10.6 23 21.1 53 5.8 16.9 8.5 19.9 18.9 21l5.5.6.3 4.9c.4 6.8-14.2 65.8-17.2 69.3-2.1 2.4-2.7 2.4-25.4 3.5s-23.4 1-26-.9c-2.4-1.8-2.8-2.8-3.3-9.9-.6-8.6-3.6-16.6-6.9-18.4-2.6-1.4-38.5-1.3-41.2.1-2 1.1-2 1.7-1.4 12.4.9 15 1.6 14.5-20 14.5-14.1 0-16.3-.2-17.7-1.8-1.6-1.7-6.7-17.9-6.7-21.3 0-1-1.1-3-2.3-4.5l-2.4-2.7-15.8 1.7c-8.7 1-16.3 2-16.9 2.2-2.5 1-3.6 4.9-4.7 17.6-.6 7.3-1.5 14.1-2 15-1.6 2.9-4.3 3.8-14.7 4.4l-9.9.7-1.7-7.4c-4.6-20.3-13.2-80.5-14.3-100.6-.5-9.2-.3-11.3.8-11.7.8-.3 10-1.3 20.4-2.2 10.5-.9 19.6-2.1 20.3-2.6 2.5-2.1 1-5.5-9.6-21.7-13.7-20.9-24.6-39.5-42.9-73.1-8-14.6-16.2-29.3-18.4-32.7-4.9-7.5-11.1-21.1-27.7-60.9-17.8-42.7-21.6-53.1-24.6-66.9-1.7-8.1-3-12.4-4.2-13.2-2.4-1.7-3.1-1.6-5.1.5zM648.7 374c9 4 20.8 19.5 26.1 34.2 5.5 15.3 7.4 29 9.2 65.8 2.6 53.7 2.8 61.5 1.6 64-1.1 2.5-1.4 2.5-16.1 3.1-9.8.4-21.2 1.8-33 3.8-9.9 1.8-23.3 3.9-29.9 4.7-10.4 1.3-12.1 1.3-13.4 0-1.9-1.9-2.6-21.4-2.5-72.1.1-32.1.4-40.8 1.8-48.9 4.1-23.9 14-43.8 25.1-50.7 9.2-5.7 23.3-7.5 31.1-3.9zm380.2 247.6c13.6 6.8 24.7 33.4 29.1 69.8.9 7.5.9 9.2-.5 11.2-.8 1.3-1.7 2.4-1.9 2.4-.1 0-6.3 1.1-13.7 2.5-58.6 10.7-66.8 11.6-72.6 7.9-1.9-1.2-2.3-2.3-2.3-6.9 0-12.7 4.4-33.5 10-46.9 7.5-18.1 24-37.3 35.5-41.4 5.2-1.8 10.8-1.4 16.4 1.4zM301 687c10.7 5.5 24.8 35.3 28.5 60.4 1.7 11.4 1.4 14-1.3 15.5-.9.5-15.6 1.2-32.7 1.5-17 .4-35.9 1.1-41.9 1.7-6 .5-11 .9-11.1.7-.8-.8 10.6-43.2 13.2-49.5 3.7-8.8 10.8-19 16.3-23.3 11.3-8.9 20.7-11.2 29-7z"/></svg>