<svg version="1.0" xmlns="http://www.w3.org/2000/svg" width="190" height="288" viewBox="0 0 1105 1664"><path d="M673.4 108.1c-14.6 1.7-30 8.3-38.8 16.7-5.6 5.3-13 17.1-16.5 26-4.8 12.6-6.4 22.7-5.8 36.6.8 20.4 5.2 30.7 22.3 52.6 10.7 13.7 26.6 37 32.3 47.1 3 5.4 3.1 5.9 2 10.7-1.6 6.7-.9 8.2 4 8.2h3.9l4 10.2c2.2 5.7 5.1 14.2 6.5 18.9 1.7 5.8 4 10.7 7.1 15.3 5.8 8.4 18.6 34.6 22.2 45.1 3.9 11.7 4.3 26.5 1.4 50-1.3 9.9-2.3 23.5-2.4 30.2v12.2l-7.6 2c-23.5 6.3-42.3 8.7-93.5 11.6-28.1 1.6-40.2 2.7-51.9 4.6l-7 1.1-13.1-6.7c-12.4-6.4-13.5-6.8-22.5-7.6-10.2-.9-20.6-3.7-25.6-6.8-3.5-2.1-14.5-17.4-18.9-26-3.5-7-4.2-14.1-2.1-21.4 2.7-9.4 4-7.5 5.2 7.8.8 10.5 2.2 14.7 5.9 17.1 2.2 1.4 4.3 1.6 14.8 1.1l12.2-.5 5.6 3.5c13.5 8.3 21.6 4.6 26.4-11.9 1.3-4.6 1.4-6.2.4-8-2.8-5.4-7.1-8.4-13.9-9.6l-3.9-.7 3.9-4.5 3.8-4.5 7.9 7.5c8.9 8.6 13.2 11 19.5 11 5.2 0 13.6-4.5 16.7-8.9 9.1-12.8 8.6-27.9-1.4-39-6.2-6.8-13-7.5-27.2-2.7l-6.8 2.3-5.9-2.9c-3.2-1.6-6-2.7-6.3-2.5-.2.3.3 2.9 1.1 5.8.9 2.9 1.5 5.4 1.3 5.5-.3.4-20.9-3.7-21.6-4.3-.7-.5 2.3-3.4 5-4.9 1.6-.8 5.2-1.8 8.1-2.2l5.3-.8-8-2c-7.3-1.8-8-2.2-8.3-4.6-.5-4 1.6-10.4 4.5-13.8 1.4-1.7 2.9-3 3.3-2.8.5.2 3.4 3.6 6.5 7.6 7.9 10.1 13.5 12.3 21.4 8.2 5.7-2.9 10.7-9.3 14.2-18.4l3.1-8.1-4.5-9-4.5-9.1 2.3-5.7c6.3-15.4 5.3-23.1-4.1-33.6l-5.7-6.3-7.9.7c-4.3.4-7.8.5-7.8.2s.9-2.6 2-5.2 1.8-5.1 1.5-5.5c-.3-.5-4.3-3.6-8.9-7l-8.3-6.2 5.9-18.1c3.2-10 7.4-23.2 9.3-29.4l3.6-11.2 5.2-1.6c2.9-.9 6.2-2.8 7.4-4.1 2.4-2.7 2.2-4.8-1.6-12.1-1.7-3.4-2.8-4.3-5.5-4.9-9.7-1.8-14.6 3.5-12.3 13.2.7 2.9.3 3.5-6.5 10-6.8 6.4-31.7 24.4-33.7 24.4-2.1 0-7.9-24.2-8.8-36.6-.5-7.7-.5-8.1 2.1-10.9 4.8-5.1 4.4-11.3-.8-13.6-3.5-1.6-10.9 2-12.6 6.1-1.4 3.5-.6 9.2 1.7 11.5 2.8 2.8 1 8.6-6.8 22-4 6.9-9.4 14.8-11.8 17.7-4.8 5.4-12.4 10.9-15 10.7-.9 0-9-8.3-18.1-18.4l-16.4-18.4-.1-6.4c0-7.2-1.2-9.2-6.3-11.4-3-1.2-3.6-1.2-6.5.8-9.8 6.8-13 12.8-10.2 19.6.9 2 2.1 4.1 2.8 4.5.7.4 4.2.8 7.9.8h6.7l.7 3.7c.3 2.1 2.4 10.8 4.6 19.3 3.3 12.7 4.1 17.3 4.2 25.5.1 10.1-1.7 19.4-3.8 20-.6.1-4.5 1-8.7 1.9-21.1 4.7-28.5 13.1-31.2 35.9l-1.2 10-5.8 5.1c-9.8 8.5-10.8 12.7-5.2 22.9 1.9 3.5 3.5 7 3.5 7.8 0 .9-1.3 2.8-3 4.4-4.2 4-7 10.6-7 16.4 0 3.6-.4 5.1-1.6 5.5-.9.4-1.8.5-2 .4-.1-.2-.6-5.7-1.1-12.3l-.8-12-2.4 4.8c-2.7 5.6-2.6 12.9.2 18.6 1.9 3.7 1.7 4.1-4.8 15.1-7.5 12.5-8 20.8-2.1 31.5 3.3 6.1 4.5 7.1 18.6 15.7 5.5 3.4 6 4 6 7.3 0 3-.3 3.5-1.7 3.1-14.6-4.5-18.8-4.2-23.8 1.6-5.6 6.6-5.8 13.7-.7 18 1.5 1.3 4 3.9 5.5 5.9 2.7 3.6 2.8 3.6 7.3 2.8 8-1.5 12.4-5.9 18.9-18.8 4.2-8.4 3.6-8.6 9.6 3.2l3.9 7.7-1.9 3.8c-1.1 2.1-2.2 5.5-2.6 7.5-.7 3.5-.4 4.1 3.3 7.6 8.7 8.3 17 9.9 27.5 5.3l4.7-2.1V482.8l7.5.7c16.4 1.6 21.1-2.3 23.9-19.6.6-3.5.6-3.5-5.1-5.9-3.1-1.3-6.9-2.3-8.5-2.3-3.2 0-7.6 3.7-13.6 11.6l-3.7 4.8-1.2-2.8c-2.6-6-.9-12.4 5.3-20l3.5-4.3H431c12.7 0 15.9.3 16.3 1.4.3.8 1.1 6 1.8 11.5 1.6 12.3.5 20.2-4.3 32.1l-3.3 8-15.4 8.8C407 517.7 402 522 397.5 531.5c-4.3 9.1-9.9 14.4-30.1 28.5-48.8 34.1-86.2 58-122.7 78.3-11.1 6.2-32.7 21.3-32.7 22.9 0 1.3 13.4 12.3 19.6 16.1 6.8 4.1 21.4 9.2 29.1 10.3 6.2.8 5.1 3.7 9.3-25.6 1.7-11.8 3.3-22.5 3.5-23.7.8-3.6 38.1-29.4 65.5-45.3 13.4-7.8 39.5-21.1 49.9-25.5l6.4-2.7 18.9 4.8 19 4.7-.4 10.6-.4 10.6-8.3 17.6c-23.3 49.6-35.4 66.5-85 117.9-11.9 12.4-23.1 24.4-24.9 26.7l-3.2 4.1 5.7.8c7.3.9 21.7-.9 32.8-4.1 4.9-1.4 16.8-5.7 26.4-9.4 9.7-3.8 19.3-7.3 21.3-7.9l3.8-1 1.9 6.6c1.1 3.7 3.2 12.1 4.6 18.6 2.6 11.3 8.5 25.5 11 26.3.6.1 4.6-5.4 8.9-12.4 6.6-10.4 8.1-12.3 8.8-10.7.8 2 25.8 116 25.8 117.9 0 .6-3.7.9-10.2.7-30.2-1.1-56.4 8-74.8 25.9-8.5 8.2-21.4 26-17.9 24.7.8-.3 27.3-7.4 58.9-15.8 31.6-8.4 57.6-15.4 57.8-15.5.2-.1-1.9-9.2-4.7-20.1-5.8-23.2-7.6-32.5-9-44.9-1.4-12.3-3.4-42.5-2.9-43 .4-.4 5.4 5.7 10.7 13.1 3.8 5.3 8.7 9 15.1 11.5 3.8 1.5 5.2 1.6 5.5.7.4-1.4 10.5-60.8 10.5-62 0-.4 1.1-.2 2.5.4l2.5 1.1V1468h14v-349.5c0-192.2.3-349.5.7-349.5.6 0 14.2 4.9 15 5.4.7.5 21.7 75 22.9 81.6 1.9 9.9 1.5 25.2-.9 31.6l-1.5 4.1 3.4 1.7c1.9.9 4.4 1.6 5.6 1.6 2.4 0 80.9-20.1 87.3-22.3l4-1.4-5.8-3.7c-3.1-2-12.3-6.9-20.4-10.9-14.6-7.2-14.6-7.2-22.7-7.1-10 .1-18.3 3.2-29.3 11.1-4.1 2.9-7.8 5.1-8.3 4.8-1-.6-6-21.3-8.9-37-2.7-13.9-5.1-35-5.1-43.6v-6.6l3.8-.6c2-.3 9.1-1.1 15.7-1.8s12.1-1.3 12.2-1.4c.2-.1-2-5.7-4.7-12.5-2.8-6.8-5-12.6-5-12.8 0-.6 9.6.6 25.8 3.4 7.9 1.3 16.7 2.4 19.6 2.4 5.5 0 16.2-1.7 18.4-2.9.8-.5-4-6.2-14.8-17.6-14.5-15.4-17.5-19.5-15.2-20.8.6-.4 19.2 2.1 27.4 3.7 2.4.5 3-.1 6.3-6 2-3.6 3.5-6.7 3.3-6.8-.1-.2-15.4-10.1-33.8-22.1-41.6-27.1-44.8-29.3-56.2-41.4-20.2-21.2-34-45.5-41.4-72.6l-2.5-9 9.3-8.8c26.3-24.9 29-26.7 46.3-29.1 35.7-5.2 72.8-7.9 100.5-7.4 20 .3 20.6.4 26.5 3.1 6.5 3 12.4 8.1 16 13.8 2.3 3.6 2.3 3.6.9 16-.8 6.8-2.3 16.9-3.3 22.4-1.1 5.5-2.3 12.2-2.6 15-.8 5.8 1.3 17.1 4.5 24.2 2.3 5.3 10.1 17.6 10.7 17 .2-.2-.5-2.4-1.5-4.8-1.1-2.5-2.6-7.6-3.5-11.4-4-17.5-3.2-31.5 3.6-64.4l4.3-20.4 10.4.3c5.8.1 11.6.3 13 .3 2.3.2 2.6-.3 3.8-5.8 1.9-9.2 1-21-2.3-28.3-4.1-9.2-4.9-9.6-15.9-9.3l-9.4.3-.7-15.4c-.3-8.4-.5-27.7-.4-42.8.3-25.7.2-28-1.9-35.5-3.1-11.2-9.1-23.3-17.2-34.5-11.5-16-16.9-30.1-17-44v-5.5l5.6-3 5.6-3-.7-4c-2-12.5-2.2-11.2 4.8-22.5 3.7-5.8 9.8-14.5 13.7-19.4 12.4-15.6 18.3-27.1 25.9-51.1 8.5-26.5 7.5-41.6-4-61.2-5.4-9.1-19.2-22.4-27-26.1-11.5-5.5-26.2-7.7-39.5-6.1zm41.4 68.9c1.6 5.3 1.5 9.5-.3 13-2.6 5-5.5 3.5-5.5-2.8-.1-3.1-1.7-5.5-4.2-6.5-2.5-.9-2.2-2.3 1-4.5 5.9-4.2 7.4-4.1 9 .8zm-207.9 97.4c-.2.1-3.1 1.5-6.4 3l-6 2.6 3.3-3c2.2-2 4.3-3 6.4-3 1.7 0 2.9.2 2.7.4zm-87.5 16.2c-2.5 6-4.9 11.3-5.3 11.7-.8.8-3.1-8.6-3.1-12.4 0-1.4 11.8-11.1 12.8-10.4.1.1-1.8 5.1-4.4 11.1zm92.4.1c-1.1 2.4-2 2.8-6.3 3.1-6.7.3-8.4-.8-6.5-4.3 1.5-2.9 5.7-5.5 10.5-6.5 2.7-.5 3-.3 3.3 2.2.2 1.5-.3 4-1 5.5zm-55.3-1.7l1.8 4 3.4-4c1.9-2.2 3.8-4 4.3-4 .8 0 9.3 13.1 8.8 13.5-5 3.9-15.9 11.5-16.7 11.5-.9 0-11.3-15.8-12.6-19.1-.4-1.2.6-2.4 3.7-4.2 2.4-1.4 4.6-2.4 4.9-2.2.3.2 1.4 2.2 2.4 4.5zm-57.1 7.1c2 1.5 2.6 2.9 2.6 5.7 0 6.8-1.3 6.9-6.9.1-3.9-4.6-4.9-6.4-3.9-7 2.2-1.5 5.4-1 8.2 1.2zM385 312.2l5.2 9.8h-5.4c-3 0-5.9-.5-6.6-1.2-1.3-1.3-1.6-9.9-.5-16.1.3-2.1.9-3.5 1.3-3 .5.4 3.1 5.2 6 10.5zm132.6-.5c-1.6 1.4-4 2.3-5.9 2.3h-3.2l5.5-3.9c4.5-3.2 5.6-3.7 5.9-2.3.2.9-.9 2.6-2.3 3.9zm-86.8 28.7c3.4 1.8 7.5 6.1 9.8 10.6 1.6 2.9 1.9 5.7 1.9 16.5 0 14.8-1.1 19.5-5.8 25.7-3.5 4.6-11.7 9.7-15.5 9.8-1.3 0-5-1.5-8.2-3.3l-5.9-3.2-1.3-7c-.7-3.9-1.3-12-1.3-18 0-12.3 1.3-16.2 7.7-22.2 2.7-2.5 14.4-10.3 15.6-10.3.2 0 1.5.6 3 1.4zm94.2 4c0 2.7-1.5 4.2-2.5 2.6-.8-1.3.3-5 1.6-5 .5 0 .9 1.1.9 2.4zm-166 8.2c0 1.1-.9 2.9-2 3.9-2 1.8-2 1.7-2-5.1v-6.9l2 3c1.1 1.6 2 3.9 2 5.1zm23 7v13.5l-2.9-1.6c-1.7-.8-3.2-1.9-3.5-2.3-.2-.4.6-5.7 1.9-11.8 1.3-6 2.4-11.3 2.5-11.7 0-.5.5-.5 1-.2.6.4 1 6.2 1 14.1zm169.1-9c2.6 1.3 5 2.8 5.4 3.4.9 1.5-3.4 1.2-9.1-.5-2.7-.8-5.8-1.5-7-1.5-2.1 0-5.7 3.2-6.6 6-.6 1.6-7.8 4.5-7.8 3.1 0-.3 1.6-3 3.6-5.9 5.8-8.6 11.3-9.8 21.5-4.6zm-72.4 8.2c5.9 11.5 4 17.1-7.2 21.7l-6 2.4-2.2-2.1c-3.2-2.9-6.3-9.8-6.3-13.6 0-4.4 2.3-9.7 5.6-12.7 2.4-2.2 3.6-2.5 7.8-2.3l5 .3 3.3 6.3zm-96.3 48.7c.1 8.6-1.5 16.5-3.4 16.5-.4 0-3-2.9-5.6-6.5l-4.9-6.6-7.1.4c-11.8.6-18.4 5.9-18.4 14.5 0 7.2 6.8 12.2 16.4 12.2 1.4 0 2.6.3 2.6.6s-1.3 2.5-3 4.8c-4.2 6.2-6 6.7-14.8 4.1-4.3-1.3-5.5-2.2-7.1-5.3-3-5.9-3.4-12.1-1.5-22.9 2.6-15.4 1.3-14.3 15.2-14.2 13.9 0 20.6-1.9 26.2-7.5 3.4-3.3 3.5-3.4 4.4-1.3.4 1.2.9 6.2 1 11.2zm119.1 10.4c-1.1 15-.8 14.3-8.3 17.7-3.6 1.6-7 3-7.4 3.2-1 .5-1-5.9 0-7.4.4-.6 2.5-2 4.7-3.2 3.9-1.9 4.1-2.4 6.4-11 1.9-6.8 2.8-8.9 3.9-8.5 1.1.5 1.3 2.2.7 9.2zm11.8-.6c-.4 3.6 0 6.4 1.1 9.1.9 2.2 1.5 4.1 1.2 4.3-.9 1-6.6-7-6.6-9.4 0-2.2 3.4-9.3 4.5-9.3.2 0 .1 2.4-.2 5.3zm-148.9.3c.9 2.4.7 2.8-.9 1.4-1.7-1.4-2-3-.6-3 .5 0 1.2.7 1.5 1.6zm26.6 20.5c0 .3-3.1 2.7-7 5.2-7.3 4.9-10.6 9.3-9.6 13.1.3 1.3 3.7 6 7.5 10.7 4 4.7 6.6 8.8 6.2 9.2-1.1 1.1-7.5 1.2-9.4 0-.8-.4-3.8-2.9-6.7-5.6l-5.2-4.7.3-7.3c.4-6.5 1.1-8.6 6.3-19.4l5.9-12.2 5.8 5.2c3.3 2.8 5.9 5.4 5.9 5.8zm8.8 3.4c3.7 1.3 5.2 2.4 5.2 3.7 0 1.5-.8 1.8-4.5 1.8-4.2 0-4.6-.2-6.6-4.1-1.4-2.9-1.7-4-.7-3.7.7.3 3.7 1.3 6.6 2.3zm134.2 6c0 1.1-1.2 1.5-4.5 1.5-7.2 0-5.3-2.4 2.3-2.9 1.3 0 2.2.5 2.2 1.4zm-139-.2c0 .1-3.6 3.8-8 8.2l-8 8V447h8c4.4 0 8 .1 8 .3zm107 3.1c0 1.6-2.1 2.6-5.6 2.6-1.7 0-2.4-.6-2.4-2 0-1.7.7-2 4-2 2.8 0 4 .4 4 1.4zm30 9.6l3.5 1.9h-13l2.4-1.9c2.8-2.4 2.7-2.4 7.1 0zm-107.7 9.7c-.7.2-1.9.2-2.5 0-.7-.3-.2-.5 1.2-.5s1.9.2 1.3.5zM342 480.3c3.7 6.3 3.7 6.5 1.6 7.1-3.5 1-9.6.7-9.6-.4 0-2.1 3.3-14.1 3.7-13.6.3.2 2.2 3.4 4.3 6.9zm5.8-4.6c.2 1.5-.5 2.3-2.7 3.1-3.6 1.3-3.6 1.1-1.5-2.9 1.7-3.3 3.7-3.4 4.2-.2zm49.3 9c3.9 2.3 6.1 7 5.7 11.8l-.3 4-6.1-8.5c-8.2-11.5-8.1-11.2-4.8-10 1.5.6 4 1.8 5.5 2.7zm-15.6 16c-.4 2.1-1.1 4.5-1.7 5.3-.7 1.1-.8.9-.4-1 .3-1.4.6-3.7.6-5.3 0-1.5.5-2.7 1.1-2.7.8 0 .9 1.2.4 3.7z"/><path d="M423.6 371.2c-2.3 3.3-2 7.5.9 10.3 4.7 4.8 11.9 1.9 11.9-4.8 0-4.9-2.7-7.7-7.5-7.7-2.8 0-4.2.6-5.3 2.2zM465.2 361.6c-3.4 2.3-2.7 8.3 1.1 10.4 2.4 1.3 3 1.3 5.5 0 3.7-2.1 4.4-8.1 1-10.4-1.2-.9-2.9-1.6-3.8-1.6-.9 0-2.6.7-3.8 1.6z"/></svg>