<?xml version="1.0" standalone="no"?>
<!DOCTYPE svg PUBLIC "-//W3C//DTD SVG 20010904//EN"
 "http://www.w3.org/TR/2001/REC-SVG-20010904/DTD/svg10.dtd">
<svg version="1.0" xmlns="http://www.w3.org/2000/svg"
 width="1000.000000pt" height="1000.000000pt" viewBox="0 0 1000.000000 1000.000000"
 preserveAspectRatio="xMidYMid meet">
<metadata>
Created by potrace 1.11, written by Peter Selinger 2001-2013
</metadata>
<g transform="translate(0.000000,1000.000000) scale(0.100000,-0.100000)"
fill="#000000" stroke="none">
<path d="M1867 9633 c-1 -1 -156 -3 -345 -4 -189 -1 -368 -6 -399 -10 -69 -9
-92 -30 -98 -89 -4 -39 0 -62 21 -155 3 -11 7 -31 10 -45 3 -14 11 -50 18 -80
8 -30 17 -75 21 -100 4 -25 11 -72 16 -105 5 -33 12 -80 15 -105 3 -25 12 -83
20 -130 7 -47 16 -103 19 -125 4 -22 8 -47 10 -55 3 -8 7 -32 11 -54 3 -21 8
-48 10 -60 5 -25 33 -188 40 -231 2 -16 9 -55 15 -85 6 -30 12 -71 14 -90 3
-19 7 -46 10 -60 3 -14 7 -36 10 -50 3 -14 7 -36 10 -50 3 -14 7 -34 9 -45 3
-11 12 -51 21 -90 22 -90 20 -84 45 -195 22 -99 57 -267 65 -310 12 -63 17
-88 30 -152 8 -38 14 -72 14 -76 -1 -4 0 -9 1 -12 1 -3 4 -18 6 -35 8 -47 74
-313 85 -343 6 -15 12 -34 14 -42 3 -8 7 -25 11 -36 4 -16 -3 -32 -28 -60 -59
-66 -158 -299 -179 -421 -12 -69 -6 -231 9 -260 6 -10 10 -21 10 -26 3 -82
136 -409 213 -526 51 -74 80 -139 67 -147 -13 -8 -56 -12 -191 -18 -53 -2
-103 -9 -111 -15 -19 -16 -19 -24 -19 -1806 0 -1824 8 -2577 28 -2730 14 -108
37 -130 150 -140 155 -14 715 -23 1805 -30 730 -4 1213 -11 1490 -21 656 -22
727 -23 1460 -28 597 -4 701 -3 735 10 22 8 49 17 60 19 11 3 34 9 50 13 33 9
32 0 19 147 -9 110 -11 1317 -1 1398 12 102 29 118 128 118 81 0 124 17 135
51 7 22 7 96 0 150 -2 19 4 34 20 49 41 38 220 72 456 86 113 6 167 -6 169
-40 1 -12 0 -56 -1 -97 -10 -245 -5 -282 56 -407 83 -174 162 -228 318 -219
114 7 131 11 223 56 75 37 170 117 182 153 2 7 9 19 16 27 24 30 32 88 30 220
-2 147 2 133 -81 285 -34 61 -80 160 -88 190 -2 6 -6 18 -9 28 -16 40 -19 54
-24 97 -2 25 0 56 5 70 5 14 58 93 116 175 143 200 163 243 166 343 4 112 -23
190 -93 275 -35 42 -134 120 -162 127 -5 1 -14 4 -20 6 -46 17 -144 29 -210
28 -176 -4 -282 -61 -369 -197 -76 -119 -101 -209 -110 -402 -8 -161 -17 -194
-56 -203 -19 -4 -204 -3 -300 2 -41 3 -101 5 -132 5 -63 1 -62 1 -72 81 -18
143 -34 155 -197 159 -53 1 -77 16 -84 51 -9 41 -18 273 -30 760 -10 432 -25
702 -46 848 -16 106 -43 142 -111 143 -42 0 -127 4 -160 7 -33 3 -46 29 -42
79 4 53 12 110 19 133 2 8 7 33 10 55 13 92 85 407 99 432 8 16 17 53 21 83
10 81 28 162 90 411 31 123 58 231 60 239 3 15 15 59 55 200 12 41 24 87 26
101 9 51 52 198 163 554 61 198 113 369 115 380 2 11 21 85 41 165 20 80 38
150 39 155 2 6 9 30 16 55 7 25 14 50 16 55 1 6 16 60 34 120 18 61 34 121 36
135 3 14 21 77 40 140 20 63 44 144 55 180 22 72 78 291 86 330 2 14 15 70 28
125 29 122 45 192 51 225 3 14 9 41 14 60 21 81 22 135 3 158 -18 21 -92 39
-138 32 -35 -4 -735 -2 -1140 4 -214 4 -588 9 -830 11 -619 7 -3924 22 -3928
18z m3968 -147 c463 -10 709 -16 865 -21 85 -3 317 -7 515 -10 380 -5 468 -9
509 -25 23 -8 50 -42 41 -51 -2 -3 -7 -20 -10 -39 -6 -32 -21 -104 -31 -140
-2 -8 -17 -67 -34 -130 -16 -63 -32 -126 -35 -140 -2 -14 -25 -95 -50 -180
-25 -85 -47 -162 -49 -170 -2 -8 -34 -116 -69 -240 -36 -124 -84 -297 -107
-385 -47 -179 -70 -259 -130 -455 -51 -166 -100 -330 -105 -351 -2 -9 -12 -47
-24 -85 -11 -38 -29 -103 -40 -144 -65 -243 -132 -489 -140 -515 -11 -35 -52
-190 -57 -220 -2 -11 -20 -78 -39 -150 -19 -71 -36 -141 -39 -155 -2 -14 -9
-45 -16 -70 -7 -25 -13 -52 -15 -60 -2 -8 -24 -96 -49 -195 -44 -175 -54 -219
-61 -260 -29 -174 -39 -222 -48 -233 -7 -10 -48 -11 -176 -8 -277 9 -445 16
-467 21 -12 3 -31 23 -44 48 -58 110 -180 122 -277 28 -18 -17 -35 -31 -37
-31 -2 0 -23 16 -47 36 -52 43 -107 72 -135 69 -37 -3 -114 -27 -114 -36 0 -5
-6 -9 -13 -9 -7 0 -23 -11 -35 -25 -12 -14 -30 -26 -39 -26 -10 -1 -49 -3 -88
-4 -109 -3 -196 -15 -230 -30 -45 -20 -78 -25 -184 -32 -181 -10 -691 -4 -946
12 -178 11 -274 17 -325 20 -30 1 -86 6 -125 10 -38 4 -88 9 -110 10 -22 1
-61 5 -87 9 -27 3 -69 8 -95 11 -45 5 -63 8 -137 20 -16 2 -44 -2 -63 -10 -19
-8 -39 -12 -44 -9 -5 3 -21 30 -36 61 -15 30 -38 62 -51 71 -49 32 -160 9
-217 -45 l-36 -34 -34 30 c-59 51 -154 64 -230 29 -36 -15 -54 -32 -84 -75
-12 -18 -26 -33 -31 -33 -4 0 -18 21 -30 48 -53 114 -132 151 -229 107 -30
-14 -61 -23 -70 -20 -17 5 -101 123 -101 141 0 7 -7 17 -15 24 -8 6 -14 15
-13 18 1 4 -15 41 -35 82 -32 67 -59 136 -72 180 -3 8 -14 47 -25 85 -57 197
-38 391 57 578 44 88 75 96 169 45 176 -95 303 -148 469 -198 39 -11 77 -24
85 -27 8 -3 17 -7 20 -8 3 -1 16 -6 30 -12 61 -25 201 -74 265 -92 116 -34
326 -93 344 -96 9 -2 16 -4 16 -5 0 -1 7 -3 15 -5 8 -2 40 -10 70 -18 81 -22
226 -45 315 -52 28 -2 68 -6 90 -9 22 -3 81 -8 130 -11 50 -4 101 -8 115 -10
14 -2 66 -7 115 -10 50 -3 106 -8 125 -10 19 -3 67 -7 105 -10 39 -3 88 -8
110 -12 22 -3 59 -6 82 -7 24 -1 43 -4 43 -7 0 -3 10 -5 22 -4 12 1 40 -2 63
-6 22 -4 58 -10 80 -13 54 -7 187 -36 196 -42 15 -9 169 -33 247 -39 43 -3 97
-8 122 -10 25 -2 86 -6 135 -10 105 -7 158 -11 277 -20 103 -8 227 -8 318 -1
155 12 196 16 220 21 31 6 160 17 220 19 l45 1 -2 -36 c-3 -40 -64 -261 -89
-318 -8 -20 -32 -70 -53 -111 -45 -88 -56 -126 -39 -136 17 -11 53 38 107 146
74 146 122 287 146 425 3 17 8 37 10 45 2 8 7 33 9 55 4 33 47 250 60 306 28
116 50 690 32 834 -4 28 -9 67 -11 87 -7 57 -27 135 -75 293 -26 85 -54 187
-76 275 -9 36 -31 98 -50 138 -34 74 -36 97 -18 192 2 14 7 41 10 60 2 19 9
58 15 85 5 28 11 59 13 71 2 12 14 51 25 89 25 79 26 108 7 124 -11 9 -20 7
-40 -14 -14 -14 -26 -30 -26 -35 0 -6 0 -13 -1 -17 -1 -24 -151 -243 -171
-251 -4 -2 -8 -8 -8 -13 0 -5 -10 -21 -22 -35 -87 -102 -116 -119 -145 -84
-39 47 -245 137 -348 153 -16 3 -59 13 -95 22 -36 9 -74 19 -85 21 -11 2 -56
13 -100 24 -44 12 -87 23 -95 25 -8 2 -71 17 -140 34 -69 16 -136 32 -150 35
-14 2 -72 14 -130 26 -58 11 -125 23 -150 25 -25 3 -61 7 -80 10 -19 3 -55 7
-80 10 -25 2 -65 7 -89 9 -24 3 -75 8 -115 12 -39 3 -84 7 -101 9 -78 7 -163
17 -190 20 -16 2 -68 7 -115 10 -47 4 -96 8 -110 11 -146 24 -787 23 -915 -2
-37 -7 -79 -12 -172 -20 l-73 -7 -31 66 c-17 37 -32 75 -34 84 -2 10 -4 19 -5
21 -2 1 -3 5 -4 10 -2 4 -7 25 -14 47 -6 22 -13 51 -16 65 -15 72 -17 84 -22
91 -3 5 -7 54 -10 109 -7 117 -14 150 -36 164 -62 39 -162 -240 -184 -510 -11
-143 -12 -317 -2 -340 28 -62 174 -117 268 -103 84 13 162 44 179 71 14 22 -7
72 -46 116 -18 18 -16 42 2 42 20 0 20 0 57 11 18 5 58 12 88 15 30 3 58 8 62
10 37 23 709 22 938 0 19 -2 75 -7 124 -11 50 -4 97 -8 105 -10 9 -2 52 -6 96
-10 44 -4 91 -8 105 -10 14 -2 50 -6 80 -10 30 -4 71 -9 90 -11 19 -2 49 -5
65 -8 17 -2 59 -8 95 -11 36 -4 68 -9 71 -11 4 -2 23 -6 43 -9 20 -3 51 -7 69
-10 17 -2 75 -14 127 -25 52 -12 106 -23 120 -26 14 -3 97 -23 185 -45 88 -22
167 -42 175 -44 8 -2 78 -20 155 -40 233 -60 302 -89 379 -157 37 -33 37 -33
16 -48 -65 -46 -245 -198 -258 -218 -14 -21 -12 -25 39 -75 87 -86 257 -207
352 -250 37 -17 37 -17 65 11 35 35 73 109 102 197 13 39 28 86 34 105 18 54
40 50 59 -12 29 -94 116 -429 132 -505 2 -10 8 -39 14 -66 20 -87 24 -121 24
-242 -1 -146 -14 -370 -29 -465 -4 -25 -8 -58 -9 -75 -3 -33 -9 -72 -24 -151
-36 -184 -62 -234 -132 -248 -13 -2 -46 -9 -72 -15 -26 -6 -65 -13 -85 -16
-20 -2 -57 -7 -82 -10 -25 -3 -70 -9 -100 -13 -129 -17 -661 6 -980 43 -102
12 -137 17 -160 25 -14 5 -38 11 -55 15 -16 4 -38 9 -47 11 -40 9 -55 12 -93
18 -22 3 -67 8 -99 11 -33 3 -73 8 -90 10 -37 5 -170 18 -306 31 -171 15 -362
37 -435 49 -35 6 -96 13 -175 20 -68 6 -137 14 -170 20 -14 3 -41 7 -60 10
-45 7 -238 53 -270 64 -14 5 -61 19 -105 31 -44 12 -88 26 -97 31 -10 5 -24 9
-32 9 -17 0 -200 57 -242 76 -17 8 -39 25 -48 38 -18 29 -65 183 -72 241 -3
22 -13 56 -22 75 -14 28 -23 35 -47 35 -31 0 -55 -31 -155 -195 -14 -24 -35
-43 -49 -47 -36 -9 -91 25 -115 72 -19 37 -21 56 -21 260 1 195 8 330 21 398
29 154 44 239 49 272 3 23 7 52 10 65 5 25 10 62 20 140 3 25 8 56 10 70 3 14
7 43 10 65 4 39 11 81 20 120 2 11 7 42 11 69 5 44 41 196 59 253 5 16 1 24
-16 33 -20 11 -25 10 -41 -10 -19 -24 -43 -99 -53 -165 -3 -22 -9 -62 -15 -90
-5 -27 -12 -68 -15 -90 -4 -22 -8 -53 -11 -70 -2 -16 -6 -46 -9 -65 -2 -19 -7
-51 -10 -70 -3 -19 -8 -53 -10 -75 -3 -22 -6 -49 -9 -60 -2 -11 -7 -47 -11
-80 -4 -32 -8 -66 -10 -75 -1 -8 -6 -35 -9 -60 -7 -51 -9 -61 -30 -150 -8 -36
-18 -96 -21 -135 -7 -84 -24 -198 -31 -204 -11 -11 -27 22 -49 103 -13 48 -26
99 -28 114 -3 15 -24 106 -47 202 -23 96 -43 182 -45 190 -4 18 -24 99 -29
120 -5 17 -46 196 -51 221 -2 9 -13 60 -24 113 -12 53 -24 113 -27 134 -3 20
-8 40 -10 43 -2 4 -6 24 -10 45 -3 22 -16 89 -29 149 -14 61 -27 121 -29 135
-6 33 -46 230 -52 255 -4 21 -10 61 -19 130 -22 177 -47 331 -65 410 -10 44
-21 94 -23 110 -3 17 -12 64 -20 105 -23 117 -23 118 26 122 71 5 4336 0 4602
-6z m-3556 -723 c17 -43 22 -137 8 -155 -16 -21 -48 -30 -67 -18 -12 7 -12 19
-1 87 19 114 37 140 60 86z m-27 -253 c4 -1 17 -4 28 -7 16 -4 18 -8 9 -19 -6
-8 -14 -12 -18 -10 -4 3 -12 -4 -19 -14 -16 -26 7 -42 69 -48 27 -2 52 -9 55
-14 6 -9 -52 -69 -64 -66 -4 1 -19 -5 -34 -12 -27 -13 -39 -49 -18 -51 6 -1
16 -2 23 -3 6 -1 17 1 22 4 6 4 25 12 43 18 30 10 36 9 58 -13 33 -33 21 -55
-50 -88 -31 -15 -61 -36 -68 -47 -28 -44 -84 -7 -103 68 -16 60 -13 269 3 299
10 18 17 21 35 14 12 -5 25 -10 29 -11z m218 -370 c0 -19 -44 -50 -72 -50 -37
0 -37 25 0 44 31 17 72 21 72 6z m3613 -205 c0 -39 -4 -81 -7 -95 -3 -14 -11
-54 -17 -90 -6 -36 -15 -70 -20 -76 -5 -6 -7 -13 -4 -16 9 -8 -32 -172 -53
-213 -24 -48 -62 -86 -88 -87 -30 -3 -102 37 -199 110 -108 81 -117 94 -89
122 l21 21 79 -60 c75 -56 92 -65 122 -62 23 2 12 22 -53 91 -66 70 -73 93
-34 105 19 6 57 -9 74 -31 15 -18 87 -54 97 -48 18 11 6 36 -43 90 -27 30 -48
61 -46 67 6 20 36 19 78 -2 79 -42 126 -16 70 38 -17 17 -31 39 -31 50 0 17 6
20 43 18 l42 -2 -3 47 c-3 53 20 101 47 96 13 -3 16 -16 14 -73z m-3882 -1523
c0 -4 2 -16 5 -27 11 -54 -24 -88 -67 -65 -18 10 -20 18 -16 47 8 48 34 76 58
62 11 -5 19 -13 20 -17z m-254 -1202 c21 -22 39 -44 39 -50 1 -5 3 -11 4 -12
1 -2 4 -14 5 -28 2 -14 4 -30 5 -35 6 -29 -3 -54 -29 -83 -89 -97 -209 37
-156 175 13 33 26 49 49 59 43 18 41 19 83 -26z m753 -37 c27 -35 41 -89 30
-118 -30 -79 -169 -40 -186 53 -18 95 95 142 156 65z m-331 12 c19 -6 41 -58
41 -96 0 -31 -33 -84 -61 -99 -65 -35 -158 7 -174 80 -18 83 91 148 194 115z
m3483 -64 c32 -28 33 -33 35 -110 2 -103 -13 -127 -80 -124 -75 3 -124 37
-145 101 -14 40 -1 71 45 113 62 58 98 62 145 20z m-320 -8 c31 -33 39 -59 43
-127 4 -90 -26 -144 -84 -153 -76 -11 -136 0 -176 33 -29 23 -30 26 -30 109 0
99 4 104 91 140 80 33 123 33 156 -2z m-360 -83 c10 -14 21 -38 24 -54 3 -16
6 -31 6 -35 5 -18 -15 -49 -38 -59 -35 -17 -50 -15 -121 10 -68 24 -95 57 -74
95 36 68 164 95 203 43z m-3033 -59 c33 -35 59 -53 91 -61 54 -15 126 -6 160
18 56 42 65 43 117 21 26 -11 76 -22 111 -24 56 -3 69 0 111 26 58 35 60 35
116 5 42 -22 48 -23 118 -12 76 12 256 13 462 2 366 -19 667 -27 1071 -31 397
-3 348 4 491 -70 37 -19 71 -28 125 -31 67 -4 113 -9 163 -18 11 -2 43 -10 70
-18 92 -27 189 -13 244 37 51 46 74 51 116 25 32 -19 62 -24 133 -21 12 1 42
19 65 41 48 43 89 56 177 54 81 -2 262 -13 301 -18 19 -3 68 -8 109 -12 41 -3
93 -8 115 -10 22 -2 67 -6 100 -8 33 -3 76 -7 95 -10 19 -3 53 -7 75 -10 93
-11 91 -6 100 -266 18 -537 27 -3231 12 -3710 -4 -124 -7 -237 -7 -251 0 -33
-26 -57 -75 -66 -71 -14 -2320 -3 -2343 11 -6 3 -13 2 -17 -4 -4 -6 -11 -8
-16 -4 -5 3 -256 7 -557 9 -1958 15 -2394 23 -2418 48 -7 7 -24 142 -30 242
-11 171 -14 533 -18 2273 -3 1486 -2 1854 9 1858 6 3 63 6 126 7 l114 2 48
-47 c41 -41 53 -48 87 -48 64 0 160 58 160 96 0 12 14 21 34 23 4 1 29 -21 55
-48z m6462 -1311 c151 -28 253 -127 288 -281 29 -125 -4 -198 -164 -364 -75
-77 -101 -110 -114 -143 -17 -40 -22 -159 -10 -210 5 -20 11 -44 13 -52 18
-71 73 -186 144 -302 21 -35 40 -66 41 -70 1 -4 3 -13 6 -20 35 -107 21 -228
-37 -312 -73 -106 -171 -154 -313 -150 -90 2 -137 18 -180 61 -28 28 -101 153
-90 153 3 0 1 8 -4 18 -21 39 -31 176 -19 247 3 17 17 67 32 113 30 96 32 129
10 160 -15 22 -18 22 -192 17 -165 -4 -206 -7 -322 -20 -25 -3 -89 -8 -142
-11 -79 -5 -98 -4 -99 7 0 8 0 43 1 79 4 149 8 229 14 238 6 10 39 11 371 17
236 4 305 15 305 48 0 7 -7 32 -16 57 -16 45 -25 108 -25 185 -1 54 10 196 16
205 3 4 7 25 11 46 6 44 54 148 81 180 78 88 242 131 394 104z m-1317 -924
c-3 -14 -10 -26 -15 -26 -5 0 -9 -6 -9 -14 0 -19 -59 -66 -76 -59 -18 7 -18
17 1 53 18 36 86 93 98 81 4 -4 5 -20 1 -35z m-41 -194 c-10 -28 -25 -42 -44
-42 -37 0 -9 54 30 57 15 1 18 -3 14 -15z"/>
<path d="M3075 7953 c-69 -17 -388 -168 -444 -210 -95 -72 -191 -202 -242
-329 -26 -63 -32 -93 -32 -149 0 -59 5 -102 13 -125 1 -3 3 -9 4 -15 14 -69
110 -244 175 -317 88 -98 220 -164 408 -203 15 -3 69 -8 118 -11 163 -8 197
-12 208 -23 14 -14 -13 -45 -53 -61 -32 -13 -46 -38 -26 -46 23 -9 141 42 251
109 111 67 205 171 248 272 26 63 84 285 94 363 8 59 8 213 0 256 -14 73 -19
91 -48 151 -65 136 -213 259 -379 315 -63 21 -244 35 -295 23z m335 -132 c67
-19 152 -67 199 -114 43 -42 96 -139 106 -192 3 -16 8 -46 12 -65 3 -19 6 -83
6 -142 -1 -208 -49 -340 -180 -494 -103 -120 -207 -165 -382 -164 -134 1 -187
8 -291 42 -104 33 -166 69 -273 158 -24 20 -87 106 -114 155 -50 93 -78 242
-60 325 23 111 171 304 296 387 72 48 207 102 280 111 87 12 350 7 401 -7z"/>
<path d="M3025 7353 c-36 -19 -65 -50 -66 -72 -1 -9 -2 -32 -4 -51 -1 -19 2
-46 7 -59 10 -27 44 -60 65 -62 7 -1 19 -2 26 -3 41 -6 135 54 138 88 0 6 2
20 4 31 9 47 -71 145 -118 145 -12 -1 -35 -8 -52 -17z"/>
<path d="M4319 7489 c-102 -9 -174 -43 -248 -116 -51 -51 -131 -169 -131 -193
0 -5 -5 -21 -12 -37 -20 -49 -21 -56 -21 -148 0 -124 48 -271 140 -424 48 -80
94 -126 164 -165 104 -59 182 -82 200 -60 15 18 30 10 -131 82 -65 29 -150 98
-150 122 0 28 23 25 104 -14 78 -38 105 -38 230 -6 145 37 228 97 279 202 124
255 88 484 -106 670 -50 49 -107 74 -192 84 -21 3 -42 6 -45 8 -3 1 -39 -1
-81 -5z m221 -126 c142 -64 217 -240 179 -422 -6 -31 -16 -62 -21 -68 -6 -7
-8 -13 -4 -13 11 0 -25 -63 -62 -109 -85 -105 -295 -137 -433 -65 -63 32 -139
142 -156 224 -14 72 -7 173 17 222 28 61 136 178 200 217 28 17 50 29 50 27 0
-2 12 -1 28 4 48 14 154 5 202 -17z"/>
<path d="M4325 7080 c-31 -12 -44 -32 -49 -73 -4 -29 0 -42 17 -57 36 -34 116
-20 123 21 10 65 8 75 -16 99 -21 21 -42 24 -75 10z"/>
<path d="M6154 3329 c-65 -5 -86 -11 -107 -29 -32 -28 -35 -40 -7 -33 36 9 57
-24 77 -122 3 -11 6 -144 7 -295 2 -299 2 -297 63 -368 32 -37 47 -39 146 -24
37 6 78 9 90 6 12 -2 36 -6 52 -10 17 -3 34 -6 38 -7 5 -1 11 52 13 117 6 224
21 428 39 576 7 54 6 56 -31 95 -84 87 -83 86 -196 94 -57 3 -139 3 -184 0z
m151 -63 c17 -2 41 -4 55 -5 48 -2 53 -13 50 -102 -1 -46 -3 -104 -5 -129 -2
-25 -6 -88 -9 -140 -7 -143 -21 -274 -31 -290 -3 -5 -15 -7 -28 -5 -12 2 -40
6 -62 9 -22 4 -52 9 -67 12 l-28 6 -1 116 c-1 171 -15 358 -33 460 -8 44 -9
45 -7 59 2 18 58 21 166 9z m161 -200 c-1 -19 -4 -37 -7 -40 -3 -3 -4 9 -3 27
3 46 4 47 8 47 2 0 3 -15 2 -34z m-39 -562 c-3 -3 -12 -4 -19 -1 -8 3 -5 6 6
6 11 1 17 -2 13 -5z"/>
<path d="M4160 3156 c-15 -19 -16 -44 -6 -141 14 -141 17 -189 41 -650 14
-284 37 -343 155 -413 36 -22 58 -27 110 -27 131 0 155 28 104 123 l-29 54 23
19 c24 19 63 33 152 53 19 5 41 13 48 18 6 6 12 8 12 4 0 -9 68 27 116 62 96
70 137 167 148 343 6 100 -81 310 -170 407 l-42 47 -168 0 -169 0 -50 35 c-27
19 -53 34 -57 32 -5 -1 -8 2 -8 6 0 5 -6 9 -12 10 -43 6 -128 21 -154 27 -22
5 -34 2 -44 -9z m182 -119 c4 -7 8 -37 9 -67 1 -66 5 -95 20 -121 8 -16 13
-18 25 -8 8 6 14 20 14 30 0 53 172 148 258 142 6 0 19 -1 27 -2 23 -2 166
-151 192 -200 35 -65 47 -183 26 -246 -25 -76 -43 -104 -108 -168 -59 -59 -90
-69 -156 -51 -30 8 -79 19 -109 25 -30 6 -60 11 -66 12 -6 2 -32 14 -57 27
-25 13 -49 22 -52 18 -8 -8 -8 -82 -1 -219 l6 -106 -38 7 c-87 16 -89 26 -97
440 -3 198 -8 305 -19 417 -4 42 13 76 44 83 32 9 73 2 82 -13z"/>
<path d="M4472 2840 c-78 -57 -116 -143 -100 -229 17 -90 108 -144 243 -144
193 0 259 92 182 254 -49 105 -102 141 -214 145 -65 3 -75 1 -111 -26z m249
-77 c91 -100 89 -197 -3 -240 -61 -29 -86 -18 -123 60 -44 92 -44 117 3 166
48 51 86 55 123 14z"/>
<path d="M5481 3139 c-164 -42 -252 -114 -235 -192 22 -106 120 -228 215 -268
27 -12 50 -24 51 -28 6 -26 5 -71 -3 -98 -13 -42 -58 -69 -142 -84 -71 -13
-71 -13 -67 -78 5 -98 10 -108 109 -204 35 -34 77 -75 92 -91 l29 -28 72 42
c167 99 266 246 270 397 2 69 -11 96 -93 206 -93 124 -91 155 11 155 44 0 67
-6 84 -19 31 -25 53 -24 66 2 10 17 6 31 -16 75 -34 66 -161 199 -210 220 -45
19 -141 16 -233 -7z m152 -42 c-2 -26 -1 -27 20 -12 29 20 44 19 50 -6 4 -16
-1 -23 -26 -34 -18 -7 -49 -15 -70 -18 -20 -3 -43 -10 -51 -16 -7 -6 -15 -8
-18 -6 -3 3 -19 -8 -37 -24 -52 -49 -36 -94 49 -136 36 -18 126 -104 155 -148
56 -87 17 -276 -70 -336 -47 -32 -152 -73 -201 -79 -35 -4 -44 -1 -63 24 -27
34 -37 72 -25 92 5 8 38 23 73 34 75 23 137 62 148 92 10 31 4 111 -12 149
-18 43 -57 84 -120 127 -27 19 -51 37 -53 42 -2 4 -8 8 -14 8 -6 0 -24 13 -39
30 -62 64 -22 151 91 202 56 24 145 46 185 44 26 -1 30 -4 28 -29z"/>
<path d="M3715 3056 c-22 -7 -43 -13 -48 -13 -69 -10 -72 -13 -82 -108 -7 -76
-14 -133 -20 -165 -3 -14 -7 -41 -10 -60 -18 -109 -45 -154 -117 -191 -64 -33
-116 -21 -125 30 -5 26 -4 154 2 176 2 11 9 37 14 57 7 32 5 44 -20 90 -17 29
-34 65 -40 81 -12 31 -7 29 -77 31 -38 1 -58 6 -67 19 -32 44 -61 -7 -100
-178 -13 -57 -13 -178 0 -270 15 -112 69 -228 139 -301 12 -12 45 -47 75 -78
30 -31 65 -59 79 -63 35 -8 132 12 197 42 29 14 63 22 76 20 12 -3 53 -25 91
-50 37 -25 72 -45 77 -45 5 0 42 16 81 36 l72 37 -7 56 c-9 69 -7 329 5 601 3
71 -18 127 -83 218 -33 46 -46 49 -112 28z m36 -105 c1 -50 -3 -197 -6 -246
-2 -27 -7 -90 -10 -140 -3 -49 -8 -115 -10 -145 -17 -171 -18 -175 -46 -191
-11 -5 -28 -7 -38 -4 -19 6 -20 16 -7 163 2 23 1 44 -3 46 -4 3 -51 -24 -105
-60 -148 -96 -246 -118 -329 -72 -52 29 -101 109 -123 203 -19 79 -26 232 -13
279 5 17 14 50 19 74 6 24 20 52 31 63 17 17 68 26 81 14 3 -3 -1 -38 -9 -78
-8 -39 -16 -114 -18 -165 -2 -51 -6 -96 -8 -100 -3 -4 2 -27 9 -52 11 -36 23
-52 63 -79 61 -41 139 -63 179 -51 51 14 84 40 160 125 45 50 59 131 64 358 1
58 6 97 13 98 27 2 70 11 75 15 8 9 30 -29 31 -55z m73 21 c9 -14 -9 -31 -23
-23 -7 5 -10 14 -7 20 8 13 23 14 30 3z"/>
<path d="M2288 2945 c-2 -2 -22 -5 -45 -9 -53 -7 -155 -49 -190 -79 -99 -83
-135 -153 -139 -270 -5 -177 77 -298 278 -410 86 -48 170 -60 293 -45 129 17
191 61 247 176 32 67 39 134 25 237 -4 28 -9 68 -11 91 -7 64 -29 106 -83 154
-50 45 -145 98 -226 124 -42 15 -144 35 -149 31z m120 -56 c115 -42 138 -62
182 -155 48 -101 55 -184 24 -260 -18 -43 -141 -169 -180 -185 -48 -18 -162
-17 -234 2 -73 20 -120 40 -120 52 0 4 -5 7 -11 7 -19 0 -69 62 -94 116 -72
158 44 365 244 435 55 19 117 15 189 -12z m-185 -657 c16 -17 14 -32 -4 -32
-11 0 -39 30 -39 41 0 15 26 10 43 -9z"/>
<path d="M2220 2817 c-80 -38 -147 -153 -155 -266 -8 -127 58 -183 212 -177
97 3 158 31 178 80 18 42 28 94 25 126 -2 28 -6 68 -8 87 -3 19 -82 93 -139
130 -56 35 -74 38 -113 20z m158 -133 c46 -32 71 -160 42 -215 -11 -20 -83
-59 -109 -59 -21 1 -56 29 -70 57 -27 53 -6 157 41 199 40 37 64 41 96 18z"/>
<path d="M6274 2415 c-64 -14 -102 -42 -112 -80 -12 -43 -4 -62 42 -109 77
-77 133 -105 202 -101 60 4 157 50 178 86 49 82 -52 188 -195 205 -30 3 -56 7
-59 9 -3 1 -28 -3 -56 -10z m104 -39 c15 -8 36 -23 46 -35 18 -20 18 -22 3
-39 -24 -26 -77 -40 -142 -39 -65 2 -81 17 -59 58 32 62 95 85 152 55z"/>
<path d="M4020 2231 c0 -5 7 -11 15 -15 8 -3 15 -15 15 -26 0 -15 -7 -20 -24
-20 -36 0 -41 -18 -10 -32 23 -11 28 -10 44 9 23 28 15 67 -16 82 -13 6 -24 7
-24 2z"/>
<path d="M2900 2185 c0 -10 -10 -15 -31 -15 -32 0 -36 -15 -7 -34 12 -7 23 -5
42 7 28 19 36 57 11 57 -8 0 -15 -7 -15 -15z"/>
<path d="M5155 2178 c-26 -15 -36 -31 -26 -41 14 -14 48 2 54 23 7 25 -3 31
-28 18z"/>
<path d="M5121 1322 c-4 -10 -7 -98 -7 -198 1 -140 4 -185 15 -198 18 -22 29
-10 36 39 10 72 15 85 40 101 45 29 73 3 90 -84 7 -32 26 -49 55 -48 12 1 15
16 16 67 3 119 -56 192 -137 169 -41 -12 -50 0 -46 61 3 30 1 64 -4 75 -10 28
-47 38 -58 16z"/>
<path d="M1965 1318 c-19 -55 -22 -362 -4 -384 17 -21 26 -9 40 52 15 65 25
81 60 89 35 9 71 -22 76 -65 5 -48 28 -80 53 -73 11 3 20 9 20 14 0 16 27 9
46 -12 64 -71 142 -87 212 -42 65 42 71 90 9 63 -18 -7 -54 -15 -82 -17 -94
-7 -98 31 -6 62 93 31 115 69 66 115 -21 19 -36 24 -88 24 -72 1 -108 -18
-128 -66 l-12 -30 -24 46 c-31 62 -58 78 -125 74 l-53 -3 3 62 c2 34 -1 71 -8
82 -12 23 -48 28 -55 9z m450 -229 c13 -21 -87 -68 -118 -56 -21 8 -10 46 17
57 30 12 94 12 101 -1z"/>
<path d="M3372 1233 c-6 -10 -18 -48 -27 -83 -24 -93 -37 -110 -85 -110 -40 0
-53 11 -56 45 -3 43 -14 108 -20 114 -3 3 -14 -4 -25 -17 -15 -19 -18 -36 -15
-90 6 -124 34 -147 152 -128 10 2 34 -3 53 -10 41 -17 47 -17 49 -1 12 172 11
275 -2 286 -12 10 -17 9 -24 -6z"/>
<path d="M4382 1228 c-8 -10 -11 -50 -8 -129 5 -166 28 -210 114 -215 52 -4
72 8 65 36 -4 15 -14 20 -42 20 -49 0 -58 8 -72 62 -11 41 -11 49 4 65 9 10
26 19 39 20 26 2 50 30 46 53 -2 10 -16 15 -38 16 -57 2 -60 3 -60 23 0 10 -8
29 -18 41 -15 19 -20 20 -30 8z"/>
<path d="M1729 1208 c-3 -50 -2 -96 4 -158 12 -132 24 -154 86 -165 19 -3 37
-7 40 -9 3 -2 16 0 29 5 18 7 23 15 20 36 -3 25 -6 28 -38 25 -44 -4 -77 28
-84 80 -5 42 11 62 62 73 36 7 60 39 40 51 -7 5 -29 8 -48 9 -30 0 -37 5 -53
38 -21 43 -56 52 -58 15z"/>
<path d="M4874 1207 c-14 -59 20 -275 47 -302 16 -16 28 -18 90 -16 37 1 48 5
52 20 5 22 -10 31 -53 31 -49 0 -65 29 -62 109 2 29 3 31 38 37 35 6 69 37 59
54 -4 6 -23 11 -44 10 -57 -3 -64 -1 -57 15 3 8 1 26 -4 40 -13 34 -57 35 -66
2z"/>
<path d="M6014 1219 c-12 -20 -6 -192 9 -249 10 -38 27 -68 42 -74 9 -3 41 -6
70 -6 39 0 54 4 59 16 10 26 -2 34 -49 34 -39 0 -46 4 -59 29 -19 35 -26 74
-18 88 4 6 25 19 46 29 41 20 66 48 53 60 -4 4 -24 9 -45 10 -20 1 -39 2 -42
3 -4 1 -12 17 -19 36 -12 35 -33 45 -47 24z"/>
<path d="M6558 1198 c-3 -12 -3 -50 2 -158 3 -62 19 -110 35 -104 15 6 21 29
30 109 7 60 9 63 60 70 62 9 74 15 80 36 8 25 -3 59 -19 59 -7 0 -34 -11 -60
-25 -26 -14 -49 -25 -52 -25 -2 0 -9 11 -14 25 -10 27 -54 36 -62 13z"/>
<path d="M2836 1177 c-5 -21 0 -247 7 -282 3 -11 7 -37 11 -57 9 -50 33 -40
47 18 l11 44 63 0 c79 0 92 5 111 43 18 34 26 115 12 123 -4 3 -6 9 -3 14 3 4
-11 22 -31 39 -32 29 -41 31 -96 30 -53 -2 -63 1 -78 21 -23 30 -47 33 -54 7z
m174 -112 c42 -22 55 -50 37 -78 -32 -49 -127 -17 -127 42 0 50 35 64 90 36z"/>
<path d="M3453 1187 c-15 -24 -18 -114 -9 -267 5 -72 9 -88 28 -103 25 -21 31
-14 42 46 4 20 12 38 19 38 7 1 32 3 57 4 65 2 86 17 105 76 25 75 22 94 -20
136 -35 35 -40 37 -97 35 -32 -1 -63 -4 -68 -7 -5 -3 -12 5 -16 19 -7 28 -30
41 -41 23z m161 -118 c31 -15 47 -56 33 -86 -15 -34 -79 -32 -111 2 -55 59 1
119 78 84z"/>
<path d="M3757 1186 c-9 -10 -17 -25 -18 -34 -2 -40 -1 -94 5 -207 5 -96 10
-123 24 -133 14 -11 19 -10 29 5 7 9 13 31 13 49 0 38 10 43 73 37 26 -3 58
-2 70 1 31 7 57 65 57 127 0 45 -4 55 -34 85 -34 34 -50 38 -125 34 -26 -1
-39 4 -55 25 -21 26 -23 26 -39 11z m173 -135 c34 -34 31 -65 -10 -86 -24 -12
-31 -12 -61 3 -43 22 -54 58 -26 90 28 30 63 28 97 -7z"/>
<path d="M5793 1169 c-31 -11 -87 -90 -71 -100 6 -4 25 0 41 9 16 9 39 22 50
29 23 13 51 3 60 -20 6 -16 -10 -25 -85 -51 -38 -14 -50 -25 -66 -59 l-20 -42
22 -23 c12 -12 36 -24 54 -26 34 -5 162 12 174 23 4 3 9 36 11 73 3 50 0 77
-15 110 -28 64 -98 99 -155 77z m85 -171 c37 -37 -6 -77 -75 -69 -21 2 -15 38
9 61 25 23 48 26 66 8z"/>
<path d="M4149 1151 c-67 -21 -100 -63 -103 -130 -4 -71 80 -151 158 -151 35
0 140 81 124 95 -2 2 -30 -3 -63 -10 -71 -15 -135 -9 -135 13 0 10 82 52 102
52 8 0 27 11 42 25 l27 25 -22 29 c-17 23 -88 65 -102 60 -1 0 -14 -4 -28 -8z
m79 -68 c-2 -12 -23 -25 -57 -36 -65 -21 -87 -17 -71 13 14 26 44 39 93 39 31
1 38 -2 35 -16z"/>
<path d="M5486 1142 c-61 -21 -85 -53 -90 -115 -2 -37 2 -56 18 -79 46 -68
154 -92 217 -48 19 13 35 24 35 24 1 1 5 11 8 24 6 17 3 22 -11 22 -11 0 -28
-7 -39 -15 -30 -23 -144 -18 -144 6 0 10 43 40 62 43 37 6 107 56 108 77 0 14
-40 50 -73 64 -20 8 -38 15 -39 15 -2 -1 -25 -9 -52 -18z m89 -62 c0 -21 -104
-55 -119 -40 -8 8 -3 18 18 36 33 29 101 31 101 4z"/>
<path d="M6319 1143 c-66 -22 -89 -48 -89 -101 0 -77 53 -152 118 -169 55 -14
162 37 162 78 0 18 -31 21 -49 5 -23 -20 -114 -30 -142 -15 -20 10 -20 12 -3
30 9 10 50 31 90 46 63 24 74 31 74 51 0 24 -51 81 -74 83 -6 0 -18 2 -27 4
-8 1 -35 -4 -60 -12z m98 -60 c5 -13 -51 -40 -99 -48 -41 -8 -37 28 7 53 25
15 87 11 92 -5z"/>
<path d="M8398 3496 c-129 -46 -187 -113 -194 -226 -1 -19 -3 -39 -5 -45 -2
-5 0 -31 5 -58 6 -38 18 -58 62 -107 62 -67 100 -84 171 -75 82 9 116 26 169
81 62 64 77 109 76 226 -1 96 -21 157 -54 166 -10 2 -18 8 -18 13 0 5 -6 9
-14 9 -8 0 -33 9 -57 20 -55 25 -60 25 -141 -4z m124 -108 c67 -47 90 -170 48
-246 -23 -41 -87 -82 -127 -82 -31 0 -103 74 -104 107 -9 161 14 212 106 234
45 11 45 11 77 -13z"/>
<path d="M8467 2315 c-142 -48 -180 -98 -181 -240 -1 -95 17 -139 82 -201 51
-49 109 -68 186 -62 88 7 134 62 170 199 30 117 -7 296 -66 318 -40 15 -122 9
-191 -14z m116 -119 c44 -49 65 -121 53 -172 -8 -32 -94 -74 -153 -74 -49 0
-87 33 -100 85 -19 83 11 140 99 184 45 22 66 17 101 -23z"/>
</g>
</svg>
