<svg aria-hidden="true" xmlns="http://www.w3.org/2000/svg" width="100" height="125" viewBox="0 0 430 501"><path d="M9 2c-6 .5-6.5.7-7.4 3.3-.8 2-.5 4.8 1.1 11C3.9 20.8 5.4 28.3 6 33c1.1 8.5 3 20.5 5 31 .6 3 1.9 10.9 3 17.5 1 6.6 2.4 13.6 3 15.5 1.3 4.4 7.9 35.6 9 43 1 6.3 4.7 20.6 6 23.1.7 1.2.3 2.2-1.5 3.9-1.4 1.3-2.5 2.8-2.5 3.4 0 .6-1.3 3.6-2.9 6.7-4.5 8.5-5.7 16.7-3.8 26.1 2.1 10 7.4 22.9 12.6 30.7 2.2 3.4 3.9 6.7 3.5 7.2-.3.5-4 .9-8.3.9-5.1 0-8.2.4-8.9 1.2-1.1 1.4-.8 206.2.4 232.5.6 13.4.9 15.4 2.6 17 1.8 1.6 5.1 1.9 32.7 2.4 16.8.4 53.1.7 80.6.8 27.5.1 61 .6 74.5 1.2 34.4 1.5 111.8 2.3 113.3 1.1.7-.5 2.7-1.3 4.4-1.7l3.3-.7-.8-8.6c-.7-8.7-.9-51.7-.3-68.9.4-10.8 1.1-11.8 8.2-11.5 5.9.2 7.4-1.7 6.5-8.3-.6-3.8-.4-4.4 1.9-5.9 3.1-2.1 25.8-4.9 30-3.7 2.6.7 3 1.2 2.8 4.2-.9 14.3-.7 17.6 1.2 21.9 4.9 11.3 9 15 16.7 15 10.3 0 19.5-4.5 24-11.9 1.9-3 2.3-5 2.3-12.1 0-7.5-.3-9-2.6-12.5-3.6-5.5-8.1-16.2-8.5-20.5-.4-2.9.3-4.5 3.6-9 11-14.9 12-16.9 12-23.2 0-6.6-1.6-10.6-6.4-15.6-4.7-5-10.6-7.2-19-7.2-11.9.1-18 4.2-23.3 15.5-2.3 5-2.8 7.7-3.1 16.2-.3 6-.9 10.6-1.6 11.2-.6.5-6.5.7-14.6.3l-13.5-.7-.5-4.6c-.8-6.6-2.2-7.9-8.5-7.9-3 0-5.7-.5-6.3-1.3-.6-.7-1.3-14.1-1.7-33.2-.8-38.7-2-57.1-4.1-60.2-1.2-2-2.3-2.3-7.7-2.3-3.5 0-6.8-.5-7.3-1-.8-.8-.7-3.3.1-8.3 2.5-14.4 5.6-28.2 6.5-29.1.6-.6 1-2.5 1-4.2 0-1.8 1.4-8.6 3.1-15.1 1.7-6.5 3.7-14.5 4.5-17.8.7-3.3 1.9-7.8 2.7-10 .8-2.2 1.7-5.8 2.1-8 .4-2.2 1.5-6.7 2.6-10 6.8-21.5 12.1-38.6 12.9-42.5 2.2-9.7 3.1-12.9 5.9-22.5 1.7-5.5 3.3-11.6 3.7-13.5.4-1.9 2-7.3 3.6-12 1.5-4.7 3.4-11.4 4.2-15 .8-3.6 2.9-12.5 4.6-19.8C370.6 14.9 372 8.1 372 7c0-2.9-3.5-4.3-9.4-3.6-2.8.3-36.6.1-75.1-.6C216.6 1.7 20.9 1.1 9 2zm96.5 6.9c68.3-.7 158.3.1 200.5 1.6 8.5.3 23.2.5 32.5.6 19.4 0 24.1.5 25 2.7.3.8-.8 6.2-2.3 12.1-1.6 5.8-3.4 12.8-4.1 15.6-.6 2.7-2.3 8.6-3.6 13-4.1 13.5-10.7 36.8-11.7 41.5-.5 2.5-2.9 10.8-5.3 18.5-2.4 7.7-5.1 16.5-5.9 19.5-9 32.1-16.1 58.8-18.6 69.5-1.7 7.1-3.9 16.3-5 20.2-1.1 4-2.5 10.5-3.1 14.5-.6 4-1.3 7.9-1.5 8.7-.4 1.1-3.1 1.2-15.7.5-8.3-.4-16.4-.7-17.8-.6-2.1.1-3-.6-3.9-2.9-2.4-5.6-9.5-6.8-14.1-2.3l-2.8 2.7-3.1-2.7c-1.7-1.4-4.2-2.9-5.5-3.2-2.6-.6-9.4 2.2-10.2 4.3-.4.9-2.8 1.3-8.7 1.3-6.1 0-8.8.5-10.8 1.8-5.3 3.5-77.6 1.2-106.1-3.4-2.2-.4-4.3-.2-5.1.5-1.6 1.3-2.3.6-4.1-3.6-.9-2-2.3-3.5-3.9-3.9-3-.7-9.5 1.3-10.3 3.2-.6 1.5-3.3 2-3.3.6 0-1.2-4.6-3.2-7.4-3.2-4.1 0-8.3 2-9.4 4.5-1.4 3.1-2.9 3.2-3.7.2-1.8-5.7-8-8.9-12.1-6.2-1.3.8-2.9 1.5-3.6 1.5-1.6-.1-5.9-6.7-9.6-15.1-8.2-18.4-8.8-30.2-2.2-44.2 1.8-3.9 2.7-4.7 4.9-4.7 1.4 0 4.2 1.1 6.1 2.4 4.4 2.9 16.4 8.2 21 9.1 1.9.4 7.1 2.2 11.5 4 4.4 1.8 10.9 4 14.5 4.9 3.6.9 11 3 16.5 4.6 10.6 3.2 16.2 4 47.5 6.5 22.6 1.8 39.1 4.1 43.8 6 1.8.8 9.9 1.9 18 2.4 8.1.6 18.3 1.3 22.7 1.7 10.4.8 15.3.7 30.9-1.1 7.1-.8 13.1-1.3 13.4-1.1 1 1.1-4.3 19.4-6.9 23.7-3.7 6.3-4.4 8.9-2.5 8.9.9 0 3.3-3.6 6-9.3 4.3-8.7 6.8-17.3 8.6-29.7.5-3 1.5-8.4 2.4-12 1.1-4.2 1.9-13.3 2.3-26 .6-20.3-.1-26.3-5.2-42-.8-2.5-2.4-8.3-3.5-12.9-1.2-4.6-2.8-9-3.6-9.8-1-1-1.3-2.6-.9-5.1 2-12.8 2.9-17.2 4.3-21 1.2-3.4 1.2-4.5.3-5.5-1-.9-1.5-.8-2.7.7-.8 1.1-1.4 2.6-1.4 3.3 0 2-12.8 19.1-15.2 20.4-1.8.9-2.4.8-3.7-1-1.7-2.2-11.1-6.3-17.1-7.4-1.9-.4-9.6-2.2-17-4.1-22.8-5.9-30.9-7.4-47.5-9.1-8.8-.8-22.5-2.2-30.5-3-19-2-44.2-1.9-55.5 0-4.8.9-9.5 1.3-10.4 1-2.7-.8-8-19.3-8.1-28.2 0-9-3-9.8-6.5-1.9-3.2 7.2-5.3 18.9-5.6 31-.3 9.4-.2 9.9 2.2 11.7 5.3 4.1 12.3 4.8 18.7 1.9 4.8-2.2 5-3 2-7-1.2-1.6-1.9-3.2-1.7-3.5.3-.2 5.4-1.2 11.5-2.1 18.3-2.7 54.2-.9 94.4 4.7 10.2 1.4 23.6 4.4 44.5 9.9 16.6 4.3 19.1 5.3 22.5 8.1l3.5 2.9-2.1 1.8c-1.2.9-4.7 3.7-7.8 6.1-3.1 2.4-5.6 5-5.6 5.6 0 3 20.6 17.9 23.8 17.3 2-.4 6.7-9.7 7.7-15 .6-3.5 2-5.6 3.1-4.5.8.8 8.4 30 9.5 36.6 2.3 13.9-2.1 54.1-6.5 58.8-1.3 1.5-8.5 2.9-21.3 4.4-11 1.2-52.8-1.3-62-3.7-3.2-.9-6.5-1.7-7.3-1.9-2.2-.4-18.6-2.2-32.5-3.5-6.6-.6-14.7-1.5-18-2-3.3-.5-8.9-1.2-12.5-1.5-10.1-.9-17.5-2.4-30-6.1-6.3-1.9-13.8-4.1-16.5-4.9-2.8-.8-5.9-2-6.8-2.7-1.7-1.2-3.7-7.6-5.1-16-.7-3.7-3-5.6-5-3.9-.6.5-2.7 3.7-4.6 7-1.8 3.4-3.9 6.1-4.6 6.1-3.5 0-6.4-2.5-7.1-5.9-1.2-5.5-.4-29.8 1.1-36.1.8-3 1.9-9.3 2.6-14 2.9-21.5 5.4-35.7 6.7-38.4 1-2.3 1.1-3.1.1-3.7-2-1.3-3.6.9-4.8 6.4-1.5 7.7-3.9 22.6-5.5 35.8-.8 6.4-1.9 12.7-2.4 14.1-.5 1.4-1.3 6.2-1.6 10.7-.4 4.5-1.1 8.4-1.6 8.6-.9.6-2.5-4.3-4.3-13.5-.8-3.6-2.7-11.9-4.4-18.5-2.8-10.9-6.2-26.2-7.6-34-.3-1.7-2-9.5-3.7-17.5-2.9-13.7-4.1-20.7-5.4-32.5-.4-2.8-1.2-7.7-2-11C11 16.3 9.9 10 10.3 9.3c.3-.5 14.6-.7 31.9-.5 17.2.2 45.7.2 63.3.1zM69.6 56.5c-.3.8-1.5 1.5-2.7 1.5-2 0-2.1-.3-1.5-5.2 1-7 2.8-8.1 4-2.3.4 2.5.6 5.2.2 6zM68.5 62c1.8.7 1.9.8.3 1.5-3.2 1.3-2.1 3.5 1.8 3.5 2.8 0 3.5.4 3.2 1.7-.2 1-1.8 2.1-3.6 2.7-1.7.5-3.2 1.5-3.2 2.2 0 1.7 2.4 1.8 5.2.3 1.6-.8 2.4-.8 3.5.4 2 1.9 1 3.4-3.3 5.2-1.9.8-3.4 1.9-3.4 2.4 0 1.9-2.8 1.2-4.4-1.1-1.1-1.6-1.6-4.6-1.6-10.4 0-9.8.5-10.5 5.5-8.4zM79 82c0 1.4-3.9 3.2-5.2 2.4-.7-.5-.5-1.1.7-2.1 2.2-1.5 4.5-1.7 4.5-.3zm194.4 11.8c-.3 2.6-1.2 7.8-2 11.7-.8 3.8-1.8 8.3-2.1 10-.9 4.3-4.3 8.5-6.8 8.5-2 0-14.5-8.6-15.9-10.9-.3-.5.1-1.4.9-2.1 1.2-1 2.2-.6 5.5 2.4 4 3.6 7 4.6 7 2.5 0-.7-1.7-2.6-3.7-4.4-2.2-1.9-3.4-3.6-2.9-4.3 1-1.6 3.1-1.5 4.8.1.7.8 2.3 1.9 3.5 2.5 3.7 2 4-.7.4-3.8-1.7-1.5-3.1-3.3-3.1-3.9 0-1.5 2.7-1.4 5.3.4 1.5 1 2.7 1.1 3.7.5 1.3-.9 1.1-1.3-.9-2.9-2.2-1.7-2.2-4.9 0-3.5.6.3 1.7.3 2.5 0 1.1-.4 1.2-1 .5-2.4s-.6-2.5.5-4.1c2.3-3.2 3.4-1.6 2.8 3.7zm-209 80.8c1.3 3.5.7 5.4-1.9 5.4-2.7 0-3.2-1.8-1.5-5.1 1.3-2.3 2.6-2.4 3.4-.3zm-12.9 65c3.6 3.9 3.1 10.3-.9 12.2-6.5 2.9-10.8-9-4.9-13.6 2.4-1.7 3.1-1.5 5.8 1.4zm40.8 3c2.2 4.5.9 7.4-3.3 7.4-3.8 0-7.6-5-6.1-7.9 2.4-4.4 7.2-4.1 9.4.5zm-17.1-.1c2.7 6-3.4 11.6-9 8.4-5.9-3.3-3.2-10.9 4-10.9 3.1 0 4.1.5 5 2.5zM245 246c.5 1 1 3.9 1 6.4 0 3.5-.5 4.8-2.2 6-3.7 2.6-10.8 1.6-13-1.8-1.3-1.9-.9-9.3.6-10.5.7-.6 3.1-1.7 5.2-2.5 4.3-1.5 6.7-.8 8.4 2.4zm16.8-1.2c1.7 2.2 1.5 9.7-.3 11.2-2.2 1.8-8 .4-9.9-2.5-2.3-3.5-2-5.3 1.4-8.6 3.2-3.3 6.3-3.3 8.8-.1zm-36.3 6.6c.8 3.3.6 4-1 5.2-1.9 1.4-3.4 1.3-8.7-.8-4.1-1.5-3.8-5.4.5-7.3 5.4-2.4 8.1-1.6 9.2 2.9zm-165 0c3.1 4.7 10.6 5.9 15 2.4 2.3-1.8 3.1-1.9 4.7-.9 1 .6 3.7 1.4 6 1.7 3.1.5 4.7.1 6.9-1.5 2.7-2 2.9-2 5.8-.4 2.4 1.5 3.6 1.6 7 .7 2.7-.7 8.8-.8 18.8-.3 19.8 1.2 61.4 2.3 73.5 2 9.2-.2 10 0 13.9 2.6 3.5 2.3 5.4 2.8 10.8 2.9 3.6.1 8.2.8 10.1 1.7 4.5 1.9 11.7.8 14.1-2.2 1.8-2.2 4.4-2.8 5.3-1.2.9 1.4 6.9 2 9.1.8 1.1-.5 2.6-1.8 3.3-2.9 1.6-2.2 7.1-2.3 29.7-.2 25 2.2 25.2 2.3 26 4.7 2.1 6.4 2.7 223.2.6 226.4-1.9 2.9-5.8 3-71.6 2.2-36.8-.5-98.7-1.2-137.5-1.4-38.8-.3-73.2-.8-76.5-1.2l-6-.8-1.2-10.5c-.8-7.4-1.2-32.5-1.1-85 0-41-.1-89.2-.2-107.1l-.2-32.6 6.9-.6c6.6-.5 6.9-.5 9.1 2.4 1.5 1.8 3.3 2.9 4.8 2.9 3.5 0 8.1-2.6 8.9-5 .8-2.7 2.1-2.5 4 .4zm350.8 71.7c5.7 1.5 10.1 6 12.2 12.3 2.7 7.9 1.2 12.1-7.3 20.8-7.7 7.8-8 8.5-8.1 15.8-.1 5.8 3.3 14.4 9.5 24.1 4.1 6.4 4.1 14.7 0 20.7-3.8 5.6-8.9 8.2-16.1 8.2-7.8 0-10.7-1.8-14.1-8.7-3.4-6.8-3.8-15.3-1.1-22.2 2.6-6.3 2.3-9.9-.9-10.7-1.4-.4-9.6-.1-18.2.6s-16.8 1.4-18.2 1.4l-2.5.1.3-8.9c.1-4.9.3-9.1.5-9.2.1-.1 8-.4 17.5-.5 18.1-.2 20.4-.8 18.4-4.6-2.9-5.6-1.9-23.1 1.7-30.5 3.9-8.2 15-11.9 26.4-8.7zM338 371.4c0 .8-1.1 2.8-2.4 4.3-1.8 2.1-2.8 2.5-3.6 1.7-.8-.8-.4-1.9 1.5-4.3 2.9-3.3 4.5-4 4.5-1.7zm-2.6 12c-.7 1.7-3.4 2.3-3.4.6 0-.9 3.2-3.1 3.8-2.6.1.2 0 1.1-.4 2z"/><path d="M111.4 91.9c-1.7.4-6 2.2-9.5 3.8-3.5 1.7-8 3.8-10.1 4.8-9.4 4.3-19.3 19.3-19.1 28.9.3 10.4 9.1 25.4 17.4 29.6 7.9 4.1 15.7 6 24.4 6 6.9 0 8.5.3 8.5 1.5 0 .9-1.1 2-2.5 2.5-2.4.9-3.5 3-1.6 3 2.9 0 15.2-6.7 18.9-10.3 6.2-6.1 7.7-9 10.6-20.7 3-12.2 3.2-19.1 1-27.2-3.1-11.1-16.4-21.3-28.9-22.2-3.3-.3-7.4-.2-9.1.3zm22.2 8.5c9.5 4.4 13.4 11.8 13.4 25.6 0 9.2-1.6 15.3-5.6 21.5-7.1 11-13.1 14.5-24.9 14.5-12.2 0-22.9-3.9-29.9-10.7-5.2-5.2-8.2-10.7-9.5-18-1.3-6.4-.2-10.5 4.5-17.4 5.3-7.6 10.6-12.1 18.2-15.1 5.9-2.4 8.1-2.7 17.7-2.8 9.5 0 11.7.3 16.1 2.4z"/><path d="M108.5 124.2c-2.9 1.6-3.5 2.8-3.5 6.9 0 5.7 4.7 8 9.9 4.8 4-2.4 4.2-6.9.6-10.4-2.7-2.8-4-3-7-1.3zM174 117.3c-8.5 2.5-15.9 11.9-18 23.1-1.4 6.9 5 23.8 11.6 30.9 3.1 3.4 13 8.1 15.2 7.2 2.1-.8.7-1.9-5-4-4.6-1.7-9.8-5.8-9.8-7.6 0-1.4 1.8-1.1 6.1 1.2 4 2 4.2 2 11.7.3 9.4-2.2 13.8-6 17-14.7 3.3-8.7 3.2-16-.2-22.7-3.4-6.7-7.9-11.6-12-12.9-5.6-1.8-12-2.1-16.6-.8zm17.7 6.7c1.8 1 4.5 3.8 6 6.1 5.8 8.9 2.2 25.4-6.6 29.8-5.6 2.9-14.3 2.8-19.5-.2-6.3-3.6-9.8-12.6-8.2-21.3.8-4.2 8.4-12.9 13.1-15 4.5-2 11.5-1.7 15.2.6z"/><path d="M177.8 139.1c-1.1.6-1.8 2.2-1.8 3.9 0 2.3.5 3.1 2.5 3.6 3.1.8 5.5-1 5.5-4 0-3.9-2.8-5.5-6.2-3.5zM271 342.1c-1.4 1.1-1.8 1.9-.9 1.6.9-.3 2.1-.2 2.8.2 2.1 1.3 3.3 13.1 2.7 25.1-.6 11.2-.6 11.6 2 15.3 2.5 3.7 2.7 3.8 6.7 3.1 5.3-.9 6.6-1 9.8-.1l2.6.7.7-16.3c.4-8.9 1.1-18 1.6-20.2.9-3.9.8-4.1-2.9-7.6-3.9-3.5-4-3.6-13.3-3.7-8.1-.2-9.6.1-11.8 1.9zm19.9 2.5c.6.5-1.7 34.5-2.3 35.1-.2.2-2.5 0-5.2-.4l-4.9-.8-.2-11.4c-.2-6.3-.7-13.9-1.3-16.9-.5-3.1-1-6-1-6.5 0-.9 14 0 14.9.9zm2.8 14.1c-.2 2.1-.4.4-.4-3.7 0-4.1.2-5.8.4-3.8.2 2.1.2 5.5 0 7.5zm-1.4 26c-.7.2-1.9.2-2.5 0-.7-.3-.2-.5 1.2-.5s1.9.2 1.3.5zM169.9 349.8c-1.1 1.3-1.3 2.6-.7 4.7.5 1.7 1.3 11.8 1.8 22.5 1.4 30.7 1.5 31.5 6.5 35.6 4.2 3.4 7.9 4.2 13.3 2.8 2.6-.7 2.9-3.9.6-6.5-2.5-2.8-1.1-4.4 5.2-5.8 13.3-3 19-9 20.1-21.2.5-5 .1-7.1-2.3-13.1-1.6-3.9-4.3-8.7-6.1-10.6l-3.2-3.4-8.8.4c-8.3.3-9 .1-12.4-2.5-2.3-1.7-4.8-2.7-7-2.7-1.9 0-3.9-.4-4.5-1-.6-.6-1.5-.4-2.5.8zm10.1 8.9c0 7.3 2.1 10.9 3.4 5.9.7-2.9 5.9-6.1 11.5-7.1 4-.7 4.2-.5 9.5 4.8 5.3 5.5 6.6 8.5 6.6 16 0 4.1-3.5 10.2-7.6 13.3-3.4 2.6-3.8 2.7-7.7 1.5-2.3-.7-5.3-1.4-6.7-1.4-1.4-.1-3.8-1-5.2-1.9-1.4-.9-2.8-1.4-3.1-1.1-.3.3-.3 4.3 0 9l.6 8.5-2.9-.4c-3.8-.4-4.2-2.1-4.4-21.3-.1-8.8-.5-18.5-.9-21.5-1-6.4-.1-8 4-8 2.7 0 2.9.3 2.9 3.7z"/><path d="M184.4 368.6c-3.4 3.5-4.2 6.9-2.8 12 1 3.6 7.8 6.7 13.7 6.2 10.3-.8 13-5.4 8.6-14.5-2.5-5.1-6.1-7.3-12-7.3-3.5 0-4.7.6-7.5 3.6zm16.5 2.9c3.1 4 3.7 8.4 1.5 10.6-1.1 1-3 2.1-4.4 2.4-2.3.5-2.8.1-4.8-4-2.7-5.6-2.7-5.6-.1-8.9 2.6-3.3 5.2-3.3 7.8-.1zM239 350.9c-6.4 1.9-11 5.5-11 8.6 0 1.8 1.7 6.2 3 7.8.6.6 1.9 2.4 3 3.9 1.2 1.5 3.6 3.3 5.5 3.9 3 1.1 3.5 1.8 3.5 4.5 0 3.9-2.7 6.2-8.4 7.1l-3.8.6.4 4.8c.4 4.3 1.1 5.3 6.4 10.3 3.2 3.1 6 5.6 6.1 5.6.1 0 2.8-1.6 5.9-3.6 6.4-4.1 11-10.6 12-17 .9-5.9.1-8.1-4.6-13.8-5.5-6.6-5.4-8.6.5-8.6 2.5 0 4.5.4 4.5 1 0 .5.9 1 2.1 1 3.6 0 1.4-5.8-4.6-11.9-4.5-4.5-5.9-5.4-9.6-5.7-2.5-.2-7.2.5-10.9 1.5zm10.3 1.8c-.6 1.5-.4 1.6.9.6 1.6-1.4 2.8-.8 2.8 1.3 0 .6-2 1.5-4.5 1.8-5.7.9-9 3.5-8.1 6.4.4 1.1 1.6 2.4 2.8 2.8 3.4 1 9.6 7.3 10.8 10.9 1.3 4-.1 10.5-3.2 14.5-1.8 2.3-10 5.8-13.9 5.9-1.8.1-4.5-5.2-3.5-6.7.3-.5 2.1-1.3 4-1.6 1.9-.4 4.6-1.6 6.1-2.8 2.4-1.9 2.7-2.6 2.2-6.5-.5-5.1-2.3-7.4-9.4-12-4.3-2.7-5.3-3.9-5.3-6.2 0-3.7 3.8-7.1 9.7-8.7 7.1-1.9 9.4-1.8 8.6.3zM144 355.5l-4.5 1.2-1.1 9.9c-.6 5.4-1.7 11.2-2.4 12.7-2.3 4.8-10.1 7.6-11.4 4.1-.9-2.5-.7-10 .4-13 .8-2.1.7-3.2-.7-5.3-1-1.4-2.1-3.5-2.4-4.6-.4-1.6-1.3-1.9-4.1-1.7-2.8.2-3.7-.1-4-1.5-.6-3-3.5 2.7-4.9 9.6-1 4.8-1.1 7.8-.1 14.3 1.3 9 3 12.2 10.6 20.2 4.4 4.6 4.8 4.8 8.7 4.2 2.3-.4 5.4-1.3 7-2.1 3.7-2 3.9-2 8.8 1.3l4.3 2.9 3.5-1.8c2-1 4-2 4.5-2.1.6-.2.6-1.3 0-2.8-.5-1.4-.7-9.8-.3-19.5l.6-17-2.8-5.3c-1.6-2.8-3.4-5.1-4-5.1-.7.1-3.2.7-5.7 1.4zm3.6 17.5c-.4 6.9-1 15.6-1.4 19.5-.6 6.4-.9 7-3.1 7.3-2.4.4-2.4.3-1.8-5.7.4-3.4.5-6.1.2-6.1s-2.6 1.5-5.2 3.4c-14 9.9-23 6.3-25.5-10.1-.8-5.3-.8-8.2.4-13.3 1.3-6 1.7-6.5 4.3-6.8 2.7-.3 2.8-.2 2.1 2.9-1.2 6-1.9 16.7-1.2 19.2.7 2.9 7.5 6.7 11.9 6.7 3.6 0 10.2-6.1 11.8-10.7.6-2 1.2-7.5 1.3-12.2l.2-8.6 3-.5c3.7-.7 3.8-.4 3 15zm4.4-13c0 .5-.4 1-1 1-.5 0-1-.5-1-1 0-.6.5-1 1-1 .6 0 1 .4 1 1zM62 362.7c-8.9 3.9-13 9.6-13 18.4 0 7.7 3.9 14.1 11.4 19 6.9 4.5 10.5 5.4 18.9 4.6 7.3-.7 10.4-2.7 13.6-9.1 2.3-4.6 2.4-5.2 1.4-13.9-1-8.9-1.2-9.3-5.1-12.7-4.8-4.2-14.3-8-19.7-7.9-2.2 0-5.6.7-7.5 1.6zm16.8 2.4c3.5 1.5 4.7 2.8 6.7 7.1 4.2 9 3.1 14.3-4.4 21.1-3.8 3.4-4.6 3.7-10.4 3.7-14.9 0-23.6-11.3-17.7-23 2.5-4.8 5.1-7.3 10.4-10 4.6-2.2 8.3-2 15.4 1.1zM66 399.5c1 1.2 1 1.5-.3 1.5-.8 0-1.7-.7-2.1-1.5-.3-.8-.2-1.5.3-1.5s1.4.7 2.1 1.5z"/><path d="M66 367.7c-7 2.6-11.5 16-7.2 21.3 3.3 4.1 16.8 3.6 19.1-.8 1.9-3.8 2.3-10 .7-13.1-1.3-2.5-9.1-8.3-10.7-8-.2 0-1.1.3-1.9.6zm9.4 8.5c.9 1.2 1.6 4.2 1.6 6.5 0 4-.3 4.5-3.5 6-3.3 1.6-3.6 1.5-5.5-.2-2.7-2.4-2.7-8.4.1-11.9 2.5-3.2 5.3-3.3 7.3-.4zM282 389.7c-6.4 2.4-6.5 7-.4 11.8 6.1 4.6 8.9 4.8 15.6 1.4 4.4-2.3 5-5.2 1.8-9.2-3-3.7-12-5.8-17-4zm9.3 3.4c1.8 1.7 1.8 1.8-.5 3.2-2.5 1.7-9.5 2.1-10.3.6-.9-1.4 1.4-4.9 3.8-5.8 2.5-1 4.4-.4 7 2zM162.8 399.7c.6.2 1.2 1.2 1.2 2 0 .9-.6 1.3-1.5.9-.8-.3-1.5-.1-1.5.4 0 1.6 2.1 2.2 3.5 1 1.7-1.4.3-5.1-1.8-4.9-.9 0-.9.2.1.6zM102 402.1c0 .6-.7.9-1.5.5-1.7-.6-2.1.9-.5 1.9 1.2.7 4-1.2 4-2.6 0-.5-.4-.9-1-.9-.5 0-1 .5-1 1.1zM222.7 402.5c-1.3.9-1.5 1.5-.7 2 1.4.8 3.4-.9 2.9-2.3-.3-.7-1.1-.6-2.2.3zM51.6 449.3c-.3 1.2-.6 6.4-.6 11.5 0 7.1.3 9.3 1.3 9 .6-.3 1.3-1.8 1.5-3.6.2-1.7.9-3.6 1.7-4.2 1.9-1.6 5.5-.3 5.5 2 0 2.9 1.1 5 2.5 5 .7 0 1.5-.5 1.7-1.2.2-.6 1.5 0 3 1.5 3.8 3.8 7.1 4.3 10.8 1.7 1.6-1.2 3-2.6 3-3.1 0-1.2-2.4-1.1-3.7.2-1.3 1.3-7.9.8-7.6-.6 0-.6 1.8-1.6 4-2.3 4.7-1.6 5.5-2.4 4.7-4.6-1.7-4.4-11.5-3.9-12.8.7-.6 2.1-.7 2-2-.9-1.6-3.6-3.7-4.7-7.3-3.8-2.4.7-2.5.5-2-3.5.3-3.3.1-4.4-1.3-5.1-1.4-.8-1.9-.5-2.4 1.3zm24.8 11.6c.5.8-4.3 3.1-6.5 3.1-1.4 0-1-2.8.4-3.3 2.1-.9 5.6-.8 6.1.2zM221.6 447.7c-.3.4-.6 5.5-.6 11.5 0 8.9.3 10.8 1.5 10.8 1 0 1.5-1 1.5-3.4 0-6.7 6.2-7.4 6.8-.7.3 2.4.8 3.1 2.4 3.1 1.9 0 2-.4 1.5-5.3-.8-6.1-2.7-8.1-7.2-7.3-3 .6-3 .6-2.7-3.8.3-3.1 0-4.5-1.1-4.9-.8-.3-1.8-.3-2.1 0zM127.5 453c-.4.6-1.2 3.2-1.8 5.8-1.1 4.3-1.5 4.7-4.2 4.7-2.9 0-3-.2-3.3-4.8-.3-4.1-.5-4.7-1.8-3.7-1.7 1.5-1.8 6.9-.2 10.5 1.1 2.4 1.6 2.6 5.1 2.1 2.4-.4 4.5-.2 5.3.5.8.7 1.6 1 1.8.8.3-.2.7-3.9 1-8.1.4-7.2-.3-10.3-1.9-7.8zM39.2 460.9c.3 4.4 1 8.7 1.8 9.5.7.9 2.8 1.6 4.6 1.6 2.7 0 3.4-.4 3.4-1.9s-.5-1.8-2.1-1.4c-2.5.7-4.9-1.9-4.9-5.3 0-1.6.8-2.3 3-2.8 4-.7 4.2-3.8.3-3.4-2.2.2-2.9-.2-3.1-2-.2-1.2-1-2.2-1.9-2.2-1.3 0-1.5 1.2-1.1 7.9zM181.1 458.7c0 3.2.5 7.4 1.2 9.3 1.1 3.1 1.7 3.5 5 3.8 3.1.3 3.7 0 3.7-1.6 0-1.5-.5-1.8-2.5-1.4-2 .3-2.7-.1-3.5-2.4-1.4-3.5-.7-5.2 2.2-5.6 1.2-.2 2.4-1.1 2.6-2.1.3-1.4-.2-1.7-2.5-1.5-2.3.2-2.9-.1-3.1-2-.2-1.2-1-2.2-1.8-2.2-1.1 0-1.4 1.4-1.3 5.7zM208.1 457.7c0 2.7.6 6.8 1.2 9.3 1.2 4.4 1.3 4.5 5.2 4.5 2.9 0 4-.4 4-1.5 0-1-.8-1.4-2.4-1.2-2.8.4-4.1-1.2-4.1-5.1 0-2 .5-2.7 1.9-2.7 2 0 4.5-2.3 3.4-3.3-.3-.4-1.7-.4-2.9-.1-2.1.5-2.4.2-2.4-2 0-1.9-.5-2.6-2-2.6-1.7 0-2 .6-1.9 4.7zM269.1 458.7c0 3.2.5 7.4 1.2 9.3 1.1 3.2 1.5 3.5 5.2 3.5 2.9 0 4-.4 4-1.5 0-1-.8-1.4-2.7-1.2-2.2.3-3-.2-3.8-2.3-1.5-3.9-1.3-4.5 2-5.6 3.9-1.4 4.1-4.1.3-3.7-2.2.2-2.9-.2-3.1-2-.2-1.2-1-2.2-1.8-2.2-1.1 0-1.4 1.4-1.3 5.7zM298.8 454.7c-.2.5-.2 3.8 0 7.5.3 4.9.8 6.8 1.7 6.8.9 0 1.5-1.6 1.7-4.8.3-4.7.3-4.7 4.1-5 3.2-.3 3.7-.7 3.7-2.8 0-2.2-.3-2.4-2.2-1.9-1.3.4-2.7 1.1-3.2 1.6-1.5 1.3-2.6 1.1-2.6-.6 0-1.5-2.6-2.1-3.2-.8zM98.6 455.8c-.2.4-.2 5.2.1 10.5.4 6.9 1 9.7 1.9 9.7.7 0 1.4-1.2 1.6-2.7.3-2.6.6-2.8 4.5-2.5 3.4.3 4.4 0 5.3-1.8 3.3-6.2-.3-12.6-6.6-11.5-2.3.4-3.3.1-3.8-1-.6-1.6-2.2-2-3-.7zm10.9 7.2c1.5 1.6 1.6 2.2.5 3.5-2.6 3.1-8.1-.1-6.7-3.9.9-2.2 4-2 6.2.4zM131.2 465.2c.3 8.9.5 10.3 2.1 10.6 1.3.3 1.7-.3 1.7-2.5 0-2.6.3-2.8 4.2-2.8 4.1 0 4.3-.2 5.8-4.2 1.4-4.1 1.3-4.3-1-6.9-2.1-2.2-3.1-2.5-6.2-2-3 .5-3.8.3-3.8-.9 0-.8-.7-1.5-1.5-1.5-1.3 0-1.5 1.6-1.3 10.2zm10.2-2.9c2.8 2 1.2 5.9-2.1 5.5-3-.3-4.9-2.8-4-5.2.8-1.9 3.7-2.1 6.1-.3zM147.4 456.4c-.3.8-.3 5 0 9.3.2 4.3.5 8.4.5 9 .1.7.8 1.3 1.6 1.3 1 0 1.5-1 1.5-2.9 0-2.8.1-2.8 4.3-2.4 3.9.5 4.4.3 5.5-2.1 2.9-6.5-.6-12.5-6.7-11.1-2.1.4-3 .2-3.4-.9-.8-2-2.6-2.1-3.3-.2zm10 5.9c2.6 1.9 1.7 5.1-1.6 5.5-3.3.4-5.7-3-3.7-5.4 1.4-1.7 3-1.8 5.3-.1zM255.8 457.7c-.8 1-1.8 2.4-2.2 3-1.1 1.9 2 1.6 3.9-.4 1.2-1.2 2.2-1.4 3.2-.7 2.4 1.5 1.7 2.9-1.9 3.4-2.2.3-3.7 1.4-4.8 3.2-1.3 2.5-1.3 2.9.2 4.4 1.4 1.4 2.5 1.6 7 .8l5.3-.9.3-4.6c.2-3.4-.2-5.2-1.8-7.2-2.5-3.2-6.9-3.6-9.2-1zm7.2 9.2c0 1.1-.9 2.1-2.2 2.5-3 .7-4.5-.8-2.8-2.9 1.8-2.1 5-1.9 5 .4zM167.1 458.3c-3 1.5-4.4 6-2.9 9.2.6 1.3 2.6 3.1 4.5 4 3.2 1.5 3.6 1.5 6.5-.2 3.6-2.1 5.4-5.2 2.2-3.8-2.7 1.2-8.8 1.2-9.4 0-.3-.6 1.8-1.8 4.5-2.7 5.3-1.8 5.8-3.1 2.3-6.1-2.4-2-4.4-2.1-7.7-.4zm6.7 2.9c-.5 1.3-6.7 3.3-7.6 2.4-.2-.3.1-1.2.8-2.1 1.5-1.8 7.4-2.1 6.8-.3zM239.8 458.2c-3.2 1.1-4.7 6.3-2.8 9.8 1.7 3.2 6.7 5 10.2 3.8 3.1-1.1 5.9-4.8 3.5-4.8-.7 0-1.8.5-2.4 1.1-1.3 1.3-7.8.8-7.8-.6 0-.5 2-1.7 4.5-2.6 5.2-1.9 6.1-4 2.8-6.3-2.5-1.8-4.1-1.9-8-.4zm6.7 2.7c.6 1-6.3 3.6-7.2 2.7-.3-.3 0-1.2.7-2.1 1.4-1.6 5.5-2 6.5-.6zM285 458.1c-3 1.2-4 2.6-4 6 0 3.3 3.2 7.5 6.5 8.3 3 .8 8.5-1.8 8.5-3.9 0-1.8-1.2-1.9-2.7-.4-1.2 1.2-7 1.6-8 .5-1.1-1 1.5-3 5.4-4.1 4.4-1.2 5.1-2.7 2.4-5.4-2.3-2.3-4.2-2.5-8.1-1zm6.5 2.8c.6 1-6.3 3.6-7.2 2.7-.3-.3 0-1.2.7-2.1 1.4-1.6 5.5-2 6.5-.6zM398.1 331.2c-7.6 2.1-11 6.7-11.1 14.7 0 4.9.3 5.6 4 9.3 3.8 3.9 4.2 4 9.1 3.6 4.2-.4 5.7-1.2 8.6-4.1 2.9-2.8 3.7-4.5 4.1-8.5.2-2.8.1-6.7-.2-8.6-.6-3-1.4-3.9-5.3-5.6-2.5-1.1-4.8-2-5.2-1.9-.3 0-2.1.5-4 1.1zm7.3 6.7c4.6 5.1 3.4 13.7-2.3 16.1-2.9 1.2-3.5 1.1-5.9-.7-2.1-1.6-2.8-3-3-6.6-.4-5.3 1-8.4 4.1-9.7 3.5-1.4 5.3-1.1 7.1.9zM399.3 395.5c-5.8 2.6-6.8 4-7.8 10.6-1.2 8 5 15.9 12.5 15.9 5.7 0 6.8-.8 9.5-6.1 3.3-6.4 3.1-15.4-.4-20.8-1.5-2.3-8.1-2.1-13.8.4zm8.5 5.8c2.7 2.9 3.9 8.2 2.2 10.2-.7.8-3 2-5.1 2.6-4.3 1.3-6.4.3-8-3.9-1.4-3.5 0-7.2 3.5-9.3 4-2.4 4.8-2.4 7.4.4z"/></svg>