<svg aria-hidden="true" focusable="false" xmlns="http://www.w3.org/2000/svg"
 width="100" height="125" viewBox="0 0 430 501"
 preserveAspectRatio="xMidYMid meet">
  <g transform="translate(0, 501) scale(0.1,-0.1)"
  fill="#000000" stroke="none">
    <path d="M90 4990 c-60 -5 -65 -7 -74 -33 -8 -20 -5 -48 11 -110 12 -45 27
    -120 33 -167 11 -85 30 -205 50 -310 6 -30 19 -109 30 -175 10 -66 24 -136 30
    -155 13 -44 79 -356 90 -430 10 -63 47 -206 60 -231 7 -12 3 -22 -15 -39 -14
    -13 -25 -28 -25 -34 0 -6 -13 -36 -29 -67 -45 -85 -57 -167 -38 -261 21 -100
    74 -229 126 -307 22 -34 39 -67 35 -72 -3 -5 -40 -9 -83 -9 -51 0 -82 -4 -89
    -12 -11 -14 -8 -2062 4 -2325 6 -134 9 -154 26 -170 18 -16 51 -19 327 -24
    168 -4 531 -7 806 -8 275 -1 610 -6 745 -12 344 -15 1118 -23 1133 -11 7 5 27
    13 44 17 l33 7 -8 86 c-7 87 -9 517 -3 689 4 108 11 118 82 115 59 -2 74 17
    65 83 -6 38 -4 44 19 59 31 21 258 49 300 37 26 -7 30 -12 28 -42 -9 -143 -7
    -176 12 -219 49 -113 90 -150 167 -150 103 0 195 45 240 119 19 30 23 50 23
    121 0 75 -3 90 -26 125 -36 55 -81 162 -85 205 -4 29 3 45 36 90 110 149 120
    169 120 232 0 66 -16 106 -64 156 -47 50 -106 72 -190 72 -119 -1 -180 -42
    -233 -155 -23 -50 -28 -77 -31 -162 -3 -60 -9 -106 -16 -112 -6 -5 -65 -7
    -146 -3 l-135 7 -5 46 c-8 66 -22 79 -85 79 -30 0 -57 5 -63 13 -6 7 -13 141
    -17 332 -8 387 -20 571 -41 602 -12 20 -23 23 -77 23 -35 0 -68 5 -73 10 -8 8
    -7 33 1 83 25 144 56 282 65 291 6 6 10 25 10 42 0 18 14 86 31 151 17 65 37
    145 45 178 7 33 19 78 27 100 8 22 17 58 21 80 4 22 15 67 26 100 68 215 121
    386 129 425 22 97 31 129 59 225 17 55 33 116 37 135 4 19 20 73 36 120 15 47
    34 114 42 150 8 36 29 125 46 198 17 73 31 141 31 152 0 29 -35 43 -94 36 -28
    -3 -366 -1 -751 6 -709 11 -2666 17 -2785 8z m965 -69 c683 7 1583 -1 2005
    -16 85 -3 232 -5 325 -6 194 0 241 -5 250 -27 3 -8 -8 -62 -23 -121 -16 -58
    -34 -128 -41 -156 -6 -27 -23 -86 -36 -130 -41 -135 -107 -368 -117 -415 -5
    -25 -29 -108 -53 -185 -24 -77 -51 -165 -59 -195 -90 -321 -161 -588 -186
    -695 -17 -71 -39 -163 -50 -202 -11 -40 -25 -105 -31 -145 -6 -40 -13 -79 -15
    -87 -4 -11 -31 -12 -157 -5 -83 4 -164 7 -178 6 -21 -1 -30 6 -39 29 -24 56
    -95 68 -141 23 l-28 -27 -31 27 c-17 14 -42 29 -55 32 -26 6 -94 -22 -102 -43
    -4 -9 -28 -13 -87 -13 -61 0 -88 -5 -108 -18 -53 -35 -776 -12 -1061 34 -22 4
    -43 2 -51 -5 -16 -13 -23 -6 -41 36 -9 20 -23 35 -39 39 -30 7 -95 -13 -103
    -32 -6 -15 -33 -20 -33 -6 0 12 -46 32 -74 32 -41 0 -83 -20 -94 -45 -14 -31
    -29 -32 -37 -2 -18 57 -80 89 -121 62 -13 -8 -29 -15 -36 -15 -16 1 -59 67
    -96 151 -82 184 -88 302 -22 442 18 39 27 47 49 47 14 0 42 -11 61 -24 44 -29
    164 -82 210 -91 19 -4 71 -22 115 -40 44 -18 109 -40 145 -49 36 -9 110 -30
    165 -46 106 -32 162 -40 475 -65 226 -18 391 -41 438 -60 18 -8 99 -19 180
    -24 81 -6 183 -13 227 -17 104 -8 153 -7 309 11 71 8 131 13 134 11 10 -11
    -43 -194 -69 -237 -37 -63 -44 -89 -25 -89 9 0 33 36 60 93 43 87 68 173 86
    297 5 30 15 84 24 120 11 42 19 133 23 260 6 203 -1 263 -52 420 -8 25 -24 83
    -35 129 -12 46 -28 90 -36 98 -10 10 -13 26 -9 51 20 128 29 172 43 210 12 34
    12 45 3 55 -10 9 -15 8 -27 -7 -8 -11 -14 -26 -14 -33 0 -20 -128 -191 -152
    -204 -18 -9 -24 -8 -37 10 -17 22 -111 63 -171 74 -19 4 -96 22 -170 41 -228
    59 -309 74 -475 91 -88 8 -225 22 -305 30 -190 20 -442 19 -555 0 -48 -9 -95
    -13 -104 -10 -27 8 -80 193 -81 282 0 90 -30 98 -65 19 -32 -72 -53 -189 -56
    -310 -3 -94 -2 -99 22 -117 53 -41 123 -48 187 -19 48 22 50 30 20 70 -12 16
    -19 32 -17 35 3 2 54 12 115 21 183 27 542 9 944 -47 102 -14 236 -44 445 -99
    166 -43 191 -53 225 -81 l35 -29 -21 -18 c-12 -9 -47 -37 -78 -61 -31 -24 -56
    -50 -56 -56 0 -30 206 -179 238 -173 20 4 67 97 77 150 6 35 20 56 31 45 8 -8
    84 -300 95 -366 23 -139 -21 -541 -65 -588 -13 -15 -85 -29 -213 -44 -110 -12
    -528 13 -620 37 -32 9 -65 17 -73 19 -22 4 -186 22 -325 35 -66 6 -147 15
    -180 20 -33 5 -89 12 -125 15 -101 9 -175 24 -300 61 -63 19 -138 41 -165 49
    -28 8 -59 20 -68 27 -17 12 -37 76 -51 160 -7 37 -30 56 -50 39 -6 -5 -27 -37
    -46 -70 -18 -34 -39 -61 -46 -61 -35 0 -64 25 -71 59 -12 55 -4 298 11 361 8
    30 19 93 26 140 29 215 54 357 67 384 10 23 11 31 1 37 -20 13 -36 -9 -48 -64
    -15 -77 -39 -226 -55 -358 -8 -64 -19 -127 -24 -141 -5 -14 -13 -62 -16 -107
    -4 -45 -11 -84 -16 -86 -9 -6 -25 43 -43 135 -8 36 -27 119 -44 185 -28 109
    -62 262 -76 340 -3 17 -20 95 -37 175 -29 137 -41 207 -54 325 -4 28 -12 77
    -20 110 -25 112 -36 175 -32 182 3 5 146 7 319 5 172 -2 457 -2 633 -1z m-359
    -476 c-3 -8 -15 -15 -27 -15 -20 0 -21 3 -15 52 10 70 28 81 40 23 4 -25 6
    -52 2 -60z m-11 -55 c18 -7 19 -8 3 -15 -32 -13 -21 -35 18 -35 28 0 35 -4 32
    -17 -2 -10 -18 -21 -36 -27 -17 -5 -32 -15 -32 -22 0 -17 24 -18 52 -3 16 8
    24 8 35 -4 20 -19 10 -34 -33 -52 -19 -8 -34 -19 -34 -24 0 -19 -28 -12 -44
    11 -11 16 -16 46 -16 104 0 98 5 105 55 84z m105 -200 c0 -14 -39 -32 -52 -24
    -7 5 -5 11 7 21 22 15 45 17 45 3z m1944 -118 c-3 -26 -12 -78 -20 -117 -8
    -38 -18 -83 -21 -100 -9 -43 -43 -85 -68 -85 -20 0 -145 86 -159 109 -3 5 1
    14 9 21 12 10 22 6 55 -24 40 -36 70 -46 70 -25 0 7 -17 26 -37 44 -22 19 -34
    36 -29 43 10 16 31 15 48 -1 7 -8 23 -19 35 -25 37 -20 40 7 4 38 -17 15 -31
    33 -31 39 0 15 27 14 53 -4 15 -10 27 -11 37 -5 13 9 11 13 -9 29 -22 17 -22
    49 0 35 6 -3 17 -3 25 0 11 4 12 10 5 24 -7 14 -6 25 5 41 23 32 34 16 28 -37z
    m-2090 -808 c13 -35 7 -54 -19 -54 -27 0 -32 18 -15 51 13 23 26 24 34 3z
    m-129 -650 c36 -39 31 -103 -9 -122 -65 -29 -108 90 -49 136 24 17 31 15 58
    -14z m408 -30 c22 -45 9 -74 -33 -74 -38 0 -76 50 -61 79 24 44 72 41 94 -5z
    m-171 1 c27 -60 -34 -116 -90 -84 -59 33 -32 109 40 109 31 0 41 -5 50 -25z
    m1698 -35 c5 -10 10 -39 10 -64 0 -35 -5 -48 -22 -60 -37 -26 -108 -16 -130
    18 -13 19 -9 93 6 105 7 6 31 17 52 25 43 15 67 8 84 -24z m168 12 c17 -22 15
    -97 -3 -112 -22 -18 -80 -4 -99 25 -23 35 -20 53 14 86 32 33 63 33 88 1z
    m-363 -66 c8 -33 6 -40 -10 -52 -19 -14 -34 -13 -87 8 -41 15 -38 54 5 73 54
    24 81 16 92 -29z m-1650 0 c31 -47 106 -59 150 -24 23 18 31 19 47 9 10 -6 37
    -14 60 -17 31 -5 47 -1 69 15 27 20 29 20 58 4 24 -15 36 -16 70 -7 27 7 88 8
    188 3 198 -12 614 -23 735 -20 92 2 100 0 139 -26 35 -23 54 -28 108 -29 36
    -1 82 -8 101 -17 45 -19 117 -8 141 22 18 22 44 28 53 12 9 -14 69 -20 91 -8
    11 5 26 18 33 29 16 22 71 23 297 2 250 -22 252 -23 260 -47 21 -64 27 -2232
    6 -2264 -19 -29 -58 -30 -716 -22 -368 5 -987 12 -1375 14 -388 3 -732 8 -765
    12 l-60 8 -12 105 c-8 74 -12 325 -11 850 0 410 -1 892 -2 1071 l-2 326 69 6
    c66 5 69 5 91 -24 15 -18 33 -29 48 -29 35 0 81 26 89 50 8 27 21 25 40 -4z
    m3508 -717 c57 -15 101 -60 122 -123 27 -79 12 -121 -73 -208 -77 -78 -80 -85
    -81 -158 -1 -58 33 -144 95 -241 41 -64 41 -147 0 -207 -38 -56 -89 -82 -161
    -82 -78 0 -107 18 -141 87 -34 68 -38 153 -11 222 26 63 23 99 -9 107 -14 4
    -96 1 -182 -6 -86 -7 -168 -14 -182 -14 l-25 -1 3 89 c1 49 3 91 5 92 1 1 80
    4 175 5 181 2 204 8 184 46 -29 56 -19 231 17 305 39 82 150 119 264 87z
    m-733 -483 c0 -8 -11 -28 -24 -43 -18 -21 -28 -25 -36 -17 -8 8 -4 19 15 43
    29 33 45 40 45 17z m-26 -120 c-7 -17 -34 -23 -34 -6 0 9 32 31 38 26 1 -2 0
    -11 -4 -20z"/>
    <path d="M1114 4091 c-17 -4 -60 -22 -95 -38 -35 -17 -80 -38 -101 -48 -94
    -43 -193 -193 -191 -289 3 -104 91 -254 174 -296 79 -41 157 -60 244 -60 69 0
    85 -3 85 -15 0 -9 -11 -20 -25 -25 -24 -9 -35 -30 -16 -30 29 0 152 67 189
    103 62 61 77 90 106 207 30 122 32 191 10 272 -31 111 -164 213 -289 222 -33
    3 -74 2 -91 -3z m222 -85 c95 -44 134 -118 134 -256 0 -92 -16 -153 -56 -215
    -71 -110 -131 -145 -249 -145 -122 0 -229 39 -299 107 -52 52 -82 107 -95 180
    -13 64 -2 105 45 174 53 76 106 121 182 151 59 24 81 27 177 28 95 0 117 -3
    161 -24z"/>
    <path d="M1085 3768 c-29 -16 -35 -28 -35 -69 0 -57 47 -80 99 -48 40 24 42
    69 6 104 -27 28 -40 30 -70 13z"/>
    <path d="M1740 3837 c-85 -25 -159 -119 -180 -231 -14 -69 50 -238 116 -309
    31 -34 130 -81 152 -72 21 8 7 19 -50 40 -46 17 -98 58 -98 76 0 14 18 11 61
    -12 40 -20 42 -20 117 -3 94 22 138 60 170 147 33 87 32 160 -2 227 -34 67
    -79 116 -120 129 -56 18 -120 21 -166 8z m177 -67 c18 -10 45 -38 60 -61 58
    -89 22 -254 -66 -298 -56 -29 -143 -28 -195 2 -63 36 -98 126 -82 213 8 42 84
    129 131 150 45 20 115 17 152 -6z"/>
    <path d="M1778 3619 c-11 -6 -18 -22 -18 -39 0 -23 5 -31 25 -36 31 -8 55 10
    55 40 0 39 -28 55 -62 35z"/>
    <path d="M2710 1589 c-14 -11 -18 -19 -9 -16 9 3 21 2 28 -2 21 -13 33 -131
    27 -251 -6 -112 -6 -116 20 -153 25 -37 27 -38 67 -31 53 9 66 10 98 1 l26 -7
    7 163 c4 89 11 180 16 202 9 39 8 41 -29 76 -39 35 -40 36 -133 37 -81 2 -96
    -1 -118 -19z m199 -25 c6 -5 -17 -345 -23 -351 -2 -2 -25 0 -52 4 l-49 8 -2
    114 c-2 63 -7 139 -13 169 -5 31 -10 60 -10 65 0 9 140 0 149 -9z m28 -141
    c-2 -21 -4 -4 -4 37 0 41 2 58 4 38 2 -21 2 -55 0 -75z m-14 -260 c-7 -2 -19
    -2 -25 0 -7 3 -2 5 12 5 14 0 19 -2 13 -5z"/>
    <path d="M1699 1512 c-11 -13 -13 -26 -7 -47 5 -17 13 -118 18 -225 14 -307
    15 -315 65 -356 42 -34 79 -42 133 -28 26 7 29 39 6 65 -25 28 -11 44 52 58
    133 30 190 90 201 212 5 50 1 71 -23 131 -16 39 -43 87 -61 106 l-32 34 -88
    -4 c-83 -3 -90 -1 -124 25 -23 17 -48 27 -70 27 -19 0 -39 4 -45 10 -6 6 -15
    4 -25 -8z m101 -89 c0 -73 21 -109 34 -59 7 29 59 61 115 71 40 7 42 5 95 -48
    53 -55 66 -85 66 -160 0 -41 -35 -102 -76 -133 -34 -26 -38 -27 -77 -15 -23 7
    -53 14 -67 14 -14 1 -38 10 -52 19 -14 9 -28 14 -31 11 -3 -3 -3 -43 0 -90 l6
    -85 -29 4 c-38 4 -42 21 -44 213 -1 88 -5 185 -9 215 -10 64 -1 80 40 80 27 0
    29 -3 29 -37z"/>
    <path d="M1844 1324 c-34 -35 -42 -69 -28 -120 10 -36 78 -67 137 -62 103 8
    130 54 86 145 -25 51 -61 73 -120 73 -35 0 -47 -6 -75 -36z m165 -29 c31 -40
    37 -84 15 -106 -11 -10 -30 -21 -44 -24 -23 -5 -28 -1 -48 40 -27 56 -27 56
    -1 89 26 33 52 33 78 1z"/>
    <path d="M2390 1501 c-64 -19 -110 -55 -110 -86 0 -18 17 -62 30 -78 6 -6 19
    -24 30 -39 12 -15 36 -33 55 -39 30 -11 35 -18 35 -45 0 -39 -27 -62 -84 -71
    l-38 -6 4 -48 c4 -43 11 -53 64 -103 32 -31 60 -56 61 -56 1 0 28 16 59 36 64
    41 110 106 120 170 9 59 1 81 -46 138 -55 66 -54 86 5 86 25 0 45 -4 45 -10 0
    -5 9 -10 21 -10 36 0 14 58 -46 119 -45 45 -59 54 -96 57 -25 2 -72 -5 -109
    -15z m103 -18 c-6 -15 -4 -16 9 -6 16 14 28 8 28 -13 0 -6 -20 -15 -45 -18
    -57 -9 -90 -35 -81 -64 4 -11 16 -24 28 -28 34 -10 96 -73 108 -109 13 -40 -1
    -105 -32 -145 -18 -23 -100 -58 -139 -59 -18 -1 -45 52 -35 67 3 5 21 13 40
    16 19 4 46 16 61 28 24 19 27 26 22 65 -5 51 -23 74 -94 120 -43 27 -53 39
    -53 62 0 37 38 71 97 87 71 19 94 18 86 -3z"/>
    <path d="M1440 1455 l-45 -12 -11 -99 c-6 -54 -17 -112 -24 -127 -23 -48 -101
    -76 -114 -41 -9 25 -7 100 4 130 8 21 7 32 -7 53 -10 14 -21 35 -24 46 -4 16
    -13 19 -41 17 -28 -2 -37 1 -40 15 -6 30 -35 -27 -49 -96 -10 -48 -11 -78 -1
    -143 13 -90 30 -122 106 -202 44 -46 48 -48 87 -42 23 4 54 13 70 21 37 20 39
    20 88 -13 l43 -29 35 18 c20 10 40 20 45 21 6 2 6 13 0 28 -5 14 -7 98 -3 195
    l6 170 -28 53 c-16 28 -34 51 -40 51 -7 -1 -32 -7 -57 -14z m36 -175 c-4 -69
    -10 -156 -14 -195 -6 -64 -9 -70 -31 -73 -24 -4 -24 -3 -18 57 4 34 5 61 2 61
    -3 0 -26 -15 -52 -34 -140 -99 -230 -63 -255 101 -8 53 -8 82 4 133 13 60 17
    65 43 68 27 3 28 2 21 -29 -12 -60 -19 -167 -12 -192 7 -29 75 -67 119 -67 36
    0 102 61 118 107 6 20 12 75 13 122 l2 86 30 5 c37 7 38 4 30 -150z m44 130
    c0 -5 -4 -10 -10 -10 -5 0 -10 5 -10 10 0 6 5 10 10 10 6 0 10 -4 10 -10z"/>
    <path d="M620 1383 c-89 -39 -130 -96 -130 -184 0 -77 39 -141 114 -190 69
    -45 105 -54 189 -46 73 7 104 27 136 91 23 46 24 52 14 139 -10 89 -12 93 -51
    127 -48 42 -143 80 -197 79 -22 0 -56 -7 -75 -16z m168 -24 c35 -15 47 -28 67
    -71 42 -90 31 -143 -44 -211 -38 -34 -46 -37 -104 -37 -149 0 -236 113 -177
    230 25 48 51 73 104 100 46 22 83 20 154 -11z m-128 -344 c10 -12 10 -15 -3
    -15 -8 0 -17 7 -21 15 -3 8 -2 15 3 15 5 0 14 -7 21 -15z"/>
    <path d="M660 1333 c-70 -26 -115 -160 -72 -213 33 -41 168 -36 191 8 19 38
    23 100 7 131 -13 25 -91 83 -107 80 -2 0 -11 -3 -19 -6z m94 -85 c9 -12 16
    -42 16 -65 0 -40 -3 -45 -35 -60 -33 -16 -36 -15 -55 2 -27 24 -27 84 1 119
    25 32 53 33 73 4z"/>
    <path d="M2820 1113 c-64 -24 -65 -70 -4 -118 61 -46 89 -48 156 -14 44 23 50
    52 18 92 -30 37 -120 58 -170 40z m93 -34 c18 -17 18 -18 -5 -32 -25 -17 -95
    -21 -103 -6 -9 14 14 49 38 58 25 10 44 4 70 -20z"/>
    <path d="M1628 1013 c6 -2 12 -12 12 -20 0 -9 -6 -13 -15 -9 -8 3 -15 1 -15
    -4 0 -16 21 -22 35 -10 17 14 3 51 -18 49 -9 0 -9 -2 1 -6z"/>
    <path d="M1020 989 c0 -6 -7 -9 -15 -5 -17 6 -21 -9 -5 -19 12 -7 40 12 40 26
    0 5 -4 9 -10 9 -5 0 -10 -5 -10 -11z"/>
    <path d="M2227 985 c-13 -9 -15 -15 -7 -20 14 -8 34 9 29 23 -3 7 -11 6 -22
    -3z"/>
    <path d="M516 517 c-3 -12 -6 -64 -6 -115 0 -71 3 -93 13 -90 6 3 13 18 15 36
    2 17 9 36 17 42 19 16 55 3 55 -20 0 -29 11 -50 25 -50 7 0 15 5 17 12 2 6 15
    0 30 -15 38 -38 71 -43 108 -17 16 12 30 26 30 31 0 12 -24 11 -37 -2 -13 -13
    -79 -8 -76 6 0 6 18 16 40 23 47 16 55 24 47 46 -17 44 -115 39 -128 -7 -6
    -21 -7 -20 -20 9 -16 36 -37 47 -73 38 -24 -7 -25 -5 -20 35 3 33 1 44 -13 51
    -14 8 -19 5 -24 -13z m248 -116 c5 -8 -43 -31 -65 -31 -14 0 -10 28 4 33 21 9
    56 8 61 -2z"/>
    <path d="M2216 533 c-3 -4 -6 -55 -6 -115 0 -89 3 -108 15 -108 10 0 15 10 15
    34 0 67 62 74 68 7 3 -24 8 -31 24 -31 19 0 20 4 15 53 -8 61 -27 81 -72 73
    -30 -6 -30 -6 -27 38 3 31 0 45 -11 49 -8 3 -18 3 -21 0z"/>
    <path d="M1275 480 c-4 -6 -12 -32 -18 -58 -11 -43 -15 -47 -42 -47 -29 0 -30
    2 -33 48 -3 41 -5 47 -18 37 -17 -15 -18 -69 -2 -105 11 -24 16 -26 51 -21 24
    4 45 2 53 -5 8 -7 16 -10 18 -8 3 2 7 39 10 81 4 72 -3 103 -19 78z"/>
    <path d="M392 401 c3 -44 10 -87 18 -95 7 -9 28 -16 46 -16 27 0 34 4 34 19 0
    15 -5 18 -21 14 -25 -7 -49 19 -49 53 0 16 8 23 30 28 40 7 42 38 3 34 -22 -2
    -29 2 -31 20 -2 12 -10 22 -19 22 -13 0 -15 -12 -11 -79z"/>
    <path d="M1811 423 c0 -32 5 -74 12 -93 11 -31 17 -35 50 -38 31 -3 37 0 37
    16 0 15 -5 18 -25 14 -20 -3 -27 1 -35 24 -14 35 -7 52 22 56 12 2 24 11 26
    21 3 14 -2 17 -25 15 -23 -2 -29 1 -31 20 -2 12 -10 22 -18 22 -11 0 -14 -14
    -13 -57z"/>
    <path d="M2081 433 c0 -27 6 -68 12 -93 12 -44 13 -45 52 -45 29 0 40 4 40 15
    0 10 -8 14 -24 12 -28 -4 -41 12 -41 51 0 20 5 27 19 27 20 0 45 23 34 33 -3
    4 -17 4 -29 1 -21 -5 -24 -2 -24 20 0 19 -5 26 -20 26 -17 0 -20 -6 -19 -47z"/>
    <path d="M2691 423 c0 -32 5 -74 12 -93 11 -32 15 -35 52 -35 29 0 40 4 40 15
    0 10 -8 14 -27 12 -22 -3 -30 2 -38 23 -15 39 -13 45 20 56 39 14 41 41 3 37
    -22 -2 -29 2 -31 20 -2 12 -10 22 -18 22 -11 0 -14 -14 -13 -57z"/>
    <path d="M2988 463 c-2 -5 -2 -38 0 -75 3 -49 8 -68 17 -68 9 0 15 16 17 48 3
    47 3 47 41 50 32 3 37 7 37 28 0 22 -3 24 -22 19 -13 -4 -27 -11 -32 -16 -15
    -13 -26 -11 -26 6 0 15 -26 21 -32 8z"/>
    <path d="M986 452 c-2 -4 -2 -52 1 -105 4 -69 10 -97 19 -97 7 0 14 12 16 27
    3 26 6 28 45 25 34 -3 44 0 53 18 33 62 -3 126 -66 115 -23 -4 -33 -1 -38 10
    -6 16 -22 20 -30 7z m109 -72 c15 -16 16 -22 5 -35 -26 -31 -81 1 -67 39 9 22
    40 20 62 -4z"/>
    <path d="M1312 358 c3 -89 5 -103 21 -106 13 -3 17 3 17 25 0 26 3 28 42 28
    41 0 43 2 58 42 14 41 13 43 -10 69 -21 22 -31 25 -62 20 -30 -5 -38 -3 -38 9
    0 8 -7 15 -15 15 -13 0 -15 -16 -13 -102z m102 29 c28 -20 12 -59 -21 -55 -30
    3 -49 28 -40 52 8 19 37 21 61 3z"/>
    <path d="M1474 446 c-3 -8 -3 -50 0 -93 2 -43 5 -84 5 -90 1 -7 8 -13 16 -13
    10 0 15 10 15 29 0 28 1 28 43 24 39 -5 44 -3 55 21 29 65 -6 125 -67 111 -21
    -4 -30 -2 -34 9 -8 20 -26 21 -33 2z m100 -59 c26 -19 17 -51 -16 -55 -33 -4
    -57 30 -37 54 14 17 30 18 53 1z"/>
    <path d="M2558 433 c-8 -10 -18 -24 -22 -30 -11 -19 20 -16 39 4 12 12 22 14
    32 7 24 -15 17 -29 -19 -34 -22 -3 -37 -14 -48 -32 -13 -25 -13 -29 2 -44 14
    -14 25 -16 70 -8 l53 9 3 46 c2 34 -2 52 -18 72 -25 32 -69 36 -92 10z m72
    -92 c0 -11 -9 -21 -22 -25 -30 -7 -45 8 -28 29 18 21 50 19 50 -4z"/>
    <path d="M1671 427 c-30 -15 -44 -60 -29 -92 6 -13 26 -31 45 -40 32 -15 36
    -15 65 2 36 21 54 52 22 38 -27 -12 -88 -12 -94 0 -3 6 18 18 45 27 53 18 58
    31 23 61 -24 20 -44 21 -77 4z m67 -29 c-5 -13 -67 -33 -76 -24 -2 3 1 12 8
    21 15 18 74 21 68 3z"/>
    <path d="M2398 428 c-32 -11 -47 -63 -28 -98 17 -32 67 -50 102 -38 31 11 59
    48 35 48 -7 0 -18 -5 -24 -11 -13 -13 -78 -8 -78 6 0 5 20 17 45 26 52 19 61
    40 28 63 -25 18 -41 19 -80 4z m67 -27 c6 -10 -63 -36 -72 -27 -3 3 0 12 7 21
    14 16 55 20 65 6z"/>
    <path d="M2850 429 c-30 -12 -40 -26 -40 -60 0 -33 32 -75 65 -83 30 -8 85 18
    85 39 0 18 -12 19 -27 4 -12 -12 -70 -16 -80 -5 -11 10 15 30 54 41 44 12 51
    27 24 54 -23 23 -42 25 -81 10z m65 -28 c6 -10 -63 -36 -72 -27 -3 3 0 12 7
    21 14 16 55 20 65 6z"/>
    <path d="M3981 1698 c-76 -21 -110 -67 -111 -147 0 -49 3 -56 40 -93 38 -39
    42 -40 91 -36 42 4 57 12 86 41 29 28 37 45 41 85 2 28 1 67 -2 86 -6 30 -14
    39 -53 56 -25 11 -48 20 -52 19 -3 0 -21 -5 -40 -11z m73 -67 c46 -51 34 -137
    -23 -161 -29 -12 -35 -11 -59 7 -21 16 -28 30 -30 66 -4 53 10 84 41 97 35 14
    53 11 71 -9z"/>
    <path d="M3993 1055 c-58 -26 -68 -40 -78 -106 -12 -80 50 -159 125 -159 57 0
    68 8 95 61 33 64 31 154 -4 208 -15 23 -81 21 -138 -4z m85 -58 c27 -29 39
    -82 22 -102 -7 -8 -30 -20 -51 -26 -43 -13 -64 -3 -80 39 -14 35 0 72 35 93
    40 24 48 24 74 -4z"/>
  </g>
</svg>
